%
M48
M72
T01C0.0236
T02C0.0240
T03C0.0315
T04C0.0320
T05C0.0354
T06C0.0360
T07C0.0400
T08C0.0433
T09C0.0470
T10C0.0520
T11C0.0590
T12C0.0660
T13C0.1000
T14C0.1260
T15C0.1620
%
T01
X76100Y63250
X83100Y40750
X85850Y27000
T02
X84100Y26250
X79100Y28250
X76600Y31250
X76600Y35250
X77600Y36250
X76600Y40750
X76600Y43750
X75600Y46750
X76100Y47250
X77100Y51750
X73600Y53250
X72600Y54250
X71600Y52750
X69100Y54250
X70100Y55250
X69600Y56750
X70600Y56750
X72100Y58750
X69100Y63750
X63600Y58750
X61600Y59750
X60100Y52250
X59100Y51250
X60100Y50250
X60100Y49250
X58100Y48250
X58100Y46250
X57100Y46250
X55100Y45250
X53100Y43250
X53600Y42750
X54100Y42250
X50600Y42750
X48600Y45750
X51600Y52250
X54100Y53250
X49600Y57250
X47600Y60250
X48600Y63250
X52600Y59250
X54100Y64250
X46100Y55250
X40600Y59750
X43100Y64250
X35100Y60750
X40100Y52750
X41600Y38750
X50100Y30250
X51100Y30750
X52100Y31250
X52100Y34250
X51100Y37250
X58100Y37250
X59100Y38250
X58100Y39250
X62100Y34250
X64100Y32250
X66600Y30750
X66600Y26250
X69600Y24250
X71600Y23250
X71600Y22250
X74100Y26250
X76100Y24250
X76600Y24750
X79100Y23750
X78100Y21250
X72600Y16250
X72600Y15250
X65100Y19250
X62100Y20250
X59100Y24250
X58100Y27250
X61100Y27250
X55100Y29250
X47600Y26750
X45600Y27750
X46600Y29250
X60100Y14250
X64100Y14250
X64100Y15250
X69600Y2750
X86100Y8750
X71600Y28250
X66100Y38750
X65100Y42250
X66100Y43250
X64100Y45250
X62100Y45250
X64100Y48250
X63100Y50250
X63100Y51250
X64100Y51250
X64600Y51750
X64600Y50750
X65600Y50750
X66600Y50750
X67600Y52750
X71600Y43750
X70100Y43250
X70100Y42250
X82600Y45750
X84600Y47750
X86600Y44250
X88600Y54250
X87600Y55750
X83100Y55250
X83100Y60250
X81600Y65250
X77600Y59250
X77600Y56250
X84100Y75250
X76100Y77750
X76600Y84250
X82600Y89750
X85600Y87250
X79100Y91250
X62600Y86250
X58600Y89250
X53600Y85750
X46815Y86330
X44815Y86330
X43100Y85250
X42600Y87250
X36100Y80250
X32600Y82750
X31600Y89250
X33100Y93750
X39600Y79250
X30100Y70750
X29100Y31250
X85100Y32250
X88600Y29750
T03
X68100Y29250
X68100Y28250
X68100Y27250
X68100Y30250
X68100Y31250
X68100Y32250
X68100Y33250
X68100Y34250
X68100Y35750
X68100Y36750
X68100Y37750
X68100Y38750
X68100Y39750
X68100Y40750
X68100Y41750
X68100Y42750
X68100Y44750
X68100Y45750
X68100Y46750
X68100Y47750
X68100Y48750
X68100Y49750
X68100Y50750
X68100Y51750
X68100Y54750
X68100Y55750
X67100Y55750
X67100Y54750
X66100Y54750
X66100Y55750
X65100Y55750
X65100Y54750
X64100Y54750
X64100Y55750
X63100Y55750
X63100Y54750
X62100Y54750
X62100Y55750
X61100Y55750
X61100Y54750
X60100Y54750
X60100Y55750
X59100Y55750
X59100Y54750
X58100Y54750
X58100Y55750
X57100Y55750
X57100Y54750
X56100Y54750
X56100Y55750
X55100Y55750
X55100Y54750
X54100Y54750
X54100Y55750
X53100Y55750
X53100Y54750
X52100Y54750
X52100Y55750
X51100Y55750
X51100Y54750
X49100Y53750
X49100Y52750
X49100Y51750
X49100Y50750
X49100Y49750
X49100Y48750
X49100Y47750
X49100Y46750
X49100Y44750
X49100Y43750
X49100Y42750
X49100Y41750
X49100Y40750
X49100Y39750
X49100Y38750
X49100Y37750
X49100Y35750
X49100Y34750
X49100Y33750
X49100Y32750
X49100Y31750
X49100Y30750
T04
X38100Y34750
X35100Y32250
X34100Y32250
X34100Y34750
X30100Y30250
X30100Y27250
X30100Y24250
X30100Y21250
X27600Y19250
X27600Y18250
X27600Y15250
X27600Y14250
X27600Y11250
X27600Y10250
X27600Y7750
X27600Y6750
X27600Y4750
X27600Y3750
X24100Y3750
X24100Y7750
X21600Y13250
X21600Y15250
X21600Y19250
X21600Y21250
X21600Y25250
X21600Y27250
X21600Y31250
X21600Y33250
X26100Y30250
X26100Y27250
X26100Y24250
X26100Y21250
X6100Y41250
X6100Y43250
X5600Y52750
X6600Y52750
X7600Y52750
X8600Y52750
X9600Y52750
X10600Y52750
X11600Y52750
X12600Y52750
X12600Y55750
X11600Y55750
X10600Y55750
X9600Y55750
X8600Y55750
X7600Y55750
X6600Y55750
X5600Y55750
X6600Y57750
X4600Y58250
X4600Y61250
X6600Y61750
X8600Y61250
X10600Y61750
X12600Y61250
X14600Y61750
X12600Y58250
X10600Y57750
X8600Y58250
X14600Y57750
X17100Y57250
X19600Y55750
X19600Y53750
X20100Y51750
X19600Y49750
X19600Y47750
X23100Y51750
X23600Y49750
X23600Y47750
X23600Y53750
X23600Y55750
X23100Y57750
X23600Y59750
X23600Y61750
X23100Y63750
X20100Y63750
X19600Y61750
X19600Y59750
X20100Y57750
X17100Y53250
X22100Y69750
X23100Y69750
X24100Y69750
X25100Y69750
X26100Y69750
X27100Y69750
X28100Y69750
X29100Y69750
X29100Y72750
X28100Y72750
X27100Y72750
X26100Y72750
X25100Y72750
X24100Y72750
X23100Y72750
X22100Y72750
X26100Y80250
X26100Y81250
X26100Y82250
X26100Y83250
X26100Y84250
X26100Y85250
X26100Y86250
X26100Y87250
X25600Y89750
X24100Y89750
X21600Y89750
X19600Y89750
X17100Y89750
X15100Y89750
X12600Y89750
X10600Y89750
X11000Y87535
X11000Y85535
X6840Y86395
X4840Y86395
X5600Y89750
X7600Y89750
X7600Y92750
X5600Y92750
X10600Y92750
X12600Y92750
X15100Y92750
X17100Y92750
X19600Y92750
X21600Y92750
X24100Y92750
X25600Y92750
X27600Y92750
X29100Y92750
X29100Y89750
X27600Y89750
X29100Y87250
X29100Y86250
X29100Y85250
X29100Y84250
X29100Y83250
X29100Y82250
X29100Y81250
X29100Y80250
X31875Y76815
X31875Y75815
X31600Y73750
X34600Y73750
X34755Y75660
X37755Y75660
X41100Y77750
X42100Y77750
X43100Y77750
X44100Y77750
X45100Y77750
X46100Y77750
X47100Y77750
X48100Y77750
X49100Y77750
X50100Y77750
X51100Y77750
X52100Y77750
X53100Y77750
X54100Y77750
X55100Y77750
X56100Y77750
X57100Y77750
X58100Y77750
X59100Y77750
X60100Y77750
X63600Y77250
X63600Y78750
X63600Y80250
X63600Y82250
X63250Y84380
X66250Y84380
X66600Y82250
X66600Y80250
X66600Y78750
X66600Y77250
X66600Y75250
X66600Y73750
X63600Y73750
X63600Y75250
X63600Y71750
X62100Y71750
X60600Y71750
X59100Y71750
X57600Y71750
X56100Y71750
X54600Y71750
X53100Y71750
X51600Y71750
X50100Y71750
X48100Y71750
X46600Y71750
X45100Y71750
X43600Y71750
X42100Y71750
X40600Y71750
X38100Y70735
X38100Y69735
X40600Y68750
X42100Y68750
X43600Y68750
X45100Y68750
X46600Y68750
X48100Y68750
X50100Y68750
X51600Y68750
X53100Y68750
X54600Y68750
X56100Y68750
X57600Y68750
X59100Y68750
X60600Y68750
X62100Y68750
X63600Y68750
X76100Y69750
X76100Y71750
X79100Y71750
X80100Y71750
X81100Y71750
X80100Y69750
X80100Y75250
X79100Y75250
X77600Y75250
X76100Y75750
X76100Y78750
X77600Y79250
X79100Y78750
X80100Y78750
X81100Y78750
X81100Y75250
X87100Y74750
X87100Y73750
X87100Y72750
X87100Y71750
X87100Y70750
X87100Y69750
X90100Y69750
X90100Y70750
X90100Y71750
X90100Y72750
X90100Y73750
X90100Y74750
X90100Y75750
X90100Y76750
X90100Y77750
X90100Y78750
X90100Y79750
X90100Y80750
X90100Y81750
X90100Y82750
X87100Y82750
X87100Y81750
X87100Y80750
X87100Y79750
X87100Y78750
X87100Y77750
X87100Y76750
X87100Y75750
X81100Y82250
X80100Y82250
X79100Y82250
X77600Y82250
X76100Y82750
X77600Y86250
X79100Y85750
X80100Y85750
X81100Y85750
X80600Y88250
X80600Y89750
X79600Y93250
X79600Y94250
X76600Y89750
X76600Y88250
X92100Y89250
X93100Y89250
X92600Y90750
X94100Y90750
X94100Y94750
X92600Y94750
X60970Y93400
X59470Y93400
X58020Y93420
X56520Y93420
X55020Y93420
X53520Y93420
X52020Y93420
X50520Y93420
X49020Y93420
X47520Y93420
X46050Y93395
X44550Y93395
X43050Y93395
X41550Y93395
X41550Y90395
X43050Y90395
X44550Y90395
X46050Y90395
X47520Y90420
X49020Y90420
X50520Y90420
X52020Y90420
X53520Y90420
X55020Y90420
X56520Y90420
X58020Y90420
X59470Y90400
X60970Y90400
X60100Y83750
X59100Y83750
X58100Y83750
X57100Y83750
X56100Y83750
X55100Y83750
X54100Y83750
X53100Y83750
X52100Y83750
X51100Y83750
X50100Y83750
X49100Y83750
X48100Y83750
X47100Y83750
X46100Y83750
X45100Y83750
X44100Y83750
X43100Y83750
X42100Y83750
X41100Y83750
X41760Y85865
X41760Y87865
X44975Y88145
X46975Y88145
X36955Y88200
X36955Y86700
X36955Y85200
X36955Y83700
X33955Y83700
X33955Y85200
X33955Y86700
X33955Y88200
X33955Y89700
X33955Y91200
X36955Y91200
X36955Y89700
X36100Y63750
X35600Y61750
X35600Y59750
X36100Y57750
X35600Y55750
X35600Y53750
X36100Y51750
X35600Y49750
X35600Y47750
X39600Y47750
X39600Y49750
X39100Y51750
X39600Y53750
X39600Y55750
X39100Y57750
X39600Y59750
X39600Y61750
X39100Y63750
X10475Y74800
X8100Y76750
X8100Y77750
X7475Y74800
X53600Y12250
X53600Y11250
X53600Y10250
X53600Y9250
X53600Y8250
X53600Y7250
X53600Y6250
X53600Y5250
X56600Y5250
X56600Y6250
X56600Y7250
X56600Y8250
X56600Y9250
X56600Y10250
X56600Y11250
X56600Y12250
X70100Y10250
X70600Y8750
X70100Y7250
X70600Y5750
X70100Y4250
X73600Y5750
X74100Y4250
X74100Y7250
X73600Y8750
X74100Y10250
X73600Y12250
X70600Y12250
T05
X79100Y41250
X80100Y41250
X81100Y41250
X67100Y89250
X67100Y91250
X64100Y91250
X64100Y89250
X72600Y91750
X74600Y91750
X74600Y94750
X72600Y94750
X29600Y35750
X29600Y33750
X26600Y33750
X26600Y35750
T06
X6100Y24250
X6100Y21250
X83600Y79250
X83600Y80250
X83600Y81250
X83600Y82250
X83600Y83250
X84600Y83250
X84600Y82250
X84600Y81250
X84600Y80250
X84600Y79250
X88600Y91750
X88600Y94750
T07
X88100Y88750
X88100Y87750
X88100Y86750
X93100Y84750
X93100Y83750
X93100Y82750
X93100Y81750
X93100Y80750
X94100Y80750
X94100Y81750
X94100Y82750
X94100Y83750
X94100Y84750
X94100Y79750
X94100Y78750
X94100Y77750
X94100Y76750
X94100Y75750
X94100Y74750
X94100Y73750
X94100Y72750
X94100Y71750
X94100Y70750
X94100Y69750
X93100Y69750
X93100Y70750
X93100Y71750
X93100Y72750
X93100Y73750
X93100Y74750
X93100Y75750
X93100Y76750
X93100Y77750
X93100Y78750
X93100Y79750
X83600Y73750
X83600Y72750
X83600Y71750
X83600Y70750
X83600Y69750
X83600Y61750
X82600Y61750
X81600Y61750
X80600Y61750
X76100Y61750
X75100Y61750
X74100Y61750
X73100Y61750
X73100Y56750
X74100Y56750
X75100Y56750
X76100Y56750
X78600Y53250
X79600Y53250
X80600Y53250
X81600Y53250
X81600Y56750
X80600Y56750
X82600Y56750
X83600Y56750
X85600Y53250
X85600Y52250
X85600Y51250
X85100Y46750
X85100Y45750
X85100Y44750
X81100Y45250
X80100Y45250
X79100Y45250
X78100Y45250
X74100Y44750
X74100Y45750
X74100Y46750
X74100Y47750
X74100Y48750
X74100Y49750
X74100Y50750
X74100Y51750
X79100Y49250
X80100Y49250
X81100Y49250
X74100Y42750
X74100Y41750
X74100Y40750
X74100Y39750
X74100Y38750
X74100Y37750
X74100Y36750
X74100Y35750
X74100Y34250
X74100Y33250
X74100Y32250
X74100Y31250
X74100Y30250
X74100Y29250
X74100Y28250
X74100Y27250
X78600Y29250
X79600Y29250
X80600Y29250
X81600Y29250
X85100Y29250
X85100Y28250
X85100Y30250
X80600Y32750
X79600Y32750
X78600Y32750
X78600Y36750
X79600Y36750
X80600Y36750
X85100Y36750
X85100Y35750
X85100Y34750
X85100Y37750
X85100Y38750
X85100Y39750
X85100Y24750
X84100Y24750
X83100Y24750
X82100Y24750
X82100Y19750
X83100Y19750
X84100Y19750
X85100Y19750
X85100Y15250
X84100Y15250
X83100Y15250
X82100Y15250
X83600Y10250
X84600Y10250
X85600Y10250
X85600Y5750
X84600Y5750
X83600Y5750
X79100Y5750
X78100Y5750
X77100Y5750
X77100Y10250
X78100Y10250
X79100Y10250
X77100Y17250
X76100Y17250
X75100Y17250
X74100Y17250
X74100Y22250
X75100Y22250
X76100Y22250
X77100Y22250
X50100Y13250
X49100Y13250
X49100Y8750
X50100Y8750
X50100Y4250
X49100Y4250
X44100Y17250
X43100Y17250
X42100Y17250
X37600Y17250
X36600Y17250
X35600Y17250
X35600Y21750
X36600Y21750
X37600Y21750
X37600Y26250
X36600Y26250
X35600Y26250
X42100Y26250
X43100Y26250
X44100Y26250
X44100Y21750
X43100Y21750
X42100Y21750
X43100Y30750
X43100Y31750
X43100Y32750
X43100Y33750
X43100Y34750
X43100Y35750
X43100Y37750
X43100Y38750
X43100Y39750
X43100Y40750
X43100Y41750
X43100Y42750
X43100Y43750
X43100Y44750
X43100Y46750
X43100Y47750
X43100Y48750
X43100Y49750
X43100Y50750
X43100Y51750
X43100Y52750
X43100Y53750
X43100Y58250
X43100Y59250
X43100Y60250
X43100Y61250
X43100Y62250
X43100Y63250
X35440Y69725
X35440Y70725
X32360Y70840
X32360Y69840
X28600Y75750
X28600Y76750
X25600Y76750
X25600Y75750
X22100Y75750
X22100Y74750
X23880Y87135
X23880Y88135
X19975Y88140
X19975Y87140
X15355Y87225
X15355Y88225
X38640Y88255
X38640Y87255
X38640Y86255
X38640Y85255
X38640Y89255
X49510Y88180
X49510Y87180
X51840Y87150
X51840Y88150
X52840Y88150
X52840Y87150
X53840Y87150
X53840Y88150
X54840Y88150
X54840Y87150
X55840Y87150
X55840Y88150
X57670Y87540
X58670Y87540
X59670Y87540
X60670Y87540
X61670Y87540
X60100Y74750
X59100Y74750
X58100Y74750
X57100Y74750
X56100Y74750
X55100Y74750
X54100Y74750
X53100Y74750
X43890Y74940
X42890Y74940
X41890Y74940
X40890Y74940
X31600Y61750
X31600Y60750
X31600Y59750
X31600Y55750
X31600Y54750
X31600Y53750
X31600Y49750
X31600Y48750
X31600Y47750
X27600Y47750
X27600Y48750
X27600Y49750
X27600Y53750
X27600Y54750
X27600Y55750
X27600Y59750
X27600Y60750
X27600Y61750
X16600Y48750
X16600Y47750
X11600Y47750
X11600Y48750
X6600Y48750
X6600Y47750
X15100Y39250
X15100Y38250
X15100Y37250
X19600Y38750
X20600Y38750
X21600Y38750
X22600Y38750
X22600Y43250
X21600Y43250
X20600Y43250
X19600Y43250
X28100Y42750
X28100Y41750
X28100Y43750
X33100Y43750
X34100Y43750
X35100Y43750
X34100Y39750
X34100Y38750
X34100Y37750
X38600Y37750
X38600Y38750
X38600Y39750
X51100Y61750
X52100Y61750
X53100Y61750
X54100Y61750
X55100Y61750
X56100Y61750
X57100Y61750
X58100Y61750
X59100Y61750
X60100Y61750
X61100Y61750
X62100Y61750
X63100Y61750
X64100Y61750
X65100Y61750
X66100Y61750
X67100Y61750
X68100Y61750
X87600Y61250
X87600Y60250
X87600Y59250
X87600Y58250
X15100Y27250
X15100Y26250
X15100Y25250
X7100Y28250
X5100Y28250
X6100Y32250
X5100Y34250
X7100Y34250
X6100Y38250
X15100Y15750
X15100Y14750
X15100Y13750
T08
X26600Y32750
X29600Y38750
X64100Y86250
X67100Y92250
X71600Y94750
X77600Y91750
T09
X15900Y82400
X15900Y78100
X39300Y10900
X39300Y6600
X14084Y5250
X12116Y5250
T10
X83600Y86250
X82600Y92250
X82600Y94250
X86600Y93250
T11
X6100Y16750
X6100Y10750
X4915Y75695
X4915Y81695
T12
X5820Y6250
X7380Y6250
X18820Y6250
X20380Y6250
X72320Y69750
X73880Y69750
X73880Y74250
X72320Y74250
X72320Y78750
X73880Y78750
X73880Y83250
X72320Y83250
X72320Y87750
X73880Y87750
X17380Y70750
X15820Y70750
X12700Y70720
X11140Y70720
X7145Y70715
X5585Y70715
T13
X89700Y87750
T14
X77100Y94750
X65100Y93250
X77600Y73750
X78100Y68750
X87600Y64750
X67600Y68750
X57600Y64750
X46100Y75250
X38600Y73750
X11100Y94750
X4100Y94750
X4100Y68750
X4600Y64250
X11100Y40750
X17100Y31750
X18600Y23750
X11600Y17250
X7600Y13250
X9100Y26750
X31600Y3750
X47100Y5750
X46600Y19750
X39100Y19750
X88100Y4250
T15
X44550Y8750
X32650Y8750
X22550Y80250
X10650Y80250
M30
