G75*
%MOIN*%
%OFA0B0*%
%FSLAX24Y24*%
%IPPOS*%
%LPD*%
%AMOC8*
5,1,8,0,0,1.08239X$1,22.5*
%
%ADD10C,0.0060*%
%ADD11C,0.0080*%
%ADD12C,0.0050*%
%ADD13C,0.0120*%
%ADD14C,0.0160*%
D10*
X004844Y002780D02*
X004630Y002994D01*
X004630Y003207D01*
X004844Y003421D01*
X005060Y003207D02*
X005273Y003421D01*
X005273Y002780D01*
X005060Y002780D02*
X005487Y002780D01*
X005704Y002780D02*
X006131Y003207D01*
X006131Y003314D01*
X006025Y003421D01*
X005811Y003421D01*
X005704Y003314D01*
X005704Y002780D02*
X006131Y002780D01*
X006349Y002994D02*
X006562Y002780D01*
X006776Y002994D01*
X006776Y003421D01*
X006349Y003421D02*
X006349Y002994D01*
X007100Y002887D02*
X007100Y002780D01*
X007207Y002780D01*
X007207Y002887D01*
X007100Y002887D01*
X007207Y002780D02*
X006993Y002566D01*
X007423Y002887D02*
X007530Y002780D01*
X007743Y002780D01*
X007850Y002887D01*
X007850Y003100D01*
X007637Y003100D01*
X007850Y003314D02*
X007743Y003421D01*
X007530Y003421D01*
X007423Y003314D01*
X007423Y002887D01*
X008068Y002780D02*
X008068Y003421D01*
X008495Y002780D01*
X008495Y003421D01*
X008712Y003421D02*
X009032Y003421D01*
X009139Y003314D01*
X009139Y002887D01*
X009032Y002780D01*
X008712Y002780D01*
X008712Y003421D01*
X009357Y003421D02*
X009570Y003207D01*
X009570Y002994D01*
X009357Y002780D01*
X011130Y002994D02*
X011344Y002780D01*
X011560Y002780D02*
X011987Y002780D01*
X011773Y002780D02*
X011773Y003421D01*
X011560Y003207D01*
X011344Y003421D02*
X011130Y003207D01*
X011130Y002994D01*
X012204Y002780D02*
X012631Y003207D01*
X012631Y003314D01*
X012525Y003421D01*
X012311Y003421D01*
X012204Y003314D01*
X012204Y002780D02*
X012631Y002780D01*
X012849Y002994D02*
X013062Y002780D01*
X013276Y002994D01*
X013276Y003421D01*
X012849Y003421D02*
X012849Y002994D01*
X013600Y002887D02*
X013600Y002780D01*
X013707Y002780D01*
X013707Y002887D01*
X013600Y002887D01*
X013707Y002780D02*
X013493Y002566D01*
X013923Y002887D02*
X013923Y003314D01*
X014030Y003421D01*
X014243Y003421D01*
X014350Y003314D01*
X014350Y003100D02*
X014137Y003100D01*
X014350Y003100D02*
X014350Y002887D01*
X014243Y002780D01*
X014030Y002780D01*
X013923Y002887D01*
X014568Y002780D02*
X014568Y003421D01*
X014995Y002780D01*
X014995Y003421D01*
X015212Y003421D02*
X015532Y003421D01*
X015639Y003314D01*
X015639Y002887D01*
X015532Y002780D01*
X015212Y002780D01*
X015212Y003421D01*
X015857Y003421D02*
X016070Y003207D01*
X016070Y002994D01*
X015857Y002780D01*
X017630Y002994D02*
X017630Y003207D01*
X017844Y003421D01*
X018060Y003207D02*
X018273Y003421D01*
X018273Y002780D01*
X018060Y002780D02*
X018487Y002780D01*
X018704Y002780D02*
X019131Y003207D01*
X019131Y003314D01*
X019025Y003421D01*
X018811Y003421D01*
X018704Y003314D01*
X018704Y002780D02*
X019131Y002780D01*
X019349Y002994D02*
X019562Y002780D01*
X019776Y002994D01*
X019776Y003421D01*
X019349Y003421D02*
X019349Y002994D01*
X020100Y002887D02*
X020100Y002780D01*
X020207Y002780D01*
X020207Y002887D01*
X020100Y002887D01*
X020207Y002780D02*
X019993Y002566D01*
X020423Y002887D02*
X020530Y002780D01*
X020743Y002780D01*
X020850Y002887D01*
X020850Y003100D01*
X020637Y003100D01*
X020850Y003314D02*
X020743Y003421D01*
X020530Y003421D01*
X020423Y003314D01*
X020423Y002887D01*
X021068Y002780D02*
X021068Y003421D01*
X021495Y002780D01*
X021495Y003421D01*
X021712Y003421D02*
X021712Y002780D01*
X022032Y002780D01*
X022139Y002887D01*
X022139Y003314D01*
X022032Y003421D01*
X021712Y003421D01*
X022357Y003421D02*
X022570Y003207D01*
X022570Y002994D01*
X022357Y002780D01*
X017844Y002780D02*
X017630Y002994D01*
X017070Y013280D02*
X016429Y013280D01*
X017070Y013280D02*
X017070Y013707D01*
X017070Y013925D02*
X016429Y013925D01*
X016643Y014138D01*
X016429Y014352D01*
X017070Y014352D01*
X017070Y014569D02*
X016963Y014569D01*
X016536Y014996D01*
X016429Y014996D01*
X016429Y014569D01*
X016536Y015214D02*
X016643Y015214D01*
X016750Y015320D01*
X016750Y015534D01*
X016856Y015641D01*
X016963Y015641D01*
X017070Y015534D01*
X017070Y015320D01*
X016963Y015214D01*
X016856Y015214D01*
X016750Y015320D01*
X016750Y015534D02*
X016643Y015641D01*
X016536Y015641D01*
X016429Y015534D01*
X016429Y015320D01*
X016536Y015214D01*
X016536Y015858D02*
X016429Y015965D01*
X016429Y016178D01*
X016536Y016285D01*
X016963Y015858D01*
X017070Y015965D01*
X017070Y016178D01*
X016963Y016285D01*
X016536Y016285D01*
X016536Y016503D02*
X016643Y016503D01*
X016750Y016610D01*
X016750Y016930D01*
X016963Y016930D02*
X016536Y016930D01*
X016429Y016823D01*
X016429Y016610D01*
X016536Y016503D01*
X016963Y016503D02*
X017070Y016610D01*
X017070Y016823D01*
X016963Y016930D01*
X016963Y015858D02*
X016536Y015858D01*
X016429Y024280D02*
X017070Y024280D01*
X017070Y024707D01*
X017070Y024925D02*
X016429Y024925D01*
X016643Y025138D01*
X016429Y025352D01*
X017070Y025352D01*
X017070Y025569D02*
X016963Y025569D01*
X016536Y025996D01*
X016429Y025996D01*
X016429Y025569D01*
X016536Y026214D02*
X016643Y026214D01*
X016750Y026320D01*
X016750Y026534D01*
X016856Y026641D01*
X016963Y026641D01*
X017070Y026534D01*
X017070Y026320D01*
X016963Y026214D01*
X016856Y026214D01*
X016750Y026320D01*
X016750Y026534D02*
X016643Y026641D01*
X016536Y026641D01*
X016429Y026534D01*
X016429Y026320D01*
X016536Y026214D01*
X016536Y026858D02*
X016429Y026965D01*
X016429Y027178D01*
X016536Y027285D01*
X016963Y026858D01*
X017070Y026965D01*
X017070Y027178D01*
X016963Y027285D01*
X016536Y027285D01*
X016750Y027503D02*
X016536Y027716D01*
X016429Y027930D01*
X016750Y027823D02*
X016750Y027503D01*
X016963Y027503D01*
X017070Y027610D01*
X017070Y027823D01*
X016963Y027930D01*
X016856Y027930D01*
X016750Y027823D01*
X016963Y026858D02*
X016536Y026858D01*
X024429Y033780D02*
X024429Y034100D01*
X024536Y034207D01*
X024750Y034207D01*
X024856Y034100D01*
X024856Y033780D01*
X024856Y033994D02*
X025070Y034207D01*
X025070Y034425D02*
X025070Y034852D01*
X024963Y035069D02*
X025070Y035176D01*
X025070Y035389D01*
X024963Y035496D01*
X024856Y035496D01*
X024750Y035389D01*
X024750Y035176D01*
X024643Y035069D01*
X024536Y035069D01*
X024429Y035176D01*
X024429Y035389D01*
X024536Y035496D01*
X024429Y035714D02*
X025070Y035714D01*
X025070Y036141D01*
X024750Y035927D02*
X024750Y035714D01*
X024429Y035714D02*
X024429Y036141D01*
X024429Y036358D02*
X024429Y036785D01*
X024429Y036572D02*
X025070Y036572D01*
X024716Y037280D02*
X024930Y037494D01*
X024930Y037707D01*
X024716Y037921D01*
X024499Y037600D02*
X024072Y037600D01*
X024285Y037814D02*
X024285Y037387D01*
X023855Y037387D02*
X023749Y037387D01*
X023749Y037280D01*
X023855Y037280D01*
X023855Y037387D01*
X023855Y037280D02*
X023642Y037066D01*
X023424Y037387D02*
X023424Y037494D01*
X023318Y037600D01*
X022997Y037600D01*
X022997Y037387D01*
X023104Y037280D01*
X023318Y037280D01*
X023424Y037387D01*
X023211Y037814D02*
X022997Y037600D01*
X022780Y037600D02*
X022353Y037600D01*
X022353Y037707D02*
X022566Y037921D01*
X022780Y037707D01*
X022780Y037280D01*
X022353Y037280D02*
X022353Y037707D01*
X022137Y037387D02*
X022030Y037387D01*
X022030Y037280D01*
X022137Y037280D01*
X022137Y037387D01*
X022137Y037280D02*
X021923Y037066D01*
X021278Y037280D02*
X021278Y037387D01*
X021706Y037814D01*
X021706Y037921D01*
X021278Y037921D01*
X021061Y037707D02*
X021061Y037280D01*
X021061Y037600D02*
X020634Y037600D01*
X020634Y037707D02*
X020847Y037921D01*
X021061Y037707D01*
X020634Y037707D02*
X020634Y037280D01*
X020418Y037280D02*
X020311Y037280D01*
X020311Y037387D01*
X020418Y037387D01*
X020418Y037280D01*
X020204Y037066D01*
X019987Y037600D02*
X019560Y037600D01*
X019344Y037280D02*
X019130Y037494D01*
X019130Y037707D01*
X019344Y037921D01*
X019545Y039580D02*
X019118Y039580D01*
X019118Y040221D01*
X018901Y040221D02*
X018901Y039687D01*
X018794Y039580D01*
X018580Y039580D01*
X018474Y039687D01*
X018474Y040221D01*
X017070Y039358D02*
X016963Y039358D01*
X016536Y039785D01*
X016429Y039785D01*
X016429Y039358D01*
X016429Y038927D02*
X017070Y038927D01*
X017070Y038714D02*
X017070Y039141D01*
X016643Y038714D02*
X016429Y038927D01*
X016536Y038496D02*
X016643Y038496D01*
X016750Y038389D01*
X016856Y038496D01*
X016963Y038496D01*
X017070Y038389D01*
X017070Y038176D01*
X016963Y038069D01*
X017070Y037852D02*
X016429Y037852D01*
X016643Y037638D01*
X016429Y037425D01*
X017070Y037425D01*
X017070Y037207D02*
X017070Y036780D01*
X016429Y036780D01*
X016536Y038069D02*
X016429Y038176D01*
X016429Y038389D01*
X016536Y038496D01*
X016750Y038389D02*
X016750Y038283D01*
X019976Y039580D02*
X019976Y040221D01*
X019763Y040221D02*
X020190Y040221D01*
X020407Y039473D02*
X020834Y039473D01*
X021052Y039687D02*
X021159Y039580D01*
X021372Y039580D01*
X021479Y039687D01*
X021479Y039794D01*
X021372Y039900D01*
X021159Y039900D01*
X021052Y040007D01*
X021052Y040114D01*
X021159Y040221D01*
X021372Y040221D01*
X021479Y040114D01*
X021696Y040114D02*
X021696Y039687D01*
X021803Y039580D01*
X022017Y039580D01*
X022123Y039687D01*
X022123Y040114D01*
X022017Y040221D01*
X021803Y040221D01*
X021696Y040114D01*
X022341Y040221D02*
X022768Y039580D01*
X022768Y040221D01*
X022985Y040007D02*
X023199Y040221D01*
X023199Y039580D01*
X023412Y039580D02*
X022985Y039580D01*
X022341Y039580D02*
X022341Y040221D01*
X021923Y041566D02*
X022137Y041780D01*
X022030Y041780D01*
X022030Y041887D01*
X022137Y041887D01*
X022137Y041780D01*
X022353Y041780D02*
X022353Y042207D01*
X022566Y042421D01*
X022780Y042207D01*
X022780Y041780D01*
X022997Y041887D02*
X022997Y041994D01*
X023104Y042100D01*
X023318Y042100D01*
X023424Y041994D01*
X023424Y041887D01*
X023318Y041780D01*
X023104Y041780D01*
X022997Y041887D01*
X023104Y042100D02*
X022997Y042207D01*
X022997Y042314D01*
X023104Y042421D01*
X023318Y042421D01*
X023424Y042314D01*
X023424Y042207D01*
X023318Y042100D01*
X023749Y041887D02*
X023749Y041780D01*
X023855Y041780D01*
X023855Y041887D01*
X023749Y041887D01*
X023855Y041780D02*
X023642Y041566D01*
X024072Y042100D02*
X024499Y042100D01*
X024285Y041887D02*
X024285Y042314D01*
X024716Y042421D02*
X024930Y042207D01*
X024930Y041994D01*
X024716Y041780D01*
X026429Y041925D02*
X027070Y041925D01*
X026963Y041707D02*
X027070Y041600D01*
X027070Y041387D01*
X026963Y041280D01*
X026750Y041387D02*
X026643Y041280D01*
X026536Y041280D01*
X026429Y041387D01*
X026429Y041600D01*
X026536Y041707D01*
X026750Y041600D02*
X026856Y041707D01*
X026963Y041707D01*
X026750Y041600D02*
X026750Y041387D01*
X026750Y041925D02*
X026750Y042352D01*
X026750Y042569D02*
X026750Y042996D01*
X026643Y042996D02*
X027070Y042996D01*
X027070Y043214D02*
X026429Y043214D01*
X026429Y043534D01*
X026536Y043641D01*
X026750Y043641D01*
X026856Y043534D01*
X026856Y043214D01*
X026856Y043427D02*
X027070Y043641D01*
X027070Y043858D02*
X026429Y043858D01*
X026429Y044178D01*
X026536Y044285D01*
X026750Y044285D01*
X026856Y044178D01*
X026856Y043858D01*
X026963Y044503D02*
X027070Y044610D01*
X027070Y044823D01*
X026963Y044930D01*
X026856Y044930D01*
X026750Y044823D01*
X026750Y044716D01*
X026750Y044823D02*
X026643Y044930D01*
X026536Y044930D01*
X026429Y044823D01*
X026429Y044610D01*
X026536Y044503D01*
X026643Y042996D02*
X026429Y042783D01*
X026643Y042569D01*
X027070Y042569D01*
X027070Y042352D02*
X026429Y042352D01*
X028929Y042675D02*
X029250Y042354D01*
X029250Y042781D01*
X029570Y042675D02*
X028929Y042675D01*
X029143Y042137D02*
X029570Y042137D01*
X029250Y042137D02*
X029250Y041710D01*
X029143Y041710D02*
X028929Y041923D01*
X029143Y042137D01*
X029143Y041710D02*
X029570Y041710D01*
X029570Y041494D02*
X029356Y041280D01*
X029143Y041280D01*
X028929Y041494D01*
X029463Y043106D02*
X029570Y043106D01*
X029570Y043212D01*
X029463Y043212D01*
X029463Y043106D01*
X029570Y043212D02*
X029784Y042999D01*
X029250Y043428D02*
X029250Y043856D01*
X029250Y044073D02*
X029250Y044500D01*
X029036Y044287D02*
X029463Y044287D01*
X029570Y044718D02*
X029356Y044931D01*
X029143Y044931D01*
X028929Y044718D01*
X031333Y042507D02*
X031547Y042721D01*
X031333Y042507D02*
X031333Y042294D01*
X031547Y042080D01*
X031763Y042400D02*
X032190Y042400D01*
X031976Y042187D02*
X031976Y042614D01*
X032514Y042187D02*
X032514Y042080D01*
X032621Y042080D01*
X032621Y042187D01*
X032514Y042187D01*
X032621Y042080D02*
X032407Y041866D01*
X032837Y042400D02*
X033264Y042400D01*
X033588Y042187D02*
X033588Y042080D01*
X033695Y042080D01*
X033695Y042187D01*
X033588Y042187D01*
X033695Y042080D02*
X033481Y041866D01*
X033911Y042080D02*
X033911Y042507D01*
X034125Y042721D01*
X034338Y042507D01*
X034338Y042080D01*
X034556Y042187D02*
X034663Y042080D01*
X034876Y042080D01*
X034983Y042187D01*
X034983Y042400D01*
X034876Y042507D01*
X034769Y042507D01*
X034556Y042400D01*
X034556Y042721D01*
X034983Y042721D01*
X035200Y042721D02*
X035414Y042507D01*
X035414Y042294D01*
X035200Y042080D01*
X035143Y041361D02*
X034929Y041147D01*
X035036Y040930D02*
X035143Y040930D01*
X035250Y040823D01*
X035356Y040930D01*
X035463Y040930D01*
X035570Y040823D01*
X035570Y040610D01*
X035463Y040503D01*
X035570Y040285D02*
X035143Y040285D01*
X034929Y040072D01*
X035143Y039858D01*
X035570Y039858D01*
X035570Y039642D02*
X035570Y039535D01*
X035463Y039535D01*
X035463Y039642D01*
X035570Y039642D01*
X035784Y039428D01*
X035250Y039211D02*
X035250Y038784D01*
X035463Y038568D02*
X035463Y038461D01*
X035570Y038461D01*
X035570Y038568D01*
X035463Y038568D01*
X035570Y038568D02*
X035784Y038354D01*
X035463Y037923D02*
X035036Y037923D01*
X035250Y037710D02*
X035250Y038137D01*
X035570Y037494D02*
X035356Y037280D01*
X035143Y037280D01*
X034929Y037494D01*
X033270Y037557D02*
X032629Y037557D01*
X032736Y037340D02*
X032629Y037233D01*
X032629Y037019D01*
X032736Y036913D01*
X032843Y036913D01*
X032950Y037019D01*
X032950Y037233D01*
X033056Y037340D01*
X033163Y037340D01*
X033270Y037233D01*
X033270Y037019D01*
X033163Y036913D01*
X032950Y037557D02*
X032950Y037984D01*
X032950Y038202D02*
X032950Y038629D01*
X032843Y038629D02*
X033270Y038629D01*
X033270Y038846D02*
X032629Y038846D01*
X032629Y039167D01*
X032736Y039273D01*
X032950Y039273D01*
X033056Y039167D01*
X033056Y038846D01*
X033056Y039060D02*
X033270Y039273D01*
X033270Y039491D02*
X032629Y039491D01*
X032629Y039811D01*
X032736Y039918D01*
X032950Y039918D01*
X033056Y039811D01*
X033056Y039491D01*
X033270Y040135D02*
X032843Y040562D01*
X032736Y040562D01*
X032629Y040456D01*
X032629Y040242D01*
X032736Y040135D01*
X033270Y040135D02*
X033270Y040562D01*
X034929Y040610D02*
X034929Y040823D01*
X035036Y040930D01*
X035250Y040823D02*
X035250Y040716D01*
X035036Y040503D02*
X034929Y040610D01*
X035250Y040285D02*
X035250Y039858D01*
X035570Y041147D02*
X035356Y041361D01*
X035143Y041361D01*
X034338Y042400D02*
X033911Y042400D01*
X033846Y044780D02*
X033846Y045207D01*
X033633Y045421D01*
X033419Y045207D01*
X033419Y044780D01*
X033202Y044780D02*
X033202Y045421D01*
X033202Y045100D02*
X032775Y045100D01*
X032557Y044994D02*
X032557Y044887D01*
X032450Y044780D01*
X032237Y044780D01*
X032130Y044887D01*
X032237Y045100D02*
X032450Y045100D01*
X032557Y044994D01*
X032775Y044780D02*
X032775Y045421D01*
X032557Y045314D02*
X032450Y045421D01*
X032237Y045421D01*
X032130Y045314D01*
X032130Y045207D01*
X032237Y045100D01*
X033419Y045100D02*
X033846Y045100D01*
X034064Y044994D02*
X034384Y044994D01*
X034491Y045100D01*
X034491Y045314D01*
X034384Y045421D01*
X034064Y045421D01*
X034064Y044780D01*
X034277Y044994D02*
X034491Y044780D01*
X034708Y044780D02*
X034708Y045421D01*
X035028Y045421D01*
X035135Y045314D01*
X035135Y045100D01*
X035028Y044994D01*
X034708Y044994D01*
X035353Y045100D02*
X035673Y045421D01*
X035673Y044780D01*
X035780Y045100D02*
X035353Y045100D01*
X033070Y047780D02*
X033070Y047994D01*
X033070Y047887D02*
X032429Y047887D01*
X032429Y047780D02*
X032429Y047994D01*
X032429Y048210D02*
X032429Y048637D01*
X032429Y048854D02*
X032643Y049068D01*
X032429Y049281D01*
X033070Y049281D01*
X033070Y049499D02*
X032643Y049926D01*
X032536Y049926D01*
X032429Y049819D01*
X032429Y049606D01*
X032536Y049499D01*
X033070Y049499D02*
X033070Y049926D01*
X033070Y048854D02*
X032429Y048854D01*
X032750Y048423D02*
X032750Y048210D01*
X033070Y048210D02*
X032429Y048210D01*
X029070Y048210D02*
X028429Y048210D01*
X028429Y048637D01*
X028429Y048854D02*
X028643Y049068D01*
X028429Y049281D01*
X029070Y049281D01*
X029070Y049499D02*
X029070Y049926D01*
X029070Y049712D02*
X028429Y049712D01*
X028643Y049499D01*
X028429Y048854D02*
X029070Y048854D01*
X028750Y048423D02*
X028750Y048210D01*
X029070Y047994D02*
X029070Y047780D01*
X029070Y047887D02*
X028429Y047887D01*
X028429Y047780D02*
X028429Y047994D01*
X023412Y044614D02*
X023306Y044721D01*
X023092Y044721D01*
X022985Y044614D01*
X022768Y044721D02*
X022768Y044080D01*
X022341Y044721D01*
X022341Y044080D01*
X022123Y044187D02*
X022123Y044614D01*
X022017Y044721D01*
X021803Y044721D01*
X021696Y044614D01*
X021696Y044187D01*
X021803Y044080D01*
X022017Y044080D01*
X022123Y044187D01*
X021479Y044187D02*
X021372Y044080D01*
X021159Y044080D01*
X021052Y044187D01*
X021159Y044400D02*
X021372Y044400D01*
X021479Y044294D01*
X021479Y044187D01*
X021159Y044400D02*
X021052Y044507D01*
X021052Y044614D01*
X021159Y044721D01*
X021372Y044721D01*
X021479Y044614D01*
X020834Y043973D02*
X020407Y043973D01*
X019976Y044080D02*
X019976Y044721D01*
X019763Y044721D02*
X020190Y044721D01*
X019545Y044080D02*
X019118Y044080D01*
X019118Y044721D01*
X018901Y044721D02*
X018901Y044187D01*
X018794Y044080D01*
X018580Y044080D01*
X018474Y044187D01*
X018474Y044721D01*
X017739Y045780D02*
X017526Y045780D01*
X017419Y045887D01*
X017202Y045780D02*
X017202Y046421D01*
X017419Y046314D02*
X017526Y046421D01*
X017739Y046421D01*
X017846Y046314D01*
X017846Y046207D01*
X017739Y046100D01*
X017846Y045994D01*
X017846Y045887D01*
X017739Y045780D01*
X017739Y046100D02*
X017633Y046100D01*
X017202Y045780D02*
X016775Y046421D01*
X016775Y045780D01*
X016557Y046100D02*
X016557Y046314D01*
X016450Y046421D01*
X016130Y046421D01*
X016130Y045780D01*
X016130Y045994D02*
X016450Y045994D01*
X016557Y046100D01*
X012846Y046207D02*
X012846Y046314D01*
X012739Y046421D01*
X012526Y046421D01*
X012419Y046314D01*
X012202Y046421D02*
X012202Y045780D01*
X011775Y046421D01*
X011775Y045780D01*
X011557Y046100D02*
X011450Y045994D01*
X011130Y045994D01*
X011130Y045780D02*
X011130Y046421D01*
X011450Y046421D01*
X011557Y046314D01*
X011557Y046100D01*
X012419Y045780D02*
X012846Y046207D01*
X012846Y045780D02*
X012419Y045780D01*
X007846Y045780D02*
X007419Y045780D01*
X007633Y045780D02*
X007633Y046421D01*
X007419Y046207D01*
X007202Y046421D02*
X007202Y045780D01*
X006775Y046421D01*
X006775Y045780D01*
X006557Y046100D02*
X006450Y045994D01*
X006130Y045994D01*
X006130Y045780D02*
X006130Y046421D01*
X006450Y046421D01*
X006557Y046314D01*
X006557Y046100D01*
X003463Y052780D02*
X002929Y052780D01*
X002929Y053207D02*
X003463Y053207D01*
X003570Y053100D01*
X003570Y052887D01*
X003463Y052780D01*
X003570Y053425D02*
X002929Y053425D01*
X003570Y053425D02*
X003570Y053852D01*
X003570Y054069D02*
X002929Y054069D01*
X003570Y054496D01*
X002929Y054496D01*
X003036Y054714D02*
X002929Y054820D01*
X002929Y055034D01*
X003036Y055141D01*
X003143Y055141D01*
X003570Y054714D01*
X003570Y055141D01*
X003463Y055358D02*
X003036Y055785D01*
X003463Y055785D01*
X003570Y055678D01*
X003570Y055465D01*
X003463Y055358D01*
X003036Y055358D01*
X002929Y055465D01*
X002929Y055678D01*
X003036Y055785D01*
X003036Y056003D02*
X002929Y056110D01*
X002929Y056323D01*
X003036Y056430D01*
X003463Y056003D01*
X003570Y056110D01*
X003570Y056323D01*
X003463Y056430D01*
X003036Y056430D01*
X003036Y056647D02*
X002929Y056754D01*
X002929Y056968D01*
X003036Y057074D01*
X003143Y057074D01*
X003250Y056968D01*
X003356Y057074D01*
X003463Y057074D01*
X003570Y056968D01*
X003570Y056754D01*
X003463Y056647D01*
X003250Y056861D02*
X003250Y056968D01*
X003677Y057292D02*
X003677Y057719D01*
X003570Y057936D02*
X003570Y058363D01*
X003570Y058150D02*
X002929Y058150D01*
X003143Y057936D01*
X003036Y056003D02*
X003463Y056003D01*
X007844Y062780D02*
X007630Y062994D01*
X007630Y063207D01*
X007844Y063421D01*
X008060Y063100D02*
X008487Y063100D01*
X008704Y063207D02*
X008918Y063421D01*
X008918Y062780D01*
X009131Y062780D02*
X008704Y062780D01*
X008380Y062780D02*
X008380Y063421D01*
X008060Y063100D01*
X009349Y062566D02*
X009562Y062780D01*
X009456Y062780D01*
X009456Y062887D01*
X009562Y062887D01*
X009562Y062780D01*
X009778Y063100D02*
X010206Y063100D01*
X010423Y062887D02*
X010530Y062780D01*
X010743Y062780D01*
X010850Y062887D01*
X010850Y062994D01*
X010743Y063100D01*
X010637Y063100D01*
X010743Y063100D02*
X010850Y063207D01*
X010850Y063314D01*
X010743Y063421D01*
X010530Y063421D01*
X010423Y063314D01*
X010099Y063421D02*
X009778Y063100D01*
X010099Y062780D02*
X010099Y063421D01*
X011174Y062887D02*
X011174Y062780D01*
X011281Y062780D01*
X011281Y062887D01*
X011174Y062887D01*
X011281Y062780D02*
X011068Y062566D01*
X011497Y063100D02*
X011924Y063100D01*
X012142Y063100D02*
X012355Y063207D01*
X012462Y063207D01*
X012569Y063100D01*
X012569Y062887D01*
X012462Y062780D01*
X012249Y062780D01*
X012142Y062887D01*
X012142Y063100D02*
X012142Y063421D01*
X012569Y063421D01*
X012786Y063421D02*
X013000Y063207D01*
X013000Y062994D01*
X012786Y062780D01*
X011818Y062780D02*
X011818Y063421D01*
X011497Y063100D01*
X017929Y056496D02*
X018356Y056069D01*
X018250Y056176D02*
X018570Y056496D01*
X018570Y056069D02*
X017929Y056069D01*
X018036Y055852D02*
X018463Y055425D01*
X018570Y055531D01*
X018570Y055745D01*
X018463Y055852D01*
X018036Y055852D01*
X017929Y055745D01*
X017929Y055531D01*
X018036Y055425D01*
X018463Y055425D01*
X018570Y055207D02*
X018570Y054780D01*
X018570Y054994D02*
X017929Y054994D01*
X018143Y054780D01*
X028429Y054854D02*
X028643Y055068D01*
X028429Y055281D01*
X029070Y055281D01*
X028963Y055499D02*
X029070Y055606D01*
X029070Y055819D01*
X028963Y055926D01*
X028856Y055926D01*
X028750Y055819D01*
X028750Y055712D01*
X028750Y055819D02*
X028643Y055926D01*
X028536Y055926D01*
X028429Y055819D01*
X028429Y055606D01*
X028536Y055499D01*
X028429Y054854D02*
X029070Y054854D01*
X028750Y054423D02*
X028750Y054210D01*
X029070Y054210D02*
X028429Y054210D01*
X028429Y054637D01*
X028429Y053994D02*
X028429Y053780D01*
X028429Y053887D02*
X029070Y053887D01*
X029070Y053780D02*
X029070Y053994D01*
X032429Y053994D02*
X032429Y053780D01*
X032429Y053887D02*
X033070Y053887D01*
X033070Y053780D02*
X033070Y053994D01*
X033070Y054210D02*
X032429Y054210D01*
X032429Y054637D01*
X032429Y054854D02*
X032643Y055068D01*
X032429Y055281D01*
X033070Y055281D01*
X032750Y055499D02*
X032750Y055926D01*
X033070Y055819D02*
X032429Y055819D01*
X032750Y055499D01*
X033070Y054854D02*
X032429Y054854D01*
X032750Y054423D02*
X032750Y054210D01*
X033070Y059780D02*
X033070Y059994D01*
X033070Y059887D02*
X032429Y059887D01*
X032429Y059780D02*
X032429Y059994D01*
X032429Y060210D02*
X032429Y060637D01*
X032429Y060854D02*
X032643Y061068D01*
X032429Y061281D01*
X033070Y061281D01*
X032963Y061499D02*
X033070Y061606D01*
X033070Y061819D01*
X032963Y061926D01*
X032856Y061926D01*
X032750Y061819D01*
X032750Y061499D01*
X032963Y061499D01*
X032750Y061499D02*
X032536Y061712D01*
X032429Y061926D01*
X032429Y060854D02*
X033070Y060854D01*
X032750Y060423D02*
X032750Y060210D01*
X033070Y060210D02*
X032429Y060210D01*
X031126Y063866D02*
X031340Y064080D01*
X031233Y064080D01*
X031233Y064187D01*
X031340Y064187D01*
X031340Y064080D01*
X031556Y064400D02*
X031983Y064400D01*
X032200Y064080D02*
X032414Y064294D01*
X032414Y064507D01*
X032200Y064721D01*
X030909Y064400D02*
X030481Y064400D01*
X030695Y064187D02*
X030695Y064614D01*
X030265Y064187D02*
X030159Y064187D01*
X030159Y064080D01*
X030265Y064080D01*
X030265Y064187D01*
X030265Y064080D02*
X030052Y063866D01*
X029834Y064187D02*
X029728Y064080D01*
X029514Y064080D01*
X029407Y064187D01*
X029407Y064400D02*
X029621Y064507D01*
X029728Y064507D01*
X029834Y064400D01*
X029834Y064187D01*
X029407Y064400D02*
X029407Y064721D01*
X029834Y064721D01*
X028976Y064721D02*
X028976Y064080D01*
X028763Y064080D02*
X029190Y064080D01*
X028763Y064507D02*
X028976Y064721D01*
X028545Y064507D02*
X028545Y064080D01*
X028545Y064400D02*
X028118Y064400D01*
X028118Y064507D02*
X028332Y064721D01*
X028545Y064507D01*
X028118Y064507D02*
X028118Y064080D01*
X027901Y064400D02*
X027474Y064080D01*
X027256Y064400D02*
X026829Y064400D01*
X027474Y064721D02*
X027901Y064400D01*
X025967Y064187D02*
X025860Y064080D01*
X025647Y064080D01*
X025540Y064187D01*
X025967Y064614D01*
X025967Y064187D01*
X025967Y064614D02*
X025860Y064721D01*
X025647Y064721D01*
X025540Y064614D01*
X025540Y064187D01*
X025322Y064080D02*
X024895Y064080D01*
X025109Y064080D02*
X025109Y064721D01*
X024895Y064507D01*
X024678Y064507D02*
X024678Y064080D01*
X024678Y064400D02*
X024251Y064400D01*
X024251Y064507D02*
X024464Y064721D01*
X024678Y064507D01*
X024251Y064507D02*
X024251Y064080D01*
X024035Y064080D02*
X023821Y064294D01*
X023821Y064507D01*
X024035Y064721D01*
X028429Y061926D02*
X028429Y061499D01*
X028750Y061499D01*
X028643Y061712D01*
X028643Y061819D01*
X028750Y061926D01*
X028963Y061926D01*
X029070Y061819D01*
X029070Y061606D01*
X028963Y061499D01*
X029070Y061281D02*
X028429Y061281D01*
X028643Y061068D01*
X028429Y060854D01*
X029070Y060854D01*
X028750Y060423D02*
X028750Y060210D01*
X029070Y060210D02*
X028429Y060210D01*
X028429Y060637D01*
X028429Y059994D02*
X028429Y059780D01*
X028429Y059887D02*
X029070Y059887D01*
X029070Y059780D02*
X029070Y059994D01*
X041629Y061346D02*
X041629Y061667D01*
X041736Y061773D01*
X041950Y061773D01*
X042056Y061667D01*
X042056Y061346D01*
X042270Y061346D02*
X041629Y061346D01*
X041736Y061991D02*
X041843Y061991D01*
X041950Y062098D01*
X041950Y062311D01*
X042056Y062418D01*
X042163Y062418D01*
X042270Y062311D01*
X042270Y062098D01*
X042163Y061991D01*
X041736Y061991D02*
X041629Y062098D01*
X041629Y062311D01*
X041736Y062418D01*
X041736Y062635D02*
X041629Y062742D01*
X041629Y062956D01*
X041736Y063062D01*
X041843Y063062D01*
X042270Y062635D01*
X042270Y063062D01*
X044429Y063616D02*
X044750Y063296D01*
X044750Y063723D01*
X044643Y063940D02*
X044750Y064047D01*
X044750Y064367D01*
X044963Y064367D02*
X044536Y064367D01*
X044429Y064261D01*
X044429Y064047D01*
X044536Y063940D01*
X044643Y063940D01*
X044963Y063940D02*
X045070Y064047D01*
X045070Y064261D01*
X044963Y064367D01*
X044963Y064692D02*
X045070Y064692D01*
X045070Y064798D01*
X044963Y064798D01*
X044963Y064692D01*
X045070Y064798D02*
X045284Y064585D01*
X044750Y065015D02*
X044750Y065442D01*
X044963Y065659D02*
X045070Y065659D01*
X044963Y065659D02*
X044536Y066086D01*
X044429Y066086D01*
X044429Y065659D01*
X044429Y065335D02*
X044750Y065015D01*
X045070Y065335D02*
X044429Y065335D01*
X044429Y066304D02*
X044643Y066517D01*
X044856Y066517D01*
X045070Y066304D01*
X045070Y063616D02*
X044429Y063616D01*
X044963Y063080D02*
X044963Y062973D01*
X045070Y062973D01*
X045070Y063080D01*
X044963Y063080D01*
X045070Y063080D02*
X045284Y062866D01*
X045070Y062649D02*
X045070Y062222D01*
X045070Y062435D02*
X044429Y062435D01*
X044643Y062222D01*
X044750Y062004D02*
X044963Y062004D01*
X045070Y061897D01*
X045070Y061684D01*
X044963Y061577D01*
X044750Y061577D02*
X044643Y061791D01*
X044643Y061897D01*
X044750Y062004D01*
X044429Y062004D02*
X044429Y061577D01*
X044750Y061577D01*
X044963Y061361D02*
X044963Y061254D01*
X045070Y061254D01*
X045070Y061361D01*
X044963Y061361D01*
X045070Y061361D02*
X045284Y061147D01*
X044963Y060930D02*
X045070Y060823D01*
X045070Y060610D01*
X044963Y060503D01*
X044963Y060285D02*
X045070Y060178D01*
X045070Y059965D01*
X044963Y059858D01*
X044750Y059858D02*
X044643Y060072D01*
X044643Y060178D01*
X044750Y060285D01*
X044963Y060285D01*
X044750Y059858D02*
X044429Y059858D01*
X044429Y060285D01*
X044536Y060503D02*
X044429Y060610D01*
X044429Y060823D01*
X044536Y060930D01*
X044643Y060930D01*
X044750Y060823D01*
X044856Y060930D01*
X044963Y060930D01*
X044750Y060823D02*
X044750Y060716D01*
X044963Y059642D02*
X044963Y059535D01*
X045070Y059535D01*
X045070Y059642D01*
X044963Y059642D01*
X045070Y059642D02*
X045284Y059428D01*
X044963Y058997D02*
X044536Y058997D01*
X044750Y058784D02*
X044750Y059211D01*
X044963Y058568D02*
X044963Y058461D01*
X045070Y058461D01*
X045070Y058568D01*
X044963Y058568D01*
X045070Y058568D02*
X045284Y058354D01*
X044750Y058137D02*
X044750Y057710D01*
X045070Y057494D02*
X044856Y057280D01*
X044643Y057280D01*
X044429Y057494D01*
X044270Y072480D02*
X043629Y072480D01*
X043629Y072800D01*
X043736Y072907D01*
X043950Y072907D01*
X044056Y072800D01*
X044056Y072480D01*
X044163Y073125D02*
X044270Y073231D01*
X044270Y073445D01*
X044163Y073552D01*
X044270Y073769D02*
X044270Y074196D01*
X044270Y073983D02*
X043629Y073983D01*
X043843Y073769D01*
X043736Y073552D02*
X043629Y073445D01*
X043629Y073231D01*
X043736Y073125D01*
X044163Y073125D01*
X043220Y073231D02*
X043220Y073445D01*
X043113Y073552D01*
X043113Y073769D02*
X042686Y074196D01*
X043113Y074196D01*
X043220Y074089D01*
X043220Y073876D01*
X043113Y073769D01*
X042686Y073769D01*
X042579Y073876D01*
X042579Y074089D01*
X042686Y074196D01*
X042686Y073552D02*
X042579Y073445D01*
X042579Y073231D01*
X042686Y073125D01*
X043113Y073125D01*
X043220Y073231D01*
X042900Y072907D02*
X043006Y072800D01*
X043006Y072480D01*
X043220Y072480D02*
X042579Y072480D01*
X042579Y072800D01*
X042686Y072907D01*
X042900Y072907D01*
X042170Y073125D02*
X042170Y073445D01*
X042063Y073552D01*
X041636Y073552D01*
X041529Y073445D01*
X041529Y073125D01*
X042170Y073125D01*
X041850Y072907D02*
X041956Y072800D01*
X041956Y072480D01*
X042170Y072480D02*
X041529Y072480D01*
X041529Y072800D01*
X041636Y072907D01*
X041850Y072907D01*
X042063Y073769D02*
X042170Y073769D01*
X042063Y073769D02*
X041636Y074196D01*
X041529Y074196D01*
X041529Y073769D01*
X040800Y072907D02*
X040800Y072480D01*
X038652Y072294D02*
X038652Y072721D01*
X038225Y072721D02*
X038225Y072294D01*
X038438Y072080D01*
X038652Y072294D01*
X038007Y072400D02*
X038007Y072187D01*
X037900Y072080D01*
X037687Y072080D01*
X037580Y072187D01*
X037580Y072400D02*
X037794Y072507D01*
X037900Y072507D01*
X038007Y072400D01*
X038007Y072721D02*
X037580Y072721D01*
X037580Y072400D01*
X032746Y078080D02*
X032319Y078080D01*
X032746Y078507D01*
X032746Y078614D01*
X032639Y078721D01*
X032426Y078721D01*
X032319Y078614D01*
X032102Y078614D02*
X031995Y078721D01*
X031781Y078721D01*
X031675Y078614D01*
X031675Y078187D01*
X031781Y078080D01*
X031995Y078080D01*
X032102Y078187D01*
X031457Y078400D02*
X031350Y078294D01*
X031030Y078294D01*
X031030Y078080D02*
X031030Y078721D01*
X031350Y078721D01*
X031457Y078614D01*
X031457Y078400D01*
X039580Y084830D02*
X039580Y085471D01*
X039900Y085471D01*
X040007Y085364D01*
X040007Y085150D01*
X039900Y085044D01*
X039580Y085044D01*
X040225Y084830D02*
X040545Y084830D01*
X040652Y084937D01*
X040652Y085364D01*
X040545Y085471D01*
X040225Y085471D01*
X040225Y084830D01*
X040869Y084937D02*
X040976Y084830D01*
X041189Y084830D01*
X041296Y084937D01*
X041296Y085044D01*
X041189Y085150D01*
X040869Y085150D01*
X040869Y084937D01*
X040869Y085150D02*
X041083Y085364D01*
X041296Y085471D01*
X041189Y085880D02*
X040976Y085880D01*
X040869Y085987D01*
X040869Y086200D02*
X041083Y086307D01*
X041189Y086307D01*
X041296Y086200D01*
X041296Y085987D01*
X041189Y085880D01*
X040869Y086200D02*
X040869Y086521D01*
X041296Y086521D01*
X041189Y086930D02*
X041189Y087571D01*
X040869Y087250D01*
X041296Y087250D01*
X040652Y087037D02*
X040652Y087464D01*
X040545Y087571D01*
X040225Y087571D01*
X040225Y086930D01*
X040545Y086930D01*
X040652Y087037D01*
X040545Y086521D02*
X040225Y086521D01*
X040225Y085880D01*
X040545Y085880D01*
X040652Y085987D01*
X040652Y086414D01*
X040545Y086521D01*
X040007Y086414D02*
X040007Y086200D01*
X039900Y086094D01*
X039580Y086094D01*
X039580Y085880D02*
X039580Y086521D01*
X039900Y086521D01*
X040007Y086414D01*
X039580Y086930D02*
X039580Y087571D01*
X039900Y087571D01*
X040007Y087464D01*
X040007Y087250D01*
X039900Y087144D01*
X039580Y087144D01*
X039580Y087980D02*
X039580Y088621D01*
X039900Y088621D01*
X040007Y088514D01*
X040007Y088300D01*
X039900Y088194D01*
X039580Y088194D01*
X040225Y087980D02*
X040545Y087980D01*
X040652Y088087D01*
X040652Y088514D01*
X040545Y088621D01*
X040225Y088621D01*
X040225Y087980D01*
X040869Y088087D02*
X040976Y087980D01*
X041189Y087980D01*
X041296Y088087D01*
X041296Y088194D01*
X041189Y088300D01*
X041083Y088300D01*
X041189Y088300D02*
X041296Y088407D01*
X041296Y088514D01*
X041189Y088621D01*
X040976Y088621D01*
X040869Y088514D01*
X040869Y089030D02*
X041296Y089457D01*
X041296Y089564D01*
X041189Y089671D01*
X040976Y089671D01*
X040869Y089564D01*
X040652Y089564D02*
X040545Y089671D01*
X040225Y089671D01*
X040225Y089030D01*
X040545Y089030D01*
X040652Y089137D01*
X040652Y089564D01*
X040869Y089030D02*
X041296Y089030D01*
X040007Y089350D02*
X039900Y089244D01*
X039580Y089244D01*
X039580Y089030D02*
X039580Y089671D01*
X039900Y089671D01*
X040007Y089564D01*
X040007Y089350D01*
X047480Y088471D02*
X047907Y088471D01*
X047694Y088471D02*
X047694Y087830D01*
X047800Y087421D02*
X047907Y087314D01*
X047907Y087100D01*
X047800Y086994D01*
X047480Y086994D01*
X047694Y086994D02*
X047907Y086780D01*
X048125Y086780D02*
X048552Y087421D01*
X048552Y087830D02*
X048125Y088471D01*
X048552Y088471D02*
X048125Y087830D01*
X048125Y087421D02*
X048552Y086780D01*
X048980Y086471D02*
X049407Y086471D01*
X049194Y086471D02*
X049194Y085830D01*
X049300Y085421D02*
X048980Y085421D01*
X048980Y084780D01*
X048980Y084994D02*
X049300Y084994D01*
X049407Y085100D01*
X049407Y085314D01*
X049300Y085421D01*
X049625Y085421D02*
X050052Y084780D01*
X049625Y084780D02*
X050052Y085421D01*
X050052Y085830D02*
X049625Y086471D01*
X050052Y086471D02*
X049625Y085830D01*
X049194Y084994D02*
X049407Y084780D01*
X047480Y086780D02*
X047480Y087421D01*
X047800Y087421D01*
X057229Y086439D02*
X057550Y086119D01*
X057550Y086546D01*
X057870Y086439D02*
X057229Y086439D01*
X057336Y085902D02*
X057443Y085902D01*
X057550Y085795D01*
X057550Y085475D01*
X057550Y085257D02*
X057656Y085150D01*
X057656Y084830D01*
X057870Y084830D02*
X057229Y084830D01*
X057229Y085150D01*
X057336Y085257D01*
X057550Y085257D01*
X057870Y085475D02*
X057870Y085795D01*
X057763Y085902D01*
X057656Y085902D01*
X057550Y085795D01*
X057336Y085902D02*
X057229Y085795D01*
X057229Y085475D01*
X057870Y085475D01*
X058279Y085475D02*
X058279Y085795D01*
X058386Y085902D01*
X058493Y085902D01*
X058600Y085795D01*
X058600Y085475D01*
X058600Y085257D02*
X058706Y085150D01*
X058706Y084830D01*
X058920Y084830D02*
X058279Y084830D01*
X058279Y085150D01*
X058386Y085257D01*
X058600Y085257D01*
X058920Y085475D02*
X058279Y085475D01*
X058600Y085795D02*
X058706Y085902D01*
X058813Y085902D01*
X058920Y085795D01*
X058920Y085475D01*
X059329Y085475D02*
X059329Y085795D01*
X059436Y085902D01*
X059543Y085902D01*
X059650Y085795D01*
X059650Y085475D01*
X059650Y085257D02*
X059756Y085150D01*
X059756Y084830D01*
X059970Y084830D02*
X059329Y084830D01*
X059329Y085150D01*
X059436Y085257D01*
X059650Y085257D01*
X059970Y085475D02*
X059329Y085475D01*
X059650Y085795D02*
X059756Y085902D01*
X059863Y085902D01*
X059970Y085795D01*
X059970Y085475D01*
X060379Y085475D02*
X060379Y085795D01*
X060486Y085902D01*
X060593Y085902D01*
X060700Y085795D01*
X060700Y085475D01*
X060700Y085257D02*
X060806Y085150D01*
X060806Y084830D01*
X061020Y084830D02*
X060379Y084830D01*
X060379Y085150D01*
X060486Y085257D01*
X060700Y085257D01*
X061020Y085475D02*
X060379Y085475D01*
X060700Y085795D02*
X060806Y085902D01*
X060913Y085902D01*
X061020Y085795D01*
X061020Y085475D01*
X061429Y085475D02*
X061429Y085795D01*
X061536Y085902D01*
X061643Y085902D01*
X061750Y085795D01*
X061750Y085475D01*
X061750Y085257D02*
X061856Y085150D01*
X061856Y084830D01*
X062070Y084830D02*
X061429Y084830D01*
X061429Y085150D01*
X061536Y085257D01*
X061750Y085257D01*
X062070Y085475D02*
X061429Y085475D01*
X061750Y085795D02*
X061856Y085902D01*
X061963Y085902D01*
X062070Y085795D01*
X062070Y085475D01*
X061963Y086119D02*
X061536Y086546D01*
X061963Y086546D01*
X062070Y086439D01*
X062070Y086226D01*
X061963Y086119D01*
X061536Y086119D01*
X061429Y086226D01*
X061429Y086439D01*
X061536Y086546D01*
X061020Y086546D02*
X061020Y086119D01*
X061020Y086333D02*
X060379Y086333D01*
X060593Y086119D01*
X059970Y086119D02*
X059543Y086546D01*
X059436Y086546D01*
X059329Y086439D01*
X059329Y086226D01*
X059436Y086119D01*
X058920Y086226D02*
X058813Y086119D01*
X058920Y086226D02*
X058920Y086439D01*
X058813Y086546D01*
X058706Y086546D01*
X058600Y086439D01*
X058600Y086333D01*
X058600Y086439D02*
X058493Y086546D01*
X058386Y086546D01*
X058279Y086439D01*
X058279Y086226D01*
X058386Y086119D01*
X059970Y086119D02*
X059970Y086546D01*
X060036Y073996D02*
X060463Y073569D01*
X060570Y073676D01*
X060570Y073889D01*
X060463Y073996D01*
X060036Y073996D01*
X059929Y073889D01*
X059929Y073676D01*
X060036Y073569D01*
X060463Y073569D01*
X060570Y073352D02*
X060143Y073352D01*
X059929Y073138D01*
X060143Y072925D01*
X060570Y072925D01*
X060250Y072925D02*
X060250Y073352D01*
X060250Y072707D02*
X060356Y072600D01*
X060356Y072280D01*
X060570Y072280D02*
X059929Y072280D01*
X059929Y072600D01*
X060036Y072707D01*
X060250Y072707D01*
X059520Y072925D02*
X059093Y072925D01*
X058879Y073138D01*
X059093Y073352D01*
X059520Y073352D01*
X059520Y073569D02*
X059520Y073996D01*
X059520Y073783D02*
X058879Y073783D01*
X059093Y073569D01*
X059200Y073352D02*
X059200Y072925D01*
X059200Y072707D02*
X059306Y072600D01*
X059306Y072280D01*
X059520Y072280D02*
X058879Y072280D01*
X058879Y072600D01*
X058986Y072707D01*
X059200Y072707D01*
X058470Y072925D02*
X058043Y072925D01*
X057829Y073138D01*
X058043Y073352D01*
X058470Y073352D01*
X058470Y073569D02*
X058043Y073996D01*
X057936Y073996D01*
X057829Y073889D01*
X057829Y073676D01*
X057936Y073569D01*
X058150Y073352D02*
X058150Y072925D01*
X058150Y072707D02*
X058256Y072600D01*
X058256Y072280D01*
X058470Y072280D02*
X057829Y072280D01*
X057829Y072600D01*
X057936Y072707D01*
X058150Y072707D01*
X057420Y072925D02*
X056993Y072925D01*
X056779Y073138D01*
X056993Y073352D01*
X057420Y073352D01*
X057313Y073569D02*
X057420Y073676D01*
X057420Y073889D01*
X057313Y073996D01*
X057206Y073996D01*
X057100Y073889D01*
X057100Y073783D01*
X057100Y073889D02*
X056993Y073996D01*
X056886Y073996D01*
X056779Y073889D01*
X056779Y073676D01*
X056886Y073569D01*
X057100Y073352D02*
X057100Y072925D01*
X057100Y072707D02*
X056886Y072707D01*
X056779Y072600D01*
X056779Y072280D01*
X057420Y072280D01*
X057206Y072280D02*
X057206Y072600D01*
X057100Y072707D01*
X056370Y072925D02*
X055943Y072925D01*
X055729Y073138D01*
X055943Y073352D01*
X056370Y073352D01*
X056050Y073352D02*
X056050Y072925D01*
X056050Y072707D02*
X055836Y072707D01*
X055729Y072600D01*
X055729Y072280D01*
X056370Y072280D01*
X056156Y072280D02*
X056156Y072600D01*
X056050Y072707D01*
X055320Y072925D02*
X054893Y072925D01*
X054679Y073138D01*
X054893Y073352D01*
X055320Y073352D01*
X055213Y073569D02*
X055320Y073676D01*
X055320Y073889D01*
X055213Y073996D01*
X055000Y073996D01*
X054893Y073889D01*
X054893Y073783D01*
X055000Y073569D01*
X054679Y073569D01*
X054679Y073996D01*
X054270Y073889D02*
X054163Y073996D01*
X054056Y073996D01*
X053950Y073889D01*
X053950Y073569D01*
X054163Y073569D01*
X054270Y073676D01*
X054270Y073889D01*
X053950Y073569D02*
X053736Y073783D01*
X053629Y073996D01*
X053220Y073569D02*
X053113Y073569D01*
X052686Y073996D01*
X052579Y073996D01*
X052579Y073569D01*
X052793Y073352D02*
X053220Y073352D01*
X052900Y073352D02*
X052900Y072925D01*
X052793Y072925D02*
X052579Y073138D01*
X052793Y073352D01*
X052793Y072925D02*
X053220Y072925D01*
X052900Y072707D02*
X053006Y072600D01*
X053006Y072280D01*
X053220Y072280D02*
X052579Y072280D01*
X052579Y072600D01*
X052686Y072707D01*
X052900Y072707D01*
X053629Y072600D02*
X053736Y072707D01*
X053950Y072707D01*
X054056Y072600D01*
X054056Y072280D01*
X054270Y072280D02*
X053629Y072280D01*
X053629Y072600D01*
X053843Y072925D02*
X053629Y073138D01*
X053843Y073352D01*
X054270Y073352D01*
X053950Y073352D02*
X053950Y072925D01*
X053843Y072925D02*
X054270Y072925D01*
X054679Y072600D02*
X054786Y072707D01*
X055000Y072707D01*
X055106Y072600D01*
X055106Y072280D01*
X055320Y072280D02*
X054679Y072280D01*
X054679Y072600D01*
X055000Y072925D02*
X055000Y073352D01*
X055729Y073889D02*
X056050Y073569D01*
X056050Y073996D01*
X056370Y073889D02*
X055729Y073889D01*
X058470Y073996D02*
X058470Y073569D01*
X072130Y060921D02*
X072344Y060707D01*
X072557Y060921D01*
X072557Y060280D01*
X072775Y060387D02*
X072881Y060280D01*
X073095Y060280D01*
X073202Y060387D01*
X073202Y060494D01*
X073095Y060600D01*
X072775Y060600D01*
X072775Y060387D01*
X072775Y060600D02*
X072988Y060814D01*
X073202Y060921D01*
X073419Y060707D02*
X073633Y060921D01*
X073419Y060707D02*
X073419Y060494D01*
X073633Y060280D01*
X073849Y060600D02*
X074276Y060600D01*
X074600Y060387D02*
X074600Y060280D01*
X074707Y060280D01*
X074707Y060387D01*
X074600Y060387D01*
X074707Y060280D02*
X074493Y060066D01*
X074923Y060280D02*
X075350Y060707D01*
X075350Y060814D01*
X075243Y060921D01*
X075030Y060921D01*
X074923Y060814D01*
X074923Y060280D02*
X075350Y060280D01*
X075568Y060280D02*
X075568Y060387D01*
X075995Y060814D01*
X075995Y060921D01*
X075568Y060921D01*
X076319Y060387D02*
X076319Y060280D01*
X076426Y060280D01*
X076426Y060387D01*
X076319Y060387D01*
X076426Y060280D02*
X076212Y060066D01*
X076642Y060280D02*
X077069Y060707D01*
X077069Y060814D01*
X076962Y060921D01*
X076749Y060921D01*
X076642Y060814D01*
X076642Y060280D02*
X077069Y060280D01*
X077286Y060387D02*
X077393Y060280D01*
X077607Y060280D01*
X077713Y060387D01*
X077713Y060600D01*
X077607Y060707D01*
X077500Y060707D01*
X077286Y060600D01*
X077286Y060921D01*
X077713Y060921D01*
X078038Y060387D02*
X078038Y060280D01*
X078144Y060280D01*
X078144Y060387D01*
X078038Y060387D01*
X078144Y060280D02*
X077931Y060066D01*
X078361Y060387D02*
X078467Y060280D01*
X078681Y060280D01*
X078788Y060387D01*
X078788Y060600D01*
X078681Y060707D01*
X078574Y060707D01*
X078361Y060600D01*
X078361Y060921D01*
X078788Y060921D01*
X079005Y060921D02*
X079219Y060707D01*
X079219Y060494D01*
X079005Y060280D01*
X079005Y058421D02*
X079219Y058207D01*
X079219Y057994D01*
X079005Y057780D01*
X079130Y057780D02*
X079130Y058421D01*
X079344Y058207D01*
X079557Y058421D01*
X079557Y057780D01*
X079775Y057887D02*
X079881Y057780D01*
X080095Y057780D01*
X080202Y057887D01*
X080202Y058314D01*
X080095Y058421D01*
X079881Y058421D01*
X079775Y058314D01*
X079775Y058207D01*
X079881Y058100D01*
X080202Y058100D01*
X080419Y057994D02*
X080419Y058207D01*
X080633Y058421D01*
X080849Y058100D02*
X081276Y058100D01*
X081600Y057887D02*
X081600Y057780D01*
X081707Y057780D01*
X081707Y057887D01*
X081600Y057887D01*
X081707Y057780D02*
X081493Y057566D01*
X081923Y057887D02*
X082030Y057780D01*
X082243Y057780D01*
X082350Y057887D01*
X082350Y057994D01*
X082243Y058100D01*
X082137Y058100D01*
X082243Y058100D02*
X082350Y058207D01*
X082350Y058314D01*
X082243Y058421D01*
X082030Y058421D01*
X081923Y058314D01*
X082568Y058314D02*
X082568Y058207D01*
X082674Y058100D01*
X082995Y058100D01*
X082995Y057887D02*
X082995Y058314D01*
X082888Y058421D01*
X082674Y058421D01*
X082568Y058314D01*
X082568Y057887D02*
X082674Y057780D01*
X082888Y057780D01*
X082995Y057887D01*
X083319Y057887D02*
X083319Y057780D01*
X083426Y057780D01*
X083426Y057887D01*
X083319Y057887D01*
X083426Y057780D02*
X083212Y057566D01*
X083642Y057887D02*
X083749Y057780D01*
X083962Y057780D01*
X084069Y057887D01*
X084069Y057994D01*
X083962Y058100D01*
X083855Y058100D01*
X083962Y058100D02*
X084069Y058207D01*
X084069Y058314D01*
X083962Y058421D01*
X083749Y058421D01*
X083642Y058314D01*
X084286Y058421D02*
X084713Y058421D01*
X084713Y058314D01*
X084286Y057887D01*
X084286Y057780D01*
X084931Y057566D02*
X085144Y057780D01*
X085038Y057780D01*
X085038Y057887D01*
X085144Y057887D01*
X085144Y057780D01*
X085361Y057887D02*
X085361Y057994D01*
X085467Y058100D01*
X085681Y058100D01*
X085788Y057994D01*
X085788Y057887D01*
X085681Y057780D01*
X085467Y057780D01*
X085361Y057887D01*
X085467Y058100D02*
X085361Y058207D01*
X085361Y058314D01*
X085467Y058421D01*
X085681Y058421D01*
X085788Y058314D01*
X085788Y058207D01*
X085681Y058100D01*
X085929Y057994D02*
X086143Y057780D01*
X086356Y057780D01*
X086570Y057994D01*
X086219Y057994D02*
X086219Y058207D01*
X086005Y058421D01*
X086250Y058210D02*
X086250Y058637D01*
X086463Y058854D02*
X086463Y058961D01*
X086570Y058961D01*
X086570Y058854D01*
X086463Y058854D01*
X086250Y059177D02*
X086250Y059604D01*
X086463Y059390D02*
X086036Y059390D01*
X085570Y059425D02*
X085143Y059425D01*
X084929Y059638D01*
X085143Y059852D01*
X085570Y059852D01*
X085463Y060069D02*
X085036Y060069D01*
X084929Y060176D01*
X084929Y060389D01*
X085036Y060496D01*
X085250Y060496D02*
X085250Y060283D01*
X085250Y060496D02*
X085463Y060496D01*
X085570Y060389D01*
X085570Y060176D01*
X085463Y060069D01*
X085250Y059852D02*
X085250Y059425D01*
X085570Y059207D02*
X084929Y059207D01*
X085143Y058994D01*
X084929Y058780D01*
X085570Y058780D01*
X086219Y057994D02*
X086005Y057780D01*
X086784Y059821D02*
X086570Y060035D01*
X086570Y059928D01*
X086463Y059928D01*
X086463Y060035D01*
X086570Y060035D01*
X086570Y060251D02*
X086143Y060678D01*
X086036Y060678D01*
X085929Y060571D01*
X085929Y060358D01*
X086036Y060251D01*
X086570Y060251D02*
X086570Y060678D01*
X086463Y060895D02*
X086036Y061322D01*
X086463Y061322D01*
X086570Y061216D01*
X086570Y061002D01*
X086463Y060895D01*
X086036Y060895D01*
X085929Y061002D01*
X085929Y061216D01*
X086036Y061322D01*
X086463Y061647D02*
X086570Y061647D01*
X086570Y061753D01*
X086463Y061753D01*
X086463Y061647D01*
X086570Y061753D02*
X086784Y061540D01*
X086570Y061970D02*
X086143Y062397D01*
X086036Y062397D01*
X085929Y062290D01*
X085929Y062076D01*
X086036Y061970D01*
X086570Y061970D02*
X086570Y062397D01*
X086570Y062614D02*
X086570Y063041D01*
X086570Y062828D02*
X085929Y062828D01*
X086143Y062614D01*
X086005Y062780D02*
X086219Y062994D01*
X086219Y063207D01*
X086005Y063421D01*
X086143Y063472D02*
X085929Y063259D01*
X085788Y063314D02*
X085361Y062887D01*
X085361Y062780D01*
X085144Y062780D02*
X085038Y062780D01*
X085038Y062887D01*
X085144Y062887D01*
X085144Y062780D01*
X084931Y062566D01*
X084713Y062887D02*
X084607Y062780D01*
X084393Y062780D01*
X084286Y062887D01*
X084069Y062887D02*
X083962Y062780D01*
X083749Y062780D01*
X083642Y062887D01*
X083426Y062887D02*
X083319Y062887D01*
X083319Y062780D01*
X083426Y062780D01*
X083426Y062887D01*
X083426Y062780D02*
X083212Y062566D01*
X082995Y062887D02*
X082888Y062780D01*
X082674Y062780D01*
X082568Y062887D01*
X082568Y063100D02*
X082781Y063207D01*
X082888Y063207D01*
X082995Y063100D01*
X082995Y062887D01*
X082568Y063100D02*
X082568Y063421D01*
X082995Y063421D01*
X082350Y063314D02*
X082350Y063207D01*
X082243Y063100D01*
X082350Y062994D01*
X082350Y062887D01*
X082243Y062780D01*
X082030Y062780D01*
X081923Y062887D01*
X081707Y062887D02*
X081600Y062887D01*
X081600Y062780D01*
X081707Y062780D01*
X081707Y062887D01*
X081707Y062780D02*
X081493Y062566D01*
X081276Y063100D02*
X080849Y063100D01*
X080633Y062780D02*
X080419Y062994D01*
X080419Y063207D01*
X080633Y063421D01*
X080202Y063314D02*
X080202Y063207D01*
X080095Y063100D01*
X079881Y063100D01*
X079775Y063207D01*
X079775Y063314D01*
X079881Y063421D01*
X080095Y063421D01*
X080202Y063314D01*
X080095Y063100D02*
X080202Y062994D01*
X080202Y062887D01*
X080095Y062780D01*
X079881Y062780D01*
X079775Y062887D01*
X079775Y062994D01*
X079881Y063100D01*
X079557Y062780D02*
X079557Y063421D01*
X079344Y063207D01*
X079130Y063421D01*
X079130Y062780D01*
X081923Y063314D02*
X082030Y063421D01*
X082243Y063421D01*
X082350Y063314D01*
X082243Y063100D02*
X082137Y063100D01*
X083642Y063314D02*
X083749Y063421D01*
X083962Y063421D01*
X084069Y063314D01*
X084069Y063207D01*
X083962Y063100D01*
X084069Y062994D01*
X084069Y062887D01*
X083962Y063100D02*
X083855Y063100D01*
X084286Y063314D02*
X084393Y063421D01*
X084607Y063421D01*
X084713Y063314D01*
X084713Y063207D01*
X084607Y063100D01*
X084713Y062994D01*
X084713Y062887D01*
X084607Y063100D02*
X084500Y063100D01*
X085361Y063421D02*
X085788Y063421D01*
X085788Y063314D01*
X086143Y063472D02*
X086356Y063472D01*
X086570Y063259D01*
X080633Y057780D02*
X080419Y057994D01*
X078788Y057994D02*
X078681Y058100D01*
X078361Y058100D01*
X078361Y057887D01*
X078467Y057780D01*
X078681Y057780D01*
X078788Y057887D01*
X078788Y057994D01*
X078574Y058314D02*
X078361Y058100D01*
X078574Y058314D02*
X078788Y058421D01*
X078144Y057887D02*
X078038Y057887D01*
X078038Y057780D01*
X078144Y057780D01*
X078144Y057887D01*
X078144Y057780D02*
X077931Y057566D01*
X077713Y057887D02*
X077713Y058314D01*
X077607Y058421D01*
X077393Y058421D01*
X077286Y058314D01*
X077286Y058207D01*
X077393Y058100D01*
X077713Y058100D01*
X077713Y057887D02*
X077607Y057780D01*
X077393Y057780D01*
X077286Y057887D01*
X077069Y057780D02*
X076642Y057780D01*
X077069Y058207D01*
X077069Y058314D01*
X076962Y058421D01*
X076749Y058421D01*
X076642Y058314D01*
X076426Y057887D02*
X076319Y057887D01*
X076319Y057780D01*
X076426Y057780D01*
X076426Y057887D01*
X076426Y057780D02*
X076212Y057566D01*
X075995Y057780D02*
X075568Y057780D01*
X075781Y057780D02*
X075781Y058421D01*
X075568Y058207D01*
X075350Y058207D02*
X075243Y058100D01*
X075350Y057994D01*
X075350Y057887D01*
X075243Y057780D01*
X075030Y057780D01*
X074923Y057887D01*
X074707Y057887D02*
X074600Y057887D01*
X074600Y057780D01*
X074707Y057780D01*
X074707Y057887D01*
X074707Y057780D02*
X074493Y057566D01*
X074276Y058100D02*
X073849Y058100D01*
X073633Y057780D02*
X073419Y057994D01*
X073419Y058207D01*
X073633Y058421D01*
X073202Y058421D02*
X073202Y058314D01*
X072775Y057887D01*
X072775Y057780D01*
X072557Y057780D02*
X072557Y058421D01*
X072344Y058207D01*
X072130Y058421D01*
X072130Y057780D01*
X072775Y058421D02*
X073202Y058421D01*
X074923Y058314D02*
X075030Y058421D01*
X075243Y058421D01*
X075350Y058314D01*
X075350Y058207D01*
X075243Y058100D02*
X075137Y058100D01*
X072130Y060280D02*
X072130Y060921D01*
X077630Y054921D02*
X077844Y054707D01*
X078057Y054921D01*
X078057Y054280D01*
X078275Y054280D02*
X078702Y054280D01*
X078488Y054280D02*
X078488Y054921D01*
X078275Y054707D01*
X078919Y054707D02*
X079133Y054921D01*
X078919Y054707D02*
X078919Y054494D01*
X079133Y054280D01*
X079349Y054600D02*
X079776Y054600D01*
X079669Y054280D02*
X079669Y054921D01*
X079349Y054600D01*
X080100Y054387D02*
X080100Y054280D01*
X080207Y054280D01*
X080207Y054387D01*
X080100Y054387D01*
X080207Y054280D02*
X079993Y054066D01*
X080423Y054280D02*
X080850Y054707D01*
X080850Y054814D01*
X080743Y054921D01*
X080530Y054921D01*
X080423Y054814D01*
X080423Y054280D02*
X080850Y054280D01*
X081068Y054280D02*
X081495Y054707D01*
X081495Y054814D01*
X081388Y054921D01*
X081174Y054921D01*
X081068Y054814D01*
X081068Y054280D02*
X081495Y054280D01*
X081712Y054066D02*
X081926Y054280D01*
X081819Y054280D01*
X081819Y054387D01*
X081926Y054387D01*
X081926Y054280D01*
X082142Y054280D02*
X082569Y054707D01*
X082569Y054814D01*
X082462Y054921D01*
X082249Y054921D01*
X082142Y054814D01*
X082142Y054280D02*
X082569Y054280D01*
X082786Y054387D02*
X082893Y054280D01*
X083107Y054280D01*
X083213Y054387D01*
X083213Y054494D01*
X083107Y054600D01*
X083000Y054600D01*
X083107Y054600D02*
X083213Y054707D01*
X083213Y054814D01*
X083107Y054921D01*
X082893Y054921D01*
X082786Y054814D01*
X083538Y054387D02*
X083538Y054280D01*
X083644Y054280D01*
X083644Y054387D01*
X083538Y054387D01*
X083644Y054280D02*
X083431Y054066D01*
X083861Y054600D02*
X084288Y054600D01*
X084250Y054430D02*
X084250Y054003D01*
X084463Y053787D02*
X084463Y053680D01*
X084570Y053680D01*
X084570Y053787D01*
X084463Y053787D01*
X084570Y053787D02*
X084784Y053573D01*
X084463Y053142D02*
X084036Y053142D01*
X084250Y052928D02*
X084250Y053356D01*
X084463Y052712D02*
X084463Y052606D01*
X084570Y052606D01*
X084570Y052712D01*
X084463Y052712D01*
X084570Y052712D02*
X084784Y052499D01*
X084463Y052281D02*
X084570Y052175D01*
X084570Y051961D01*
X084463Y051854D01*
X084356Y051854D01*
X084250Y051961D01*
X084250Y052175D01*
X084356Y052281D01*
X084463Y052281D01*
X084250Y052175D02*
X084143Y052281D01*
X084036Y052281D01*
X083929Y052175D01*
X083929Y051961D01*
X084036Y051854D01*
X084143Y051854D01*
X084250Y051961D01*
X084570Y051637D02*
X084570Y051210D01*
X084570Y051423D02*
X083929Y051423D01*
X084143Y051210D01*
X083929Y050994D02*
X084143Y050780D01*
X084356Y050780D01*
X084570Y050994D01*
X086929Y050707D02*
X087463Y050707D01*
X087570Y050600D01*
X087570Y050387D01*
X087463Y050280D01*
X086929Y050280D01*
X087677Y050925D02*
X087677Y051352D01*
X087570Y051569D02*
X087570Y051996D01*
X087570Y052214D02*
X086929Y052214D01*
X087570Y052641D01*
X086929Y052641D01*
X087036Y052858D02*
X087463Y052858D01*
X087570Y052965D01*
X087570Y053178D01*
X087463Y053285D01*
X087463Y053503D02*
X087570Y053610D01*
X087570Y053823D01*
X087463Y053930D01*
X087356Y053930D01*
X087250Y053823D01*
X087250Y053716D01*
X087250Y053823D02*
X087143Y053930D01*
X087036Y053930D01*
X086929Y053823D01*
X086929Y053610D01*
X087036Y053503D01*
X087036Y053285D02*
X086929Y053178D01*
X086929Y052965D01*
X087036Y052858D01*
X086929Y051996D02*
X086929Y051569D01*
X087570Y051569D01*
X087250Y051569D02*
X087250Y051783D01*
X084719Y054494D02*
X084719Y054707D01*
X084505Y054921D01*
X084356Y054861D02*
X084570Y054647D01*
X084719Y054494D02*
X084505Y054280D01*
X084356Y054861D02*
X084143Y054861D01*
X083929Y054647D01*
X081306Y050721D02*
X080985Y050400D01*
X081412Y050400D01*
X081306Y050080D02*
X081306Y050721D01*
X080768Y050614D02*
X080661Y050721D01*
X080448Y050721D01*
X080341Y050614D01*
X080341Y050187D01*
X080448Y050080D01*
X080661Y050080D01*
X080768Y050187D01*
X080123Y050080D02*
X080123Y050721D01*
X079696Y050721D02*
X080123Y050080D01*
X079696Y050080D02*
X079696Y050721D01*
X079479Y050721D02*
X079052Y050721D01*
X079052Y050080D01*
X079479Y050080D01*
X079265Y050400D02*
X079052Y050400D01*
X078834Y049973D02*
X078407Y049973D01*
X078190Y050187D02*
X078190Y050721D01*
X077763Y050721D02*
X077763Y050187D01*
X077869Y050080D01*
X078083Y050080D01*
X078190Y050187D01*
X078844Y048421D02*
X078630Y048207D01*
X078630Y047994D01*
X078844Y047780D01*
X079060Y047780D02*
X079487Y047780D01*
X079273Y047780D02*
X079273Y048421D01*
X079060Y048207D01*
X079704Y048207D02*
X079704Y048314D01*
X079811Y048421D01*
X080025Y048421D01*
X080131Y048314D01*
X080131Y047887D01*
X080025Y047780D01*
X079811Y047780D01*
X079704Y047887D01*
X079811Y048100D02*
X080131Y048100D01*
X079811Y048100D02*
X079704Y048207D01*
X080456Y047887D02*
X080456Y047780D01*
X080562Y047780D01*
X080562Y047887D01*
X080456Y047887D01*
X080562Y047780D02*
X080349Y047566D01*
X080530Y046921D02*
X080423Y046814D01*
X080423Y046707D01*
X080530Y046600D01*
X080850Y046600D01*
X080850Y046387D02*
X080850Y046814D01*
X080743Y046921D01*
X080530Y046921D01*
X079992Y046921D02*
X079992Y046280D01*
X079778Y046280D02*
X080206Y046280D01*
X080423Y046387D02*
X080530Y046280D01*
X080743Y046280D01*
X080850Y046387D01*
X081174Y046387D02*
X081174Y046280D01*
X081281Y046280D01*
X081281Y046387D01*
X081174Y046387D01*
X081281Y046280D02*
X081068Y046066D01*
X081497Y046600D02*
X081924Y046600D01*
X081711Y046814D02*
X081711Y046387D01*
X082142Y046066D02*
X082355Y046280D01*
X082249Y046280D01*
X082249Y046387D01*
X082355Y046387D01*
X082355Y046280D01*
X082572Y046600D02*
X082999Y046600D01*
X083216Y046280D02*
X083430Y046494D01*
X083430Y046707D01*
X083216Y046921D01*
X083429Y047000D02*
X083429Y046573D01*
X083750Y046573D01*
X083643Y046787D01*
X083643Y046893D01*
X083750Y047000D01*
X083963Y047000D01*
X084070Y046893D01*
X084070Y046680D01*
X083963Y046573D01*
X084070Y046356D02*
X084070Y045928D01*
X084070Y046142D02*
X083429Y046142D01*
X083643Y045928D01*
X083963Y045712D02*
X083963Y045606D01*
X084070Y045606D01*
X084070Y045712D01*
X083963Y045712D01*
X084070Y045712D02*
X084284Y045499D01*
X084070Y045175D02*
X083429Y045175D01*
X083750Y044854D01*
X083750Y045281D01*
X084070Y044637D02*
X084070Y044210D01*
X084070Y044423D02*
X083429Y044423D01*
X083643Y044210D01*
X083429Y043994D02*
X083643Y043780D01*
X083856Y043780D01*
X084070Y043994D01*
X081709Y044207D02*
X081709Y044314D01*
X081603Y044421D01*
X081389Y044421D01*
X081282Y044314D01*
X081065Y044314D02*
X080958Y044421D01*
X080745Y044421D01*
X080638Y044314D01*
X080638Y043887D01*
X080745Y043780D01*
X080958Y043780D01*
X081065Y043887D01*
X081282Y043780D02*
X081709Y044207D01*
X081709Y043780D02*
X081282Y043780D01*
X080420Y043780D02*
X080420Y044421D01*
X079993Y044421D02*
X080420Y043780D01*
X079993Y043780D02*
X079993Y044421D01*
X079776Y044421D02*
X079349Y044421D01*
X079349Y043780D01*
X079776Y043780D01*
X079562Y044100D02*
X079349Y044100D01*
X079131Y043673D02*
X078704Y043673D01*
X078488Y043780D02*
X078275Y043780D01*
X078381Y043780D02*
X078381Y044421D01*
X078275Y044421D02*
X078488Y044421D01*
X078057Y044314D02*
X078057Y044207D01*
X077950Y044100D01*
X077630Y044100D01*
X077630Y043780D02*
X077950Y043780D01*
X078057Y043887D01*
X078057Y043994D01*
X077950Y044100D01*
X078057Y044314D02*
X077950Y044421D01*
X077630Y044421D01*
X077630Y043780D01*
X077844Y046280D02*
X077630Y046494D01*
X077630Y046707D01*
X077844Y046921D01*
X078060Y046707D02*
X078273Y046921D01*
X078273Y046280D01*
X078060Y046280D02*
X078487Y046280D01*
X078704Y046387D02*
X078704Y046494D01*
X078811Y046600D01*
X079025Y046600D01*
X079131Y046494D01*
X079131Y046387D01*
X079025Y046280D01*
X078811Y046280D01*
X078704Y046387D01*
X078811Y046600D02*
X078704Y046707D01*
X078704Y046814D01*
X078811Y046921D01*
X079025Y046921D01*
X079131Y046814D01*
X079131Y046707D01*
X079025Y046600D01*
X079456Y046387D02*
X079456Y046280D01*
X079562Y046280D01*
X079562Y046387D01*
X079456Y046387D01*
X079562Y046280D02*
X079349Y046066D01*
X079778Y046707D02*
X079992Y046921D01*
X080992Y047887D02*
X080992Y048314D01*
X080778Y048100D02*
X081206Y048100D01*
X081530Y047887D02*
X081530Y047780D01*
X081637Y047780D01*
X081637Y047887D01*
X081530Y047887D01*
X081637Y047780D02*
X081423Y047566D01*
X081853Y048100D02*
X082280Y048100D01*
X082497Y047780D02*
X082711Y047994D01*
X082711Y048207D01*
X082497Y048421D01*
X083429Y048292D02*
X083643Y048505D01*
X083856Y048505D01*
X084070Y048292D01*
X083750Y048074D02*
X083750Y047647D01*
X083963Y047431D02*
X083963Y047324D01*
X084070Y047324D01*
X084070Y047431D01*
X083963Y047431D01*
X084070Y047431D02*
X084284Y047218D01*
X087429Y047178D02*
X087536Y047285D01*
X087643Y047285D01*
X087750Y047178D01*
X087856Y047285D01*
X087963Y047285D01*
X088070Y047178D01*
X088070Y046965D01*
X087963Y046858D01*
X087750Y047072D02*
X087750Y047178D01*
X087429Y047178D02*
X087429Y046965D01*
X087536Y046858D01*
X087429Y046641D02*
X087429Y046214D01*
X087429Y046427D02*
X088070Y046427D01*
X088070Y045996D02*
X087856Y045783D01*
X087856Y045889D02*
X087856Y045569D01*
X088070Y045569D02*
X087429Y045569D01*
X087429Y045889D01*
X087536Y045996D01*
X087750Y045996D01*
X087856Y045889D01*
X087750Y045352D02*
X087750Y044925D01*
X087643Y044925D02*
X087429Y045138D01*
X087643Y045352D01*
X088070Y045352D01*
X088070Y044925D02*
X087643Y044925D01*
X087429Y044707D02*
X087963Y044707D01*
X088070Y044600D01*
X088070Y044387D01*
X087963Y044280D01*
X087429Y044280D01*
X087356Y043306D02*
X087143Y043306D01*
X086929Y043093D01*
X087250Y042875D02*
X087250Y042448D01*
X087463Y042232D02*
X087463Y042125D01*
X087570Y042125D01*
X087570Y042232D01*
X087463Y042232D01*
X087570Y042232D02*
X087784Y042019D01*
X087463Y041801D02*
X087570Y041694D01*
X087570Y041481D01*
X087463Y041374D01*
X087356Y041156D02*
X086929Y041156D01*
X087036Y041374D02*
X086929Y041481D01*
X086929Y041694D01*
X087036Y041801D01*
X087143Y041801D01*
X087250Y041694D01*
X087356Y041801D01*
X087463Y041801D01*
X087250Y041694D02*
X087250Y041588D01*
X087356Y041156D02*
X087570Y040943D01*
X087356Y040729D01*
X086929Y040729D01*
X087036Y040512D02*
X087143Y040512D01*
X087250Y040405D01*
X087356Y040512D01*
X087463Y040512D01*
X087570Y040405D01*
X087570Y040192D01*
X087463Y040085D01*
X087463Y039869D02*
X087463Y039762D01*
X087570Y039762D01*
X087570Y039869D01*
X087463Y039869D01*
X087570Y039869D02*
X087784Y039655D01*
X087463Y039224D02*
X087036Y039224D01*
X087250Y039011D02*
X087250Y039438D01*
X087463Y038794D02*
X087463Y038688D01*
X087570Y038688D01*
X087570Y038794D01*
X087463Y038794D01*
X087570Y038794D02*
X087784Y038581D01*
X087570Y037936D02*
X087463Y037936D01*
X087036Y038363D01*
X086929Y038363D01*
X086929Y037936D01*
X086929Y037505D02*
X087570Y037505D01*
X087570Y037292D02*
X087570Y037719D01*
X087143Y037292D02*
X086929Y037505D01*
X087463Y037076D02*
X087463Y036969D01*
X087570Y036969D01*
X087570Y037076D01*
X087463Y037076D01*
X087570Y037076D02*
X087784Y036862D01*
X087463Y036645D02*
X087356Y036645D01*
X087250Y036538D01*
X087250Y036218D01*
X087463Y036218D01*
X087570Y036324D01*
X087570Y036538D01*
X087463Y036645D01*
X087036Y036431D02*
X087250Y036218D01*
X087036Y036431D02*
X086929Y036645D01*
X086929Y035787D02*
X087570Y035787D01*
X087570Y036000D02*
X087570Y035573D01*
X087570Y035357D02*
X087570Y035250D01*
X087463Y035250D01*
X087463Y035357D01*
X087570Y035357D01*
X087784Y035143D01*
X087570Y034712D02*
X087250Y034712D01*
X087036Y034926D01*
X086929Y034926D01*
X087250Y034712D02*
X087036Y034499D01*
X086929Y034499D01*
X086929Y034281D02*
X086929Y033854D01*
X087570Y033854D01*
X087570Y034281D01*
X087250Y034068D02*
X087250Y033854D01*
X087570Y033637D02*
X087250Y033316D01*
X087356Y033210D02*
X086929Y033637D01*
X086929Y033210D02*
X087570Y033210D01*
X087570Y032994D02*
X087356Y032780D01*
X087143Y032780D01*
X086929Y032994D01*
X086463Y030785D02*
X086036Y030785D01*
X086463Y030358D01*
X086570Y030465D01*
X086570Y030678D01*
X086463Y030785D01*
X086036Y030785D02*
X085929Y030678D01*
X085929Y030465D01*
X086036Y030358D01*
X086463Y030358D01*
X086570Y029927D02*
X085929Y029927D01*
X085929Y029714D02*
X085929Y030141D01*
X086036Y029496D02*
X086250Y029496D01*
X086356Y029389D01*
X086356Y029069D01*
X086356Y029283D02*
X086570Y029496D01*
X086570Y029069D02*
X085929Y029069D01*
X085929Y029389D01*
X086036Y029496D01*
X086143Y028852D02*
X086570Y028852D01*
X086250Y028852D02*
X086250Y028425D01*
X086143Y028425D02*
X085929Y028638D01*
X086143Y028852D01*
X086143Y028425D02*
X086570Y028425D01*
X086463Y028207D02*
X085929Y028207D01*
X085929Y027780D02*
X086463Y027780D01*
X086570Y027887D01*
X086570Y028100D01*
X086463Y028207D01*
X084284Y028854D02*
X084070Y029068D01*
X084070Y028961D01*
X083963Y028961D01*
X083963Y029068D01*
X084070Y029068D01*
X083963Y029284D02*
X083536Y029711D01*
X083963Y029711D01*
X084070Y029604D01*
X084070Y029391D01*
X083963Y029284D01*
X083536Y029284D01*
X083429Y029391D01*
X083429Y029604D01*
X083536Y029711D01*
X083963Y030035D02*
X084070Y030035D01*
X084070Y030142D01*
X083963Y030142D01*
X083963Y030035D01*
X084070Y030142D02*
X084284Y029928D01*
X083750Y030358D02*
X083750Y030785D01*
X084070Y031003D02*
X083856Y031216D01*
X083643Y031216D01*
X083429Y031003D01*
X081780Y031280D02*
X081353Y031280D01*
X081566Y031280D02*
X081566Y031921D01*
X081353Y031707D01*
X081135Y031814D02*
X081028Y031921D01*
X080815Y031921D01*
X080708Y031814D01*
X080708Y031387D01*
X080815Y031280D01*
X081028Y031280D01*
X081135Y031387D01*
X080491Y031280D02*
X080491Y031921D01*
X080064Y031921D02*
X080491Y031280D01*
X080064Y031280D02*
X080064Y031921D01*
X079846Y031921D02*
X079419Y031921D01*
X079419Y031280D01*
X079846Y031280D01*
X079633Y031600D02*
X079419Y031600D01*
X079202Y031173D02*
X078775Y031173D01*
X078557Y031387D02*
X078557Y031921D01*
X078130Y031921D02*
X078130Y031387D01*
X078237Y031280D01*
X078450Y031280D01*
X078557Y031387D01*
X079204Y033566D02*
X079418Y033780D01*
X079311Y033780D01*
X079311Y033887D01*
X079418Y033887D01*
X079418Y033780D01*
X079634Y034100D02*
X080061Y034100D01*
X079847Y033887D02*
X079847Y034314D01*
X080385Y033887D02*
X080385Y033780D01*
X080492Y033780D01*
X080492Y033887D01*
X080385Y033887D01*
X080492Y033780D02*
X080278Y033566D01*
X080708Y033780D02*
X081135Y034207D01*
X081135Y034314D01*
X081028Y034421D01*
X080815Y034421D01*
X080708Y034314D01*
X080708Y033780D02*
X081135Y033780D01*
X081353Y033780D02*
X081566Y033994D01*
X081566Y034207D01*
X081353Y034421D01*
X078987Y034100D02*
X078560Y034100D01*
X078344Y033780D02*
X078130Y033994D01*
X078130Y034207D01*
X078344Y034421D01*
X078775Y037673D02*
X079202Y037673D01*
X079419Y037780D02*
X079846Y037780D01*
X080064Y037780D02*
X080064Y038421D01*
X080491Y037780D01*
X080491Y038421D01*
X080708Y038314D02*
X080708Y037887D01*
X080815Y037780D01*
X081028Y037780D01*
X081135Y037887D01*
X081353Y037780D02*
X081780Y038207D01*
X081780Y038314D01*
X081673Y038421D01*
X081460Y038421D01*
X081353Y038314D01*
X081135Y038314D02*
X081028Y038421D01*
X080815Y038421D01*
X080708Y038314D01*
X080778Y038566D02*
X080992Y038780D01*
X080885Y038780D01*
X080885Y038887D01*
X080992Y038887D01*
X080992Y038780D01*
X081208Y038887D02*
X081315Y038780D01*
X081528Y038780D01*
X081635Y038887D01*
X081635Y038994D01*
X081528Y039100D01*
X081422Y039100D01*
X081528Y039100D02*
X081635Y039207D01*
X081635Y039314D01*
X081528Y039421D01*
X081315Y039421D01*
X081208Y039314D01*
X081853Y039421D02*
X082066Y039207D01*
X082066Y038994D01*
X081853Y038780D01*
X081780Y037780D02*
X081353Y037780D01*
X080347Y038887D02*
X080347Y039314D01*
X080134Y039100D02*
X080561Y039100D01*
X079918Y038887D02*
X079811Y038887D01*
X079811Y038780D01*
X079918Y038780D01*
X079918Y038887D01*
X079918Y038780D02*
X079704Y038566D01*
X079846Y038421D02*
X079419Y038421D01*
X079419Y037780D01*
X079419Y038100D02*
X079633Y038100D01*
X079487Y039100D02*
X079060Y039100D01*
X078844Y038780D02*
X078630Y038994D01*
X078630Y039207D01*
X078844Y039421D01*
X078557Y038421D02*
X078557Y037887D01*
X078450Y037780D01*
X078237Y037780D01*
X078130Y037887D01*
X078130Y038421D01*
X083429Y038141D02*
X083429Y037714D01*
X084070Y037714D01*
X084070Y038141D01*
X083750Y037927D02*
X083750Y037714D01*
X083963Y037496D02*
X083429Y037496D01*
X083429Y037069D02*
X083963Y037069D01*
X084070Y037176D01*
X084070Y037389D01*
X083963Y037496D01*
X084070Y036852D02*
X084070Y036425D01*
X083429Y036425D01*
X083536Y036207D02*
X083429Y036100D01*
X083429Y035780D01*
X084070Y035780D01*
X084070Y036100D01*
X083963Y036207D01*
X083856Y036207D01*
X083750Y036100D01*
X083750Y035780D01*
X083750Y036100D02*
X083643Y036207D01*
X083536Y036207D01*
X086929Y035787D02*
X087143Y035573D01*
X087036Y040085D02*
X086929Y040192D01*
X086929Y040405D01*
X087036Y040512D01*
X087250Y040405D02*
X087250Y040298D01*
X087570Y043093D02*
X087356Y043306D01*
X077630Y054280D02*
X077630Y054921D01*
X084070Y028637D02*
X084070Y028210D01*
X084070Y028423D02*
X083429Y028423D01*
X083643Y028210D01*
X083429Y027994D02*
X083643Y027780D01*
X083856Y027780D01*
X084070Y027994D01*
X083141Y027207D02*
X082927Y027421D01*
X082709Y027314D02*
X082603Y027421D01*
X082389Y027421D01*
X082282Y027314D01*
X082709Y027314D02*
X082709Y027207D01*
X082282Y026780D01*
X082709Y026780D01*
X082927Y026780D02*
X083141Y026994D01*
X083141Y027207D01*
X082709Y027780D02*
X082282Y027780D01*
X082496Y027780D02*
X082496Y028421D01*
X082282Y028207D01*
X082065Y028314D02*
X081958Y028421D01*
X081745Y028421D01*
X081638Y028314D01*
X081638Y027887D01*
X081745Y027780D01*
X081958Y027780D01*
X082065Y027887D01*
X081420Y027780D02*
X081420Y028421D01*
X080993Y028421D02*
X081420Y027780D01*
X081315Y027421D02*
X081528Y027421D01*
X081635Y027314D01*
X081635Y027207D01*
X081528Y027100D01*
X081635Y026994D01*
X081635Y026887D01*
X081528Y026780D01*
X081315Y026780D01*
X081208Y026887D01*
X080992Y026887D02*
X080885Y026887D01*
X080885Y026780D01*
X080992Y026780D01*
X080992Y026887D01*
X080992Y026780D02*
X080778Y026566D01*
X080347Y026887D02*
X080347Y027314D01*
X080134Y027100D02*
X080561Y027100D01*
X079918Y026887D02*
X079811Y026887D01*
X079811Y026780D01*
X079918Y026780D01*
X079918Y026887D01*
X079918Y026780D02*
X079704Y026566D01*
X079487Y027100D02*
X079060Y027100D01*
X078844Y026780D02*
X078630Y026994D01*
X078630Y027207D01*
X078844Y027421D01*
X078950Y027780D02*
X078630Y027780D01*
X078630Y028421D01*
X078950Y028421D01*
X079057Y028314D01*
X079057Y028207D01*
X078950Y028100D01*
X078630Y028100D01*
X078950Y028100D02*
X079057Y027994D01*
X079057Y027887D01*
X078950Y027780D01*
X079275Y027780D02*
X079488Y027780D01*
X079381Y027780D02*
X079381Y028421D01*
X079275Y028421D02*
X079488Y028421D01*
X079704Y027673D02*
X080131Y027673D01*
X080349Y027780D02*
X080776Y027780D01*
X080993Y027780D02*
X080993Y028421D01*
X080776Y028421D02*
X080349Y028421D01*
X080349Y027780D01*
X080349Y028100D02*
X080562Y028100D01*
X081315Y027421D02*
X081208Y027314D01*
X081422Y027100D02*
X081528Y027100D01*
X081960Y026887D02*
X081960Y026780D01*
X082066Y026780D01*
X082066Y026887D01*
X081960Y026887D01*
X082066Y026780D02*
X081853Y026566D01*
X082026Y023921D02*
X082239Y023921D01*
X082346Y023814D01*
X081919Y023387D01*
X082026Y023280D01*
X082239Y023280D01*
X082346Y023387D01*
X082346Y023814D01*
X082564Y023707D02*
X082564Y023494D01*
X082777Y023280D01*
X082993Y023600D02*
X083420Y023600D01*
X083745Y023387D02*
X083745Y023280D01*
X083851Y023280D01*
X083851Y023387D01*
X083745Y023387D01*
X083851Y023280D02*
X083638Y023066D01*
X084068Y023280D02*
X084068Y023707D01*
X084281Y023921D01*
X084495Y023707D01*
X084495Y023280D01*
X084712Y023387D02*
X085139Y023814D01*
X085139Y023387D01*
X085032Y023280D01*
X084819Y023280D01*
X084712Y023387D01*
X084712Y023814D01*
X084819Y023921D01*
X085032Y023921D01*
X085139Y023814D01*
X085463Y023387D02*
X085463Y023280D01*
X085570Y023280D01*
X085570Y023387D01*
X085463Y023387D01*
X085570Y023280D02*
X085357Y023066D01*
X085786Y023280D02*
X085786Y023707D01*
X086000Y023921D01*
X086213Y023707D01*
X086213Y023280D01*
X086431Y023280D02*
X086858Y023280D01*
X086644Y023280D02*
X086644Y023921D01*
X086431Y023707D01*
X086213Y023600D02*
X085786Y023600D01*
X084495Y023600D02*
X084068Y023600D01*
X082777Y023921D02*
X082564Y023707D01*
X082026Y023921D02*
X081919Y023814D01*
X081919Y023387D01*
X081702Y023280D02*
X081275Y023280D01*
X081488Y023280D02*
X081488Y023921D01*
X081275Y023707D01*
X081057Y023921D02*
X081057Y023280D01*
X080630Y023280D02*
X080630Y023921D01*
X080844Y023707D01*
X081057Y023921D01*
X081057Y021421D02*
X081057Y020780D01*
X081275Y020887D02*
X081381Y020780D01*
X081595Y020780D01*
X081702Y020887D01*
X081702Y021100D01*
X081595Y021207D01*
X081488Y021207D01*
X081275Y021100D01*
X081275Y021421D01*
X081702Y021421D01*
X081919Y021207D02*
X082133Y021421D01*
X081919Y021207D02*
X081919Y020994D01*
X082133Y020780D01*
X082349Y020780D02*
X082776Y020780D01*
X082562Y020780D02*
X082562Y021421D01*
X082349Y021207D01*
X082993Y021314D02*
X083100Y021421D01*
X083314Y021421D01*
X083420Y021314D01*
X082993Y020887D01*
X083100Y020780D01*
X083314Y020780D01*
X083420Y020887D01*
X083420Y021314D01*
X082993Y021314D02*
X082993Y020887D01*
X083638Y020566D02*
X083851Y020780D01*
X083745Y020780D01*
X083745Y020887D01*
X083851Y020887D01*
X083851Y020780D01*
X084068Y020887D02*
X084174Y020780D01*
X084388Y020780D01*
X084495Y020887D01*
X084495Y020994D01*
X084388Y021100D01*
X084281Y021100D01*
X084388Y021100D02*
X084495Y021207D01*
X084495Y021314D01*
X084388Y021421D01*
X084174Y021421D01*
X084068Y021314D01*
X084712Y021314D02*
X084712Y021207D01*
X084819Y021100D01*
X085032Y021100D01*
X085139Y020994D01*
X085139Y020887D01*
X085032Y020780D01*
X084819Y020780D01*
X084712Y020887D01*
X084712Y020994D01*
X084819Y021100D01*
X085032Y021100D02*
X085139Y021207D01*
X085139Y021314D01*
X085032Y021421D01*
X084819Y021421D01*
X084712Y021314D01*
X085463Y020887D02*
X085463Y020780D01*
X085570Y020780D01*
X085570Y020887D01*
X085463Y020887D01*
X085570Y020780D02*
X085357Y020566D01*
X085786Y020887D02*
X085893Y020780D01*
X086107Y020780D01*
X086213Y020887D01*
X086213Y020994D01*
X086107Y021100D01*
X086000Y021100D01*
X086107Y021100D02*
X086213Y021207D01*
X086213Y021314D01*
X086107Y021421D01*
X085893Y021421D01*
X085786Y021314D01*
X086431Y021100D02*
X086751Y021100D01*
X086858Y020994D01*
X086858Y020887D01*
X086751Y020780D01*
X086538Y020780D01*
X086431Y020887D01*
X086431Y021100D01*
X086644Y021314D01*
X086858Y021421D01*
X087182Y020887D02*
X087182Y020780D01*
X087289Y020780D01*
X087289Y020887D01*
X087182Y020887D01*
X087289Y020780D02*
X087075Y020566D01*
X087505Y021100D02*
X087932Y021100D01*
X088150Y020780D02*
X088363Y020994D01*
X088363Y021207D01*
X088150Y021421D01*
X088150Y023280D02*
X088363Y023494D01*
X088363Y023707D01*
X088150Y023921D01*
X087932Y023814D02*
X087825Y023921D01*
X087612Y023921D01*
X087505Y023814D01*
X087505Y023707D01*
X087612Y023600D01*
X087932Y023600D01*
X087932Y023387D02*
X087932Y023814D01*
X087932Y023387D02*
X087825Y023280D01*
X087612Y023280D01*
X087505Y023387D01*
X087289Y023387D02*
X087182Y023387D01*
X087182Y023280D01*
X087289Y023280D01*
X087289Y023387D01*
X087289Y023280D02*
X087075Y023066D01*
X081057Y021421D02*
X080844Y021207D01*
X080630Y021421D01*
X080630Y020780D01*
X080363Y020994D02*
X080363Y021207D01*
X080150Y021421D01*
X079932Y021100D02*
X079505Y021100D01*
X079289Y020887D02*
X079182Y020887D01*
X079182Y020780D01*
X079289Y020780D01*
X079289Y020887D01*
X079289Y020780D02*
X079075Y020566D01*
X078751Y020780D02*
X078751Y021421D01*
X078431Y021100D01*
X078858Y021100D01*
X078213Y021207D02*
X078213Y021314D01*
X078107Y021421D01*
X077893Y021421D01*
X077786Y021314D01*
X078213Y021207D02*
X077786Y020780D01*
X078213Y020780D01*
X077570Y020780D02*
X077357Y020566D01*
X077463Y020780D02*
X077570Y020780D01*
X077570Y020887D01*
X077463Y020887D01*
X077463Y020780D01*
X077139Y020887D02*
X077139Y020994D01*
X077032Y021100D01*
X076712Y021100D01*
X076712Y020887D01*
X076819Y020780D01*
X077032Y020780D01*
X077139Y020887D01*
X076926Y021314D02*
X076712Y021100D01*
X076495Y021207D02*
X076495Y021314D01*
X076388Y021421D01*
X076174Y021421D01*
X076068Y021314D01*
X076495Y021207D02*
X076068Y020780D01*
X076495Y020780D01*
X075851Y020780D02*
X075745Y020780D01*
X075745Y020887D01*
X075851Y020887D01*
X075851Y020780D01*
X075638Y020566D01*
X075420Y020887D02*
X075314Y020780D01*
X075100Y020780D01*
X074993Y020887D01*
X074776Y020780D02*
X074349Y020780D01*
X074562Y020780D02*
X074562Y021421D01*
X074349Y021207D01*
X074133Y021421D02*
X073919Y021207D01*
X073919Y020994D01*
X074133Y020780D01*
X073702Y020780D02*
X073275Y020780D01*
X073702Y021207D01*
X073702Y021314D01*
X073595Y021421D01*
X073381Y021421D01*
X073275Y021314D01*
X073057Y021421D02*
X073057Y020780D01*
X072630Y020780D02*
X072630Y021421D01*
X072844Y021207D01*
X073057Y021421D01*
X074993Y021314D02*
X075100Y021421D01*
X075314Y021421D01*
X075420Y021314D01*
X075420Y021207D01*
X075314Y021100D01*
X075420Y020994D01*
X075420Y020887D01*
X075314Y021100D02*
X075207Y021100D01*
X076926Y021314D02*
X077139Y021421D01*
X077032Y018921D02*
X077139Y018814D01*
X076712Y018387D01*
X076819Y018280D01*
X077032Y018280D01*
X077139Y018387D01*
X077139Y018814D01*
X077032Y018921D02*
X076819Y018921D01*
X076712Y018814D01*
X076712Y018387D01*
X076495Y018387D02*
X076388Y018280D01*
X076174Y018280D01*
X076068Y018387D01*
X075851Y018387D02*
X075745Y018387D01*
X075745Y018280D01*
X075851Y018280D01*
X075851Y018387D01*
X075851Y018280D02*
X075638Y018066D01*
X075420Y018280D02*
X074993Y018280D01*
X075420Y018707D01*
X075420Y018814D01*
X075314Y018921D01*
X075100Y018921D01*
X074993Y018814D01*
X074562Y018921D02*
X074562Y018280D01*
X074349Y018280D02*
X074776Y018280D01*
X074349Y018707D02*
X074562Y018921D01*
X074133Y018921D02*
X073919Y018707D01*
X073919Y018494D01*
X074133Y018280D01*
X073702Y018387D02*
X073595Y018280D01*
X073381Y018280D01*
X073275Y018387D01*
X073057Y018280D02*
X073057Y018921D01*
X072844Y018707D01*
X072630Y018921D01*
X072630Y018280D01*
X073275Y018814D02*
X073381Y018921D01*
X073595Y018921D01*
X073702Y018814D01*
X073702Y018707D01*
X073595Y018600D01*
X073702Y018494D01*
X073702Y018387D01*
X073595Y018600D02*
X073488Y018600D01*
X076068Y018814D02*
X076174Y018921D01*
X076388Y018921D01*
X076495Y018814D01*
X076495Y018707D01*
X076388Y018600D01*
X076495Y018494D01*
X076495Y018387D01*
X076388Y018600D02*
X076281Y018600D01*
X077357Y018066D02*
X077570Y018280D01*
X077463Y018280D01*
X077463Y018387D01*
X077570Y018387D01*
X077570Y018280D01*
X077786Y018280D02*
X078213Y018707D01*
X078213Y018814D01*
X078107Y018921D01*
X077893Y018921D01*
X077786Y018814D01*
X077786Y018280D02*
X078213Y018280D01*
X078431Y018387D02*
X078431Y018494D01*
X078538Y018600D01*
X078751Y018600D01*
X078858Y018494D01*
X078858Y018387D01*
X078751Y018280D01*
X078538Y018280D01*
X078431Y018387D01*
X078538Y018600D02*
X078431Y018707D01*
X078431Y018814D01*
X078538Y018921D01*
X078751Y018921D01*
X078858Y018814D01*
X078858Y018707D01*
X078751Y018600D01*
X079182Y018387D02*
X079182Y018280D01*
X079289Y018280D01*
X079289Y018387D01*
X079182Y018387D01*
X079289Y018280D02*
X079075Y018066D01*
X079505Y018600D02*
X079932Y018600D01*
X080150Y018280D02*
X080363Y018494D01*
X080363Y018707D01*
X080150Y018921D01*
X080150Y020780D02*
X080363Y020994D01*
X080630Y014421D02*
X080844Y014207D01*
X081057Y014421D01*
X081057Y013780D01*
X081275Y014100D02*
X081702Y014100D01*
X081919Y013994D02*
X081919Y014207D01*
X082133Y014421D01*
X082349Y014207D02*
X082562Y014421D01*
X082562Y013780D01*
X082349Y013780D02*
X082776Y013780D01*
X082993Y013780D02*
X083420Y013780D01*
X083207Y013780D02*
X083207Y014421D01*
X082993Y014207D01*
X083745Y013887D02*
X083745Y013780D01*
X083851Y013780D01*
X083851Y013887D01*
X083745Y013887D01*
X083851Y013780D02*
X083638Y013566D01*
X084068Y013887D02*
X084174Y013780D01*
X084388Y013780D01*
X084495Y013887D01*
X084495Y013994D01*
X084388Y014100D01*
X084281Y014100D01*
X084388Y014100D02*
X084495Y014207D01*
X084495Y014314D01*
X084388Y014421D01*
X084174Y014421D01*
X084068Y014314D01*
X084712Y014100D02*
X085139Y014100D01*
X085032Y013780D02*
X085032Y014421D01*
X084712Y014100D01*
X085463Y013887D02*
X085463Y013780D01*
X085570Y013780D01*
X085570Y013887D01*
X085463Y013887D01*
X085570Y013780D02*
X085357Y013566D01*
X085786Y013887D02*
X085893Y013780D01*
X086107Y013780D01*
X086213Y013887D01*
X086213Y013994D01*
X086107Y014100D01*
X086000Y014100D01*
X086107Y014100D02*
X086213Y014207D01*
X086213Y014314D01*
X086107Y014421D01*
X085893Y014421D01*
X085786Y014314D01*
X086431Y014314D02*
X086538Y014421D01*
X086751Y014421D01*
X086858Y014314D01*
X086858Y014207D01*
X086431Y013780D01*
X086858Y013780D01*
X087075Y013566D02*
X087289Y013780D01*
X087182Y013780D01*
X087182Y013887D01*
X087289Y013887D01*
X087289Y013780D01*
X087505Y014100D02*
X087932Y014100D01*
X088150Y013780D02*
X088363Y013994D01*
X088363Y014207D01*
X088150Y014421D01*
X086028Y011921D02*
X086135Y011814D01*
X086135Y011707D01*
X086028Y011600D01*
X086135Y011494D01*
X086135Y011387D01*
X086028Y011280D01*
X085815Y011280D01*
X085708Y011387D01*
X085922Y011600D02*
X086028Y011600D01*
X086028Y011921D02*
X085815Y011921D01*
X085708Y011814D01*
X085491Y011814D02*
X085491Y011600D01*
X085384Y011494D01*
X085064Y011494D01*
X085064Y011280D02*
X085064Y011921D01*
X085384Y011921D01*
X085491Y011814D01*
X084846Y011921D02*
X084846Y011280D01*
X084419Y011280D02*
X084419Y011921D01*
X084633Y011707D01*
X084846Y011921D01*
X084202Y011921D02*
X084202Y011387D01*
X084095Y011280D01*
X083881Y011280D01*
X083775Y011387D01*
X083775Y011921D01*
X083557Y011814D02*
X083557Y011707D01*
X083450Y011600D01*
X083130Y011600D01*
X083130Y011280D02*
X083450Y011280D01*
X083557Y011387D01*
X083557Y011494D01*
X083450Y011600D01*
X083557Y011814D02*
X083450Y011921D01*
X083130Y011921D01*
X083130Y011280D01*
X083344Y009421D02*
X083130Y009207D01*
X083130Y008994D01*
X083344Y008780D01*
X083560Y009100D02*
X083987Y009100D01*
X084204Y008887D02*
X084631Y009314D01*
X084631Y008887D01*
X084525Y008780D01*
X084311Y008780D01*
X084204Y008887D01*
X084204Y009314D01*
X084311Y009421D01*
X084525Y009421D01*
X084631Y009314D01*
X084956Y008887D02*
X084956Y008780D01*
X085062Y008780D01*
X085062Y008887D01*
X084956Y008887D01*
X085062Y008780D02*
X084849Y008566D01*
X085278Y009100D02*
X085706Y009100D01*
X085492Y008887D02*
X085492Y009314D01*
X086030Y008887D02*
X086030Y008780D01*
X086137Y008780D01*
X086137Y008887D01*
X086030Y008887D01*
X086137Y008780D02*
X085923Y008566D01*
X086353Y009100D02*
X086780Y009100D01*
X086997Y008780D02*
X087211Y008994D01*
X087211Y009207D01*
X086997Y009421D01*
X086028Y007421D02*
X085708Y007100D01*
X086135Y007100D01*
X086028Y006780D02*
X086028Y007421D01*
X085491Y007314D02*
X085491Y007100D01*
X085384Y006994D01*
X085064Y006994D01*
X085064Y006780D02*
X085064Y007421D01*
X085384Y007421D01*
X085491Y007314D01*
X084846Y007421D02*
X084846Y006780D01*
X084419Y006780D02*
X084419Y007421D01*
X084633Y007207D01*
X084846Y007421D01*
X084202Y007421D02*
X084202Y006887D01*
X084095Y006780D01*
X083881Y006780D01*
X083775Y006887D01*
X083775Y007421D01*
X083557Y007314D02*
X083557Y007207D01*
X083450Y007100D01*
X083130Y007100D01*
X083130Y006780D02*
X083130Y007421D01*
X083450Y007421D01*
X083557Y007314D01*
X083450Y007100D02*
X083557Y006994D01*
X083557Y006887D01*
X083450Y006780D01*
X083130Y006780D01*
X083344Y004921D02*
X083130Y004707D01*
X083130Y004494D01*
X083344Y004280D01*
X083560Y004600D02*
X083987Y004600D01*
X084204Y004814D02*
X084311Y004921D01*
X084525Y004921D01*
X084631Y004814D01*
X084631Y004707D01*
X084204Y004280D01*
X084631Y004280D01*
X084849Y004066D02*
X085062Y004280D01*
X084956Y004280D01*
X084956Y004387D01*
X085062Y004387D01*
X085062Y004280D01*
X085278Y004600D02*
X085706Y004600D01*
X085492Y004387D02*
X085492Y004814D01*
X086030Y004387D02*
X086030Y004280D01*
X086137Y004280D01*
X086137Y004387D01*
X086030Y004387D01*
X086137Y004280D02*
X085923Y004066D01*
X086353Y004600D02*
X086780Y004600D01*
X086997Y004280D02*
X087211Y004494D01*
X087211Y004707D01*
X086997Y004921D01*
X083880Y004921D02*
X083560Y004600D01*
X083880Y004280D02*
X083880Y004921D01*
X080711Y004707D02*
X080497Y004921D01*
X080711Y004707D02*
X080711Y004494D01*
X080497Y004280D01*
X080280Y004600D02*
X079853Y004600D01*
X079637Y004387D02*
X079530Y004387D01*
X079530Y004280D01*
X079637Y004280D01*
X079637Y004387D01*
X079637Y004280D02*
X079423Y004066D01*
X078992Y004387D02*
X078992Y004814D01*
X078778Y004600D02*
X079206Y004600D01*
X078562Y004387D02*
X078456Y004387D01*
X078456Y004280D01*
X078562Y004280D01*
X078562Y004387D01*
X078562Y004280D02*
X078349Y004066D01*
X078131Y004387D02*
X078131Y004494D01*
X078025Y004600D01*
X077704Y004600D01*
X077704Y004387D01*
X077811Y004280D01*
X078025Y004280D01*
X078131Y004387D01*
X077918Y004814D02*
X077704Y004600D01*
X077487Y004600D02*
X077060Y004600D01*
X077380Y004921D01*
X077380Y004280D01*
X076844Y004280D02*
X076630Y004494D01*
X076630Y004707D01*
X076844Y004921D01*
X077918Y004814D02*
X078131Y004921D01*
X077919Y006780D02*
X077919Y007421D01*
X078133Y007207D01*
X078346Y007421D01*
X078346Y006780D01*
X078564Y006780D02*
X078564Y007421D01*
X078884Y007421D01*
X078991Y007314D01*
X078991Y007100D01*
X078884Y006994D01*
X078564Y006994D01*
X079208Y006780D02*
X079635Y007207D01*
X079635Y007314D01*
X079528Y007421D01*
X079315Y007421D01*
X079208Y007314D01*
X079208Y006780D02*
X079635Y006780D01*
X079423Y008566D02*
X079637Y008780D01*
X079530Y008780D01*
X079530Y008887D01*
X079637Y008887D01*
X079637Y008780D01*
X079853Y009100D02*
X080280Y009100D01*
X080497Y008780D02*
X080711Y008994D01*
X080711Y009207D01*
X080497Y009421D01*
X079206Y009100D02*
X078778Y009100D01*
X078992Y008887D02*
X078992Y009314D01*
X078562Y008887D02*
X078456Y008887D01*
X078456Y008780D01*
X078562Y008780D01*
X078562Y008887D01*
X078562Y008780D02*
X078349Y008566D01*
X078025Y008780D02*
X078025Y009421D01*
X077704Y009100D01*
X078131Y009100D01*
X077487Y009100D02*
X077060Y009100D01*
X077380Y009421D01*
X077380Y008780D01*
X076844Y008780D02*
X076630Y008994D01*
X076630Y009207D01*
X076844Y009421D01*
X076950Y011280D02*
X076630Y011280D01*
X076630Y011921D01*
X076950Y011921D01*
X077057Y011814D01*
X077057Y011707D01*
X076950Y011600D01*
X076630Y011600D01*
X076950Y011600D02*
X077057Y011494D01*
X077057Y011387D01*
X076950Y011280D01*
X077275Y011387D02*
X077381Y011280D01*
X077595Y011280D01*
X077702Y011387D01*
X077702Y011921D01*
X077919Y011921D02*
X078133Y011707D01*
X078346Y011921D01*
X078346Y011280D01*
X078564Y011280D02*
X078564Y011921D01*
X078884Y011921D01*
X078991Y011814D01*
X078991Y011600D01*
X078884Y011494D01*
X078564Y011494D01*
X079208Y011707D02*
X079422Y011921D01*
X079422Y011280D01*
X079635Y011280D02*
X079208Y011280D01*
X077919Y011280D02*
X077919Y011921D01*
X077275Y011921D02*
X077275Y011387D01*
X077275Y007421D02*
X077275Y006887D01*
X077381Y006780D01*
X077595Y006780D01*
X077702Y006887D01*
X077702Y007421D01*
X077057Y007314D02*
X077057Y007207D01*
X076950Y007100D01*
X076630Y007100D01*
X076630Y006780D02*
X076630Y007421D01*
X076950Y007421D01*
X077057Y007314D01*
X076950Y007100D02*
X077057Y006994D01*
X077057Y006887D01*
X076950Y006780D01*
X076630Y006780D01*
X083560Y009100D02*
X083880Y009421D01*
X083880Y008780D01*
X082133Y013780D02*
X081919Y013994D01*
X081595Y013780D02*
X081595Y014421D01*
X081275Y014100D01*
X080630Y013780D02*
X080630Y014421D01*
X059270Y009850D02*
X059056Y010064D01*
X058843Y010064D01*
X058629Y009850D01*
X058736Y009633D02*
X058629Y009526D01*
X058629Y009312D01*
X058736Y009206D01*
X058629Y008988D02*
X058629Y008561D01*
X058950Y008561D01*
X058843Y008775D01*
X058843Y008881D01*
X058950Y008988D01*
X059163Y008988D01*
X059270Y008881D01*
X059270Y008668D01*
X059163Y008561D01*
X059163Y008345D02*
X059163Y008238D01*
X059270Y008238D01*
X059270Y008345D01*
X059163Y008345D01*
X059270Y008345D02*
X059484Y008131D01*
X059163Y007914D02*
X059270Y007807D01*
X059270Y007594D01*
X059163Y007487D01*
X058736Y007914D01*
X059163Y007914D01*
X058736Y007914D02*
X058629Y007807D01*
X058629Y007594D01*
X058736Y007487D01*
X059163Y007487D01*
X059163Y007269D02*
X059270Y007163D01*
X059270Y006949D01*
X059163Y006842D01*
X058950Y006842D02*
X058843Y007056D01*
X058843Y007163D01*
X058950Y007269D01*
X059163Y007269D01*
X058950Y006842D02*
X058629Y006842D01*
X058629Y007269D01*
X059163Y006626D02*
X059163Y006519D01*
X059270Y006519D01*
X059270Y006626D01*
X059163Y006626D01*
X059270Y006626D02*
X059484Y006413D01*
X059163Y006195D02*
X059270Y006088D01*
X059270Y005875D01*
X059163Y005768D01*
X059056Y005768D01*
X058950Y005875D01*
X058950Y006088D01*
X059056Y006195D01*
X059163Y006195D01*
X058950Y006088D02*
X058843Y006195D01*
X058736Y006195D01*
X058629Y006088D01*
X058629Y005875D01*
X058736Y005768D01*
X058843Y005768D01*
X058950Y005875D01*
X058950Y005551D02*
X058950Y005124D01*
X058629Y005444D01*
X059270Y005444D01*
X059270Y004907D02*
X059056Y004694D01*
X058843Y004694D01*
X058629Y004907D01*
X059270Y009206D02*
X058843Y009633D01*
X058736Y009633D01*
X059270Y009633D02*
X059270Y009206D01*
X057412Y013580D02*
X056985Y013580D01*
X057412Y014007D01*
X057412Y014114D01*
X057306Y014221D01*
X057092Y014221D01*
X056985Y014114D01*
X056768Y013473D02*
X056341Y013473D01*
X056123Y013687D02*
X056017Y013580D01*
X055803Y013580D01*
X055696Y013687D01*
X055479Y013687D02*
X055372Y013580D01*
X055159Y013580D01*
X055052Y013687D01*
X055479Y014114D01*
X055479Y013687D01*
X055479Y014114D02*
X055372Y014221D01*
X055159Y014221D01*
X055052Y014114D01*
X055052Y013687D01*
X054834Y013687D02*
X054834Y014114D01*
X054407Y013687D01*
X054514Y013580D01*
X054728Y013580D01*
X054834Y013687D01*
X054407Y013687D02*
X054407Y014114D01*
X054514Y014221D01*
X054728Y014221D01*
X054834Y014114D01*
X054190Y014114D02*
X054083Y014221D01*
X053869Y014221D01*
X053763Y014114D01*
X053545Y014221D02*
X053545Y013580D01*
X053118Y014221D01*
X053118Y013580D01*
X052901Y013580D02*
X052474Y013580D01*
X052474Y014221D01*
X052256Y014221D02*
X052256Y013687D01*
X052149Y013580D01*
X051936Y013580D01*
X051829Y013687D01*
X051829Y014221D01*
X053763Y013580D02*
X054190Y014007D01*
X054190Y014114D01*
X054190Y013580D02*
X053763Y013580D01*
X055696Y014114D02*
X055803Y014221D01*
X056017Y014221D01*
X056123Y014114D01*
X056123Y014007D01*
X056017Y013900D01*
X056123Y013794D01*
X056123Y013687D01*
X056017Y013900D02*
X055910Y013900D01*
X050239Y011921D02*
X050239Y011280D01*
X050346Y011600D02*
X049919Y011600D01*
X050239Y011921D01*
X049702Y011921D02*
X049702Y011280D01*
X049275Y011921D01*
X049275Y011280D01*
X049057Y011600D02*
X048950Y011494D01*
X048630Y011494D01*
X048630Y011280D02*
X048630Y011921D01*
X048950Y011921D01*
X049057Y011814D01*
X049057Y011600D01*
X048950Y007421D02*
X049057Y007314D01*
X049057Y007100D01*
X048950Y006994D01*
X048630Y006994D01*
X048630Y006780D02*
X048630Y007421D01*
X048950Y007421D01*
X049275Y007421D02*
X049702Y006780D01*
X049702Y007421D01*
X049919Y007421D02*
X049919Y007100D01*
X050133Y007207D01*
X050239Y007207D01*
X050346Y007100D01*
X050346Y006887D01*
X050239Y006780D01*
X050026Y006780D01*
X049919Y006887D01*
X049919Y007421D02*
X050346Y007421D01*
X049275Y007421D02*
X049275Y006780D01*
X046280Y004921D02*
X045853Y004921D01*
X045853Y004600D01*
X046066Y004707D01*
X046173Y004707D01*
X046280Y004600D01*
X046280Y004387D01*
X046173Y004280D01*
X045960Y004280D01*
X045853Y004387D01*
X045635Y004387D02*
X045528Y004280D01*
X045315Y004280D01*
X045208Y004387D01*
X045635Y004814D01*
X045635Y004387D01*
X045635Y004814D02*
X045528Y004921D01*
X045315Y004921D01*
X045208Y004814D01*
X045208Y004387D01*
X044991Y004387D02*
X044884Y004280D01*
X044670Y004280D01*
X044564Y004387D01*
X044564Y004494D01*
X044670Y004600D01*
X044884Y004600D01*
X044991Y004494D01*
X044991Y004387D01*
X044884Y004600D02*
X044991Y004707D01*
X044991Y004814D01*
X044884Y004921D01*
X044670Y004921D01*
X044564Y004814D01*
X044564Y004707D01*
X044670Y004600D01*
X044346Y004814D02*
X043919Y004387D01*
X043919Y004280D01*
X043702Y004280D02*
X043702Y004921D01*
X043488Y004707D01*
X043275Y004921D01*
X043275Y004280D01*
X043057Y004280D02*
X042630Y004280D01*
X042630Y004921D01*
X043919Y004921D02*
X044346Y004921D01*
X044346Y004814D01*
X048630Y002921D02*
X048950Y002921D01*
X049057Y002814D01*
X049057Y002600D01*
X048950Y002494D01*
X048630Y002494D01*
X048630Y002280D02*
X048630Y002921D01*
X049275Y002921D02*
X049702Y002280D01*
X049702Y002921D01*
X049919Y002600D02*
X050239Y002600D01*
X050346Y002494D01*
X050346Y002387D01*
X050239Y002280D01*
X050026Y002280D01*
X049919Y002387D01*
X049919Y002600D01*
X050133Y002814D01*
X050346Y002921D01*
X049275Y002921D02*
X049275Y002280D01*
X038135Y018280D02*
X037708Y018280D01*
X037708Y018921D01*
X037491Y018921D02*
X037064Y018921D01*
X037064Y018280D01*
X037491Y018280D01*
X037277Y018600D02*
X037064Y018600D01*
X036846Y018600D02*
X036739Y018494D01*
X036419Y018494D01*
X036633Y018494D02*
X036846Y018280D01*
X036846Y018600D02*
X036846Y018814D01*
X036739Y018921D01*
X036419Y018921D01*
X036419Y018280D01*
X036202Y018280D02*
X035775Y018280D01*
X036202Y018707D01*
X036202Y018814D01*
X036095Y018921D01*
X035881Y018921D01*
X035775Y018814D01*
X035344Y018921D02*
X035344Y018280D01*
X035557Y018280D02*
X035130Y018280D01*
X035130Y018707D02*
X035344Y018921D01*
X035737Y023280D02*
X035950Y023280D01*
X036057Y023387D01*
X036057Y023814D01*
X035950Y023921D01*
X035737Y023921D01*
X035630Y023814D01*
X035630Y023707D01*
X035737Y023600D01*
X036057Y023600D01*
X036275Y023494D02*
X036595Y023494D01*
X036702Y023600D01*
X036702Y023814D01*
X036595Y023921D01*
X036275Y023921D01*
X036275Y023280D01*
X036488Y023494D02*
X036702Y023280D01*
X036919Y023280D02*
X037346Y023280D01*
X037564Y023280D02*
X037991Y023280D01*
X037564Y023280D02*
X037564Y023921D01*
X037346Y023921D02*
X036919Y023921D01*
X036919Y023280D01*
X036919Y023600D02*
X037133Y023600D01*
X035737Y023280D02*
X035630Y023387D01*
X035737Y027780D02*
X035950Y027780D01*
X036057Y027887D01*
X036057Y027994D01*
X035950Y028100D01*
X035630Y028100D01*
X035630Y027887D01*
X035737Y027780D01*
X035630Y028100D02*
X035844Y028314D01*
X036057Y028421D01*
X036275Y028421D02*
X036595Y028421D01*
X036702Y028314D01*
X036702Y028100D01*
X036595Y027994D01*
X036275Y027994D01*
X036488Y027994D02*
X036702Y027780D01*
X036919Y027780D02*
X037346Y027780D01*
X037564Y027780D02*
X037991Y027780D01*
X037564Y027780D02*
X037564Y028421D01*
X037346Y028421D02*
X036919Y028421D01*
X036919Y027780D01*
X036919Y028100D02*
X037133Y028100D01*
X036275Y027780D02*
X036275Y028421D01*
X036280Y030280D02*
X035853Y030280D01*
X035853Y030921D01*
X036280Y030921D01*
X036497Y030921D02*
X036497Y030280D01*
X036818Y030280D01*
X036924Y030387D01*
X036924Y030814D01*
X036818Y030921D01*
X036497Y030921D01*
X036066Y030600D02*
X035853Y030600D01*
X035635Y030280D02*
X035208Y030280D01*
X035208Y030921D01*
X034991Y030173D02*
X034564Y030173D01*
X034346Y030387D02*
X034346Y030814D01*
X034239Y030921D01*
X033919Y030921D01*
X033919Y030280D01*
X034239Y030280D01*
X034346Y030387D01*
X033702Y030280D02*
X033488Y030494D01*
X033595Y030494D02*
X033275Y030494D01*
X033275Y030280D02*
X033275Y030921D01*
X033595Y030921D01*
X033702Y030814D01*
X033702Y030600D01*
X033595Y030494D01*
X033057Y030600D02*
X032630Y030600D01*
X032630Y030707D02*
X032844Y030921D01*
X033057Y030707D01*
X033057Y030280D01*
X032630Y030280D02*
X032630Y030707D01*
X037236Y036913D02*
X037343Y036913D01*
X037450Y037019D01*
X037450Y037233D01*
X037556Y037340D01*
X037663Y037340D01*
X037770Y037233D01*
X037770Y037019D01*
X037663Y036913D01*
X037236Y036913D02*
X037129Y037019D01*
X037129Y037233D01*
X037236Y037340D01*
X037129Y037557D02*
X037770Y037557D01*
X037450Y037557D02*
X037450Y037984D01*
X037450Y038202D02*
X037450Y038629D01*
X037343Y038629D02*
X037770Y038629D01*
X037770Y038846D02*
X037129Y038846D01*
X037129Y039167D01*
X037236Y039273D01*
X037450Y039273D01*
X037556Y039167D01*
X037556Y038846D01*
X037556Y039060D02*
X037770Y039273D01*
X037770Y039491D02*
X037129Y039491D01*
X037129Y039811D01*
X037236Y039918D01*
X037450Y039918D01*
X037556Y039811D01*
X037556Y039491D01*
X037343Y040135D02*
X037129Y040349D01*
X037770Y040349D01*
X037770Y040562D02*
X037770Y040135D01*
X037343Y038629D02*
X037129Y038415D01*
X037343Y038202D01*
X037770Y038202D01*
X037770Y037984D02*
X037129Y037984D01*
X039429Y037494D02*
X039643Y037280D01*
X039856Y037280D01*
X040070Y037494D01*
X039750Y037710D02*
X039750Y038137D01*
X039963Y037923D02*
X039536Y037923D01*
X039963Y038461D02*
X040070Y038461D01*
X040070Y038568D01*
X039963Y038568D01*
X039963Y038461D01*
X040070Y038568D02*
X040284Y038354D01*
X039750Y038784D02*
X039750Y039211D01*
X039963Y039535D02*
X040070Y039535D01*
X040070Y039642D01*
X039963Y039642D01*
X039963Y039535D01*
X040070Y039642D02*
X040284Y039428D01*
X040070Y039858D02*
X039643Y039858D01*
X039429Y040072D01*
X039643Y040285D01*
X040070Y040285D01*
X040070Y040503D02*
X039643Y040930D01*
X039536Y040930D01*
X039429Y040823D01*
X039429Y040610D01*
X039536Y040503D01*
X039750Y040285D02*
X039750Y039858D01*
X040070Y040503D02*
X040070Y040930D01*
X040070Y041147D02*
X039856Y041361D01*
X039643Y041361D01*
X039429Y041147D01*
X033270Y038202D02*
X032843Y038202D01*
X032629Y038415D01*
X032843Y038629D01*
X032629Y037984D02*
X033270Y037984D01*
X025070Y034425D02*
X024429Y034425D01*
X024429Y034852D01*
X024750Y034638D02*
X024750Y034425D01*
X025070Y033780D02*
X024429Y033780D01*
X023211Y037814D02*
X023424Y037921D01*
X022780Y042100D02*
X022353Y042100D01*
X021706Y042100D02*
X021385Y042100D01*
X021278Y042207D01*
X021278Y042314D01*
X021385Y042421D01*
X021599Y042421D01*
X021706Y042314D01*
X021706Y041887D01*
X021599Y041780D01*
X021385Y041780D01*
X021278Y041887D01*
X021061Y041780D02*
X021061Y042207D01*
X020847Y042421D01*
X020634Y042207D01*
X020634Y041780D01*
X020418Y041780D02*
X020311Y041780D01*
X020311Y041887D01*
X020418Y041887D01*
X020418Y041780D01*
X020204Y041566D01*
X019987Y042100D02*
X019560Y042100D01*
X019344Y041780D02*
X019130Y041994D01*
X019130Y042207D01*
X019344Y042421D01*
X020634Y042100D02*
X021061Y042100D01*
X022985Y044080D02*
X023412Y044507D01*
X023412Y044614D01*
X023412Y044080D02*
X022985Y044080D01*
X040630Y028314D02*
X040630Y027887D01*
X040737Y027780D01*
X040950Y027780D01*
X041057Y027887D01*
X041057Y028100D01*
X040844Y028100D01*
X041057Y028314D02*
X040950Y028421D01*
X040737Y028421D01*
X040630Y028314D01*
X041275Y028421D02*
X041702Y027780D01*
X041702Y028421D01*
X041919Y028421D02*
X042239Y028421D01*
X042346Y028314D01*
X042346Y027887D01*
X042239Y027780D01*
X041919Y027780D01*
X041919Y028421D01*
X041275Y028421D02*
X041275Y027780D01*
X042564Y027780D02*
X042564Y028421D01*
X042884Y028421D01*
X042991Y028314D01*
X042991Y028100D01*
X042884Y027994D01*
X042564Y027994D01*
X042777Y027994D02*
X042991Y027780D01*
X043208Y027780D02*
X043635Y027780D01*
X043853Y027780D02*
X044280Y027780D01*
X043853Y027780D02*
X043853Y028421D01*
X043635Y028421D02*
X043208Y028421D01*
X043208Y027780D01*
X043208Y028100D02*
X043422Y028100D01*
X043564Y023921D02*
X043884Y023921D01*
X043991Y023814D01*
X043991Y023600D01*
X043884Y023494D01*
X043564Y023494D01*
X043777Y023494D02*
X043991Y023280D01*
X044208Y023280D02*
X044208Y023921D01*
X044635Y023921D01*
X044853Y023921D02*
X044853Y023280D01*
X045280Y023280D01*
X044635Y023280D02*
X044208Y023280D01*
X044208Y023600D02*
X044422Y023600D01*
X043564Y023280D02*
X043564Y023921D01*
X043346Y023814D02*
X043346Y023600D01*
X043239Y023494D01*
X042919Y023494D01*
X043133Y023494D02*
X043346Y023280D01*
X042919Y023280D02*
X042919Y023921D01*
X043239Y023921D01*
X043346Y023814D01*
X042702Y023707D02*
X042702Y023280D01*
X042702Y023600D02*
X042275Y023600D01*
X042275Y023707D02*
X042275Y023280D01*
X042057Y023494D02*
X042057Y023921D01*
X042275Y023707D02*
X042488Y023921D01*
X042702Y023707D01*
X042057Y023494D02*
X041844Y023280D01*
X041630Y023494D01*
X041630Y023921D01*
X042130Y019421D02*
X042130Y019100D01*
X042344Y019207D01*
X042450Y019207D01*
X042557Y019100D01*
X042557Y018887D01*
X042450Y018780D01*
X042237Y018780D01*
X042130Y018887D01*
X042130Y019421D02*
X042557Y019421D01*
X042775Y019421D02*
X043095Y019421D01*
X043202Y019314D01*
X043202Y019100D01*
X043095Y018994D01*
X042775Y018994D01*
X042988Y018994D02*
X043202Y018780D01*
X043419Y018780D02*
X043846Y018780D01*
X044064Y018780D02*
X044491Y018780D01*
X044064Y018780D02*
X044064Y019421D01*
X043846Y019421D02*
X043419Y019421D01*
X043419Y018780D01*
X043419Y019100D02*
X043633Y019100D01*
X042775Y018780D02*
X042775Y019421D01*
X030846Y018814D02*
X030846Y018600D01*
X030739Y018494D01*
X030419Y018494D01*
X030633Y018494D02*
X030846Y018280D01*
X030419Y018280D02*
X030419Y018921D01*
X030739Y018921D01*
X030846Y018814D01*
X030202Y018707D02*
X030202Y018280D01*
X030202Y018600D02*
X029775Y018600D01*
X029775Y018707D02*
X029988Y018921D01*
X030202Y018707D01*
X029775Y018707D02*
X029775Y018280D01*
X029557Y018494D02*
X029557Y018921D01*
X029130Y018921D02*
X029130Y018494D01*
X029344Y018280D01*
X029557Y018494D01*
X029557Y014921D02*
X029130Y014921D01*
X029130Y014600D01*
X029344Y014707D01*
X029450Y014707D01*
X029557Y014600D01*
X029557Y014387D01*
X029450Y014280D01*
X029237Y014280D01*
X029130Y014387D01*
X029557Y010921D02*
X029344Y010814D01*
X029130Y010600D01*
X029450Y010600D01*
X029557Y010494D01*
X029557Y010387D01*
X029450Y010280D01*
X029237Y010280D01*
X029130Y010387D01*
X029130Y010600D01*
X029237Y007421D02*
X029130Y007314D01*
X029130Y007207D01*
X029237Y007100D01*
X029557Y007100D01*
X029557Y006887D02*
X029557Y007314D01*
X029450Y007421D01*
X029237Y007421D01*
X029130Y006887D02*
X029237Y006780D01*
X029450Y006780D01*
X029557Y006887D01*
X029344Y003921D02*
X029344Y003280D01*
X029557Y003280D02*
X029130Y003280D01*
X029130Y003707D02*
X029344Y003921D01*
X029775Y003814D02*
X029881Y003921D01*
X030095Y003921D01*
X030202Y003814D01*
X030202Y003707D01*
X029775Y003280D01*
X030202Y003280D01*
X008233Y078630D02*
X008446Y078844D01*
X008446Y079271D01*
X008019Y079271D02*
X008019Y078844D01*
X008233Y078630D01*
X007802Y078630D02*
X007375Y078630D01*
X007802Y079057D01*
X007802Y079164D01*
X007695Y079271D01*
X007481Y079271D01*
X007375Y079164D01*
X006944Y079271D02*
X006944Y078630D01*
X007157Y078630D02*
X006730Y078630D01*
X006730Y079057D02*
X006944Y079271D01*
D11*
X013139Y086190D02*
X013139Y086650D01*
X013293Y086804D01*
X013600Y086804D01*
X013753Y086650D01*
X013753Y086190D01*
X014060Y086190D02*
X013139Y086190D01*
X013293Y087111D02*
X013907Y087111D01*
X014060Y087264D01*
X014060Y087571D01*
X013907Y087725D01*
X013600Y088032D02*
X013600Y088645D01*
X014060Y088492D02*
X013139Y088492D01*
X013600Y088032D01*
X013293Y087725D02*
X013139Y087571D01*
X013139Y087264D01*
X013293Y087111D01*
X017639Y087264D02*
X017793Y087111D01*
X018407Y087111D01*
X018560Y087264D01*
X018560Y087571D01*
X018407Y087725D01*
X018407Y088032D02*
X018560Y088185D01*
X018560Y088492D01*
X018407Y088645D01*
X018253Y088645D01*
X018100Y088492D01*
X018100Y088339D01*
X018100Y088492D02*
X017946Y088645D01*
X017793Y088645D01*
X017639Y088492D01*
X017639Y088185D01*
X017793Y088032D01*
X017793Y087725D02*
X017639Y087571D01*
X017639Y087264D01*
X017793Y086804D02*
X017639Y086650D01*
X017639Y086190D01*
X018560Y086190D01*
X018253Y086190D02*
X018253Y086650D01*
X018100Y086804D01*
X017793Y086804D01*
X022139Y086650D02*
X022293Y086804D01*
X022600Y086804D01*
X022753Y086650D01*
X022753Y086190D01*
X023060Y086190D02*
X022139Y086190D01*
X022139Y086650D01*
X022293Y087111D02*
X022907Y087111D01*
X023060Y087264D01*
X023060Y087571D01*
X022907Y087725D01*
X023060Y088032D02*
X022446Y088645D01*
X022293Y088645D01*
X022139Y088492D01*
X022139Y088185D01*
X022293Y088032D01*
X022293Y087725D02*
X022139Y087571D01*
X022139Y087264D01*
X022293Y087111D01*
X023060Y088032D02*
X023060Y088645D01*
X023377Y068561D02*
X023377Y068100D01*
X023683Y068254D01*
X023837Y068254D01*
X023990Y068100D01*
X023990Y067793D01*
X023837Y067640D01*
X023530Y067640D01*
X023377Y067793D01*
X023070Y067793D02*
X022916Y067793D01*
X022916Y067640D01*
X023070Y067640D01*
X023070Y067793D01*
X023070Y067640D02*
X022763Y067333D01*
X022456Y068100D02*
X021842Y068100D01*
X021535Y067640D02*
X021228Y067947D01*
X021228Y068254D01*
X021535Y068561D01*
X023377Y068561D02*
X023990Y068561D01*
X024297Y068561D02*
X024604Y068254D01*
X024604Y067947D01*
X024297Y067640D01*
X018159Y067947D02*
X017852Y067640D01*
X017545Y067793D02*
X017545Y068407D01*
X017391Y068561D01*
X016931Y068561D01*
X016931Y067640D01*
X017391Y067640D01*
X017545Y067793D01*
X018159Y067947D02*
X018159Y068254D01*
X017852Y068561D01*
X016624Y068407D02*
X016471Y068561D01*
X016164Y068561D01*
X016010Y068407D01*
X016624Y068407D02*
X016624Y068254D01*
X016010Y067640D01*
X016624Y067640D01*
X015703Y067640D02*
X015089Y067640D01*
X014783Y067640D02*
X014629Y067640D01*
X014629Y067793D01*
X014783Y067793D01*
X014783Y067640D01*
X014476Y067333D01*
X014169Y068100D02*
X013555Y068100D01*
X013248Y067640D02*
X012941Y067947D01*
X012941Y068254D01*
X013248Y068561D01*
X015089Y068254D02*
X015396Y068561D01*
X015396Y067640D01*
X009872Y067947D02*
X009872Y068254D01*
X009565Y068561D01*
X009258Y068561D02*
X009258Y067640D01*
X008644Y068561D01*
X008644Y067640D01*
X008337Y067640D02*
X008030Y067640D01*
X008184Y067640D02*
X008184Y068561D01*
X008337Y068561D02*
X008030Y068561D01*
X007723Y068407D02*
X007570Y068561D01*
X007263Y068561D01*
X007109Y068407D01*
X007723Y068407D02*
X007723Y068254D01*
X007109Y067640D01*
X007723Y067640D01*
X006802Y067640D02*
X006189Y067640D01*
X006495Y067640D02*
X006495Y068561D01*
X006189Y068254D01*
X005882Y067793D02*
X005728Y067793D01*
X005728Y067640D01*
X005882Y067640D01*
X005882Y067793D01*
X005882Y067640D02*
X005575Y067333D01*
X005268Y068100D02*
X004654Y068100D01*
X004347Y067640D02*
X004040Y067947D01*
X004040Y068254D01*
X004347Y068561D01*
X009565Y067640D02*
X009872Y067947D01*
X058139Y035468D02*
X058139Y035161D01*
X058293Y035008D01*
X058907Y035008D01*
X059060Y035161D01*
X059060Y035468D01*
X058907Y035622D01*
X058293Y035622D01*
X058139Y035468D01*
X058139Y034701D02*
X059060Y034701D01*
X058139Y034087D01*
X059060Y034087D01*
X059060Y033780D02*
X059060Y033473D01*
X059060Y033627D02*
X058139Y033627D01*
X058139Y033780D02*
X058139Y033473D01*
X058139Y033166D02*
X058907Y033166D01*
X059060Y033013D01*
X059060Y032706D01*
X058907Y032552D01*
X058139Y032552D01*
X058293Y032245D02*
X058139Y032092D01*
X058139Y031632D01*
X059060Y031632D01*
X059060Y032092D01*
X058907Y032245D01*
X058293Y032245D01*
X058293Y031325D02*
X058600Y031325D01*
X058753Y031171D01*
X058753Y030711D01*
X058753Y031018D02*
X059060Y031325D01*
X059060Y030711D02*
X058139Y030711D01*
X058139Y031171D01*
X058293Y031325D01*
X058446Y030404D02*
X059060Y030404D01*
X058600Y030404D02*
X058600Y029790D01*
X058446Y029790D02*
X058139Y030097D01*
X058446Y030404D01*
X058446Y029790D02*
X059060Y029790D01*
X068489Y087290D02*
X068489Y087750D01*
X068643Y087904D01*
X068950Y087904D01*
X069103Y087750D01*
X069103Y087290D01*
X069103Y087597D02*
X069410Y087904D01*
X069410Y088211D02*
X069410Y088825D01*
X069257Y089132D02*
X069410Y089285D01*
X069410Y089592D01*
X069257Y089745D01*
X069103Y089745D01*
X068950Y089592D01*
X068950Y089285D01*
X068796Y089132D01*
X068643Y089132D01*
X068489Y089285D01*
X068489Y089592D01*
X068643Y089745D01*
X068489Y090052D02*
X069410Y090052D01*
X069410Y090666D01*
X068950Y090359D02*
X068950Y090052D01*
X068489Y090052D02*
X068489Y090666D01*
X068489Y090973D02*
X068489Y091587D01*
X068489Y091280D02*
X069410Y091280D01*
X068489Y088825D02*
X068489Y088211D01*
X069410Y088211D01*
X068950Y088211D02*
X068950Y088518D01*
X069410Y087290D02*
X068489Y087290D01*
D12*
X075124Y087250D02*
X075124Y087047D01*
X075124Y087148D02*
X075735Y087148D01*
X075735Y087047D02*
X075735Y087250D01*
X075735Y087452D02*
X075124Y087452D01*
X075735Y087859D01*
X075124Y087859D01*
X075328Y088060D02*
X075124Y088263D01*
X075735Y088263D01*
X075735Y088060D02*
X075735Y088467D01*
X075735Y088667D02*
X075328Y089074D01*
X075226Y089074D01*
X075124Y088973D01*
X075124Y088769D01*
X075226Y088667D01*
X075735Y088667D02*
X075735Y089074D01*
X076124Y090736D02*
X076124Y091042D01*
X076226Y091143D01*
X076430Y091143D01*
X076531Y091042D01*
X076531Y090736D01*
X076531Y090940D02*
X076735Y091143D01*
X076735Y091344D02*
X076735Y091751D01*
X076633Y091952D02*
X076735Y092054D01*
X076735Y092257D01*
X076633Y092359D01*
X076531Y092359D01*
X076430Y092257D01*
X076430Y092054D01*
X076328Y091952D01*
X076226Y091952D01*
X076124Y092054D01*
X076124Y092257D01*
X076226Y092359D01*
X076124Y092560D02*
X076735Y092560D01*
X076735Y092967D01*
X076430Y092763D02*
X076430Y092560D01*
X076124Y092560D02*
X076124Y092967D01*
X076124Y093167D02*
X076124Y093574D01*
X076124Y093371D02*
X076735Y093371D01*
X076124Y091751D02*
X076124Y091344D01*
X076735Y091344D01*
X076430Y091344D02*
X076430Y091548D01*
X076735Y090736D02*
X076124Y090736D01*
X075531Y086846D02*
X075124Y086846D01*
X075124Y086439D02*
X075531Y086439D01*
X075735Y086642D01*
X075531Y086846D01*
X084124Y086952D02*
X084124Y087257D01*
X084226Y087359D01*
X084430Y087359D01*
X084531Y087257D01*
X084531Y086952D01*
X084735Y086952D02*
X084124Y086952D01*
X084124Y087560D02*
X084124Y087865D01*
X084226Y087967D01*
X084328Y087967D01*
X084430Y087865D01*
X084430Y087560D01*
X084430Y087865D02*
X084531Y087967D01*
X084633Y087967D01*
X084735Y087865D01*
X084735Y087560D01*
X084124Y087560D01*
X084226Y088167D02*
X084124Y088269D01*
X084124Y088473D01*
X084226Y088574D01*
X084328Y088574D01*
X084735Y088167D01*
X084735Y088574D01*
X090625Y082756D02*
X090625Y082145D01*
X090625Y082349D02*
X090930Y082349D01*
X091032Y082450D01*
X091032Y082654D01*
X090930Y082756D01*
X090625Y082756D01*
X091233Y082654D02*
X091233Y082247D01*
X091334Y082145D01*
X091538Y082145D01*
X091640Y082247D01*
X091840Y082247D02*
X091942Y082145D01*
X092146Y082145D01*
X092247Y082247D01*
X092247Y082349D01*
X092146Y082450D01*
X091840Y082450D01*
X091840Y082247D01*
X091840Y082450D02*
X092044Y082654D01*
X092247Y082756D01*
X091640Y082654D02*
X091538Y082756D01*
X091334Y082756D01*
X091233Y082654D01*
X091233Y081766D02*
X091538Y081766D01*
X091640Y081664D01*
X091640Y081257D01*
X091538Y081155D01*
X091233Y081155D01*
X091233Y081766D01*
X091032Y081664D02*
X090930Y081766D01*
X090625Y081766D01*
X090625Y081155D01*
X090625Y081359D02*
X090930Y081359D01*
X091032Y081460D01*
X091032Y081664D01*
X091840Y081664D02*
X091942Y081766D01*
X092146Y081766D01*
X092247Y081664D01*
X091840Y081257D01*
X091942Y081155D01*
X092146Y081155D01*
X092247Y081257D01*
X092247Y081664D01*
X091840Y081664D02*
X091840Y081257D01*
X092044Y080776D02*
X092044Y080165D01*
X092247Y080165D02*
X091840Y080165D01*
X091640Y080267D02*
X091640Y080674D01*
X091538Y080776D01*
X091233Y080776D01*
X091233Y080165D01*
X091538Y080165D01*
X091640Y080267D01*
X091840Y080572D02*
X092044Y080776D01*
X092146Y079786D02*
X091942Y079786D01*
X091840Y079684D01*
X091640Y079684D02*
X091538Y079786D01*
X091233Y079786D01*
X091233Y079175D01*
X091538Y079175D01*
X091640Y079277D01*
X091640Y079684D01*
X092146Y079786D02*
X092247Y079684D01*
X092247Y079582D01*
X091840Y079175D01*
X092247Y079175D01*
X092146Y078796D02*
X092247Y078694D01*
X092247Y078592D01*
X092146Y078490D01*
X092247Y078389D01*
X092247Y078287D01*
X092146Y078185D01*
X091942Y078185D01*
X091840Y078287D01*
X091640Y078287D02*
X091640Y078694D01*
X091538Y078796D01*
X091233Y078796D01*
X091233Y078185D01*
X091538Y078185D01*
X091640Y078287D01*
X092044Y078490D02*
X092146Y078490D01*
X092146Y078796D02*
X091942Y078796D01*
X091840Y078694D01*
X091032Y078694D02*
X090930Y078796D01*
X090625Y078796D01*
X090625Y078185D01*
X090625Y078389D02*
X090930Y078389D01*
X091032Y078490D01*
X091032Y078694D01*
X090625Y079175D02*
X090625Y079786D01*
X090930Y079786D01*
X091032Y079684D01*
X091032Y079480D01*
X090930Y079379D01*
X090625Y079379D01*
X090625Y080165D02*
X090625Y080776D01*
X090930Y080776D01*
X091032Y080674D01*
X091032Y080470D01*
X090930Y080369D01*
X090625Y080369D01*
X090625Y077806D02*
X090930Y077806D01*
X091032Y077704D01*
X091032Y077500D01*
X090930Y077399D01*
X090625Y077399D01*
X090625Y077195D02*
X090625Y077806D01*
X091233Y077806D02*
X091538Y077806D01*
X091640Y077704D01*
X091640Y077297D01*
X091538Y077195D01*
X091233Y077195D01*
X091233Y077806D01*
X091840Y077500D02*
X092247Y077500D01*
X092146Y077195D02*
X092146Y077806D01*
X091840Y077500D01*
X091942Y076816D02*
X091840Y076714D01*
X091840Y076307D01*
X091942Y076205D01*
X092146Y076205D01*
X092247Y076307D01*
X092247Y076714D02*
X092146Y076816D01*
X091942Y076816D01*
X091640Y076714D02*
X091538Y076816D01*
X091334Y076816D01*
X091233Y076714D01*
X091233Y076307D01*
X091334Y076205D01*
X091538Y076205D01*
X091640Y076307D01*
X091640Y075826D02*
X091640Y075215D01*
X091233Y075826D01*
X091233Y075215D01*
X091032Y075317D02*
X091032Y075520D01*
X090829Y075520D01*
X091032Y075317D02*
X090930Y075215D01*
X090727Y075215D01*
X090625Y075317D01*
X090625Y075724D01*
X090727Y075826D01*
X090930Y075826D01*
X091032Y075724D01*
X090829Y076205D02*
X091032Y076409D01*
X091032Y076816D01*
X090625Y076816D02*
X090625Y076409D01*
X090829Y076205D01*
X091840Y075826D02*
X091840Y075215D01*
X092146Y075215D01*
X092247Y075317D01*
X092247Y075724D01*
X092146Y075826D01*
X091840Y075826D01*
X091538Y074836D02*
X091233Y074836D01*
X091233Y074225D01*
X091538Y074225D01*
X091640Y074327D01*
X091640Y074429D01*
X091538Y074530D01*
X091233Y074530D01*
X091032Y074530D02*
X090930Y074429D01*
X090625Y074429D01*
X090625Y074225D02*
X090625Y074836D01*
X090930Y074836D01*
X091032Y074734D01*
X091032Y074530D01*
X091538Y074530D02*
X091640Y074632D01*
X091640Y074734D01*
X091538Y074836D01*
X091840Y074530D02*
X092146Y074530D01*
X092247Y074429D01*
X092247Y074327D01*
X092146Y074225D01*
X091942Y074225D01*
X091840Y074327D01*
X091840Y074530D01*
X092044Y074734D01*
X092247Y074836D01*
X092247Y073846D02*
X092247Y073744D01*
X091840Y073337D01*
X091840Y073235D01*
X091640Y073337D02*
X091538Y073235D01*
X091233Y073235D01*
X091233Y073846D01*
X091538Y073846D01*
X091640Y073744D01*
X091640Y073642D01*
X091538Y073540D01*
X091233Y073540D01*
X091032Y073540D02*
X090930Y073439D01*
X090625Y073439D01*
X090625Y073235D02*
X090625Y073846D01*
X090930Y073846D01*
X091032Y073744D01*
X091032Y073540D01*
X091538Y073540D02*
X091640Y073439D01*
X091640Y073337D01*
X091538Y072856D02*
X091233Y072856D01*
X091233Y072245D01*
X091538Y072245D01*
X091640Y072347D01*
X091640Y072754D01*
X091538Y072856D01*
X091840Y072856D02*
X091840Y072550D01*
X092044Y072652D01*
X092146Y072652D01*
X092247Y072550D01*
X092247Y072347D01*
X092146Y072245D01*
X091942Y072245D01*
X091840Y072347D01*
X091840Y072856D02*
X092247Y072856D01*
X092247Y073846D02*
X091840Y073846D01*
X090930Y072856D02*
X091032Y072754D01*
X091032Y072550D01*
X090930Y072449D01*
X090625Y072449D01*
X090625Y072245D02*
X090625Y072856D01*
X090930Y072856D01*
X090930Y071866D02*
X091032Y071764D01*
X091032Y071560D01*
X090930Y071459D01*
X090625Y071459D01*
X090625Y071255D02*
X090625Y071866D01*
X090930Y071866D01*
X091233Y071866D02*
X091538Y071866D01*
X091640Y071764D01*
X091640Y071357D01*
X091538Y071255D01*
X091233Y071255D01*
X091233Y071866D01*
X091840Y071560D02*
X092146Y071560D01*
X092247Y071459D01*
X092247Y071357D01*
X092146Y071255D01*
X091942Y071255D01*
X091840Y071357D01*
X091840Y071560D01*
X092044Y071764D01*
X092247Y071866D01*
X092247Y070876D02*
X092247Y070774D01*
X091840Y070367D01*
X091840Y070265D01*
X091640Y070367D02*
X091640Y070774D01*
X091538Y070876D01*
X091233Y070876D01*
X091233Y070265D01*
X091538Y070265D01*
X091640Y070367D01*
X091538Y069886D02*
X091233Y069886D01*
X091233Y069275D01*
X091538Y069275D01*
X091640Y069377D01*
X091640Y069479D01*
X091538Y069580D01*
X091233Y069580D01*
X091032Y069580D02*
X090930Y069479D01*
X090625Y069479D01*
X090625Y069275D02*
X090625Y069886D01*
X090930Y069886D01*
X091032Y069784D01*
X091032Y069580D01*
X091538Y069580D02*
X091640Y069682D01*
X091640Y069784D01*
X091538Y069886D01*
X091840Y069784D02*
X091942Y069886D01*
X092146Y069886D01*
X092247Y069784D01*
X091840Y069377D01*
X091942Y069275D01*
X092146Y069275D01*
X092247Y069377D01*
X092247Y069784D01*
X091840Y069784D02*
X091840Y069377D01*
X090930Y070469D02*
X090625Y070469D01*
X090625Y070265D02*
X090625Y070876D01*
X090930Y070876D01*
X091032Y070774D01*
X091032Y070570D01*
X090930Y070469D01*
X091840Y070876D02*
X092247Y070876D01*
X094625Y070672D02*
X094829Y070876D01*
X094625Y070672D02*
X094625Y070469D01*
X094829Y070265D01*
X095030Y070570D02*
X095437Y070570D01*
X095234Y070774D02*
X095234Y070367D01*
X095638Y070265D02*
X095841Y070469D01*
X095841Y070672D01*
X095638Y070876D01*
X095436Y071255D02*
X095436Y071866D01*
X095233Y071866D02*
X095640Y071866D01*
X095538Y072245D02*
X095334Y072245D01*
X095233Y072347D01*
X095032Y072245D02*
X094829Y072449D01*
X094930Y072449D02*
X094625Y072449D01*
X094625Y072245D02*
X094625Y072856D01*
X094930Y072856D01*
X095032Y072754D01*
X095032Y072550D01*
X094930Y072449D01*
X095233Y072652D02*
X095334Y072550D01*
X095538Y072550D01*
X095640Y072449D01*
X095640Y072347D01*
X095538Y072245D01*
X095233Y072652D02*
X095233Y072754D01*
X095334Y072856D01*
X095538Y072856D01*
X095640Y072754D01*
X095640Y073235D02*
X095640Y073846D01*
X095233Y073846D02*
X095233Y073235D01*
X095436Y073439D01*
X095640Y073235D01*
X095032Y073235D02*
X094829Y073439D01*
X094930Y073439D02*
X094625Y073439D01*
X094625Y073235D02*
X094625Y073846D01*
X094930Y073846D01*
X095032Y073744D01*
X095032Y073540D01*
X094930Y073439D01*
X095032Y074225D02*
X094625Y074225D01*
X094625Y074836D01*
X095032Y074836D01*
X094829Y074530D02*
X094625Y074530D01*
X094625Y075215D02*
X094930Y075215D01*
X095032Y075317D01*
X095032Y075724D01*
X094930Y075826D01*
X094625Y075826D01*
X094625Y075215D01*
X095233Y075317D02*
X095640Y075724D01*
X095640Y075317D01*
X095538Y075215D01*
X095334Y075215D01*
X095233Y075317D01*
X095233Y075724D01*
X095334Y075826D01*
X095538Y075826D01*
X095640Y075724D01*
X095640Y076205D02*
X095233Y076205D01*
X095436Y076205D02*
X095436Y076816D01*
X095233Y076612D01*
X095032Y076714D02*
X094930Y076816D01*
X094625Y076816D01*
X094625Y076205D01*
X094930Y076205D01*
X095032Y076307D01*
X095032Y076714D01*
X094930Y077195D02*
X095032Y077297D01*
X095032Y077704D01*
X094930Y077806D01*
X094625Y077806D01*
X094625Y077195D01*
X094930Y077195D01*
X095233Y077195D02*
X095640Y077602D01*
X095640Y077704D01*
X095538Y077806D01*
X095334Y077806D01*
X095233Y077704D01*
X095334Y078185D02*
X095233Y078287D01*
X095334Y078185D02*
X095538Y078185D01*
X095640Y078287D01*
X095640Y078389D01*
X095538Y078490D01*
X095436Y078490D01*
X095538Y078490D02*
X095640Y078592D01*
X095640Y078694D01*
X095538Y078796D01*
X095334Y078796D01*
X095233Y078694D01*
X095032Y078694D02*
X094930Y078796D01*
X094625Y078796D01*
X094625Y078185D01*
X094930Y078185D01*
X095032Y078287D01*
X095032Y078694D01*
X094930Y079175D02*
X095032Y079277D01*
X095032Y079684D01*
X094930Y079786D01*
X094625Y079786D01*
X094625Y079175D01*
X094930Y079175D01*
X095233Y079480D02*
X095640Y079480D01*
X095538Y079175D02*
X095538Y079786D01*
X095233Y079480D01*
X095334Y080165D02*
X095233Y080267D01*
X095334Y080165D02*
X095538Y080165D01*
X095640Y080267D01*
X095640Y080470D01*
X095538Y080572D01*
X095436Y080572D01*
X095233Y080470D01*
X095233Y080776D01*
X095640Y080776D01*
X095538Y081155D02*
X095640Y081257D01*
X095640Y081359D01*
X095538Y081460D01*
X095233Y081460D01*
X095233Y081257D01*
X095334Y081155D01*
X095538Y081155D01*
X095233Y081460D02*
X095436Y081664D01*
X095640Y081766D01*
X095233Y082145D02*
X095233Y082247D01*
X095640Y082654D01*
X095640Y082756D01*
X095233Y082756D01*
X095032Y082654D02*
X094930Y082756D01*
X094625Y082756D01*
X094625Y082145D01*
X094930Y082145D01*
X095032Y082247D01*
X095032Y082654D01*
X095032Y083135D02*
X094625Y083135D01*
X094625Y083746D01*
X094829Y084125D02*
X094625Y084329D01*
X094625Y084532D01*
X094829Y084736D01*
X095030Y084430D02*
X095437Y084430D01*
X095638Y084125D02*
X095841Y084329D01*
X095841Y084532D01*
X095638Y084736D01*
X095436Y083644D02*
X095436Y083237D01*
X095233Y083440D02*
X095640Y083440D01*
X094930Y081766D02*
X094625Y081766D01*
X094625Y081155D01*
X094930Y081155D01*
X095032Y081257D01*
X095032Y081664D01*
X094930Y081766D01*
X094930Y080776D02*
X094625Y080776D01*
X094625Y080165D01*
X094930Y080165D01*
X095032Y080267D01*
X095032Y080674D01*
X094930Y080776D01*
X095233Y077195D02*
X095640Y077195D01*
X094930Y071866D02*
X094727Y071866D01*
X094625Y071764D01*
X094625Y071357D01*
X094727Y071255D01*
X094930Y071255D01*
X095032Y071357D01*
X095032Y071764D02*
X094930Y071866D01*
X094829Y069886D02*
X094625Y069682D01*
X094625Y069479D01*
X094829Y069275D01*
X095030Y069580D02*
X095437Y069580D01*
X095638Y069275D02*
X095841Y069479D01*
X095841Y069682D01*
X095638Y069886D01*
X086247Y069886D02*
X085840Y069886D01*
X085840Y069580D01*
X086044Y069682D01*
X086146Y069682D01*
X086247Y069580D01*
X086247Y069377D01*
X086146Y069275D01*
X085942Y069275D01*
X085840Y069377D01*
X085640Y069377D02*
X085538Y069275D01*
X085334Y069275D01*
X085233Y069377D01*
X085233Y069784D01*
X085334Y069886D01*
X085538Y069886D01*
X085640Y069784D01*
X085538Y070265D02*
X085334Y070265D01*
X085233Y070367D01*
X085233Y070774D01*
X085334Y070876D01*
X085538Y070876D01*
X085640Y070774D01*
X085840Y070570D02*
X086247Y070570D01*
X086146Y070265D02*
X086146Y070876D01*
X085840Y070570D01*
X085640Y070367D02*
X085538Y070265D01*
X085032Y070570D02*
X084930Y070469D01*
X084625Y070469D01*
X084625Y070265D02*
X084625Y070876D01*
X084930Y070876D01*
X085032Y070774D01*
X085032Y070570D01*
X084930Y069886D02*
X085032Y069784D01*
X085032Y069580D01*
X084930Y069479D01*
X084625Y069479D01*
X084625Y069275D02*
X084625Y069886D01*
X084930Y069886D01*
X084625Y071255D02*
X084625Y071866D01*
X084930Y071866D01*
X085032Y071764D01*
X085032Y071560D01*
X084930Y071459D01*
X084625Y071459D01*
X085233Y071357D02*
X085334Y071255D01*
X085538Y071255D01*
X085640Y071357D01*
X085840Y071357D02*
X085942Y071255D01*
X086146Y071255D01*
X086247Y071357D01*
X086247Y071459D01*
X086146Y071560D01*
X086044Y071560D01*
X086146Y071560D02*
X086247Y071662D01*
X086247Y071764D01*
X086146Y071866D01*
X085942Y071866D01*
X085840Y071764D01*
X085640Y071764D02*
X085538Y071866D01*
X085334Y071866D01*
X085233Y071764D01*
X085233Y071357D01*
X085334Y072245D02*
X085538Y072245D01*
X085640Y072347D01*
X085840Y072245D02*
X086247Y072652D01*
X086247Y072754D01*
X086146Y072856D01*
X085942Y072856D01*
X085840Y072754D01*
X085640Y072754D02*
X085538Y072856D01*
X085334Y072856D01*
X085233Y072754D01*
X085233Y072347D01*
X085334Y072245D01*
X085032Y072550D02*
X084930Y072449D01*
X084625Y072449D01*
X084625Y072245D02*
X084625Y072856D01*
X084930Y072856D01*
X085032Y072754D01*
X085032Y072550D01*
X085334Y073235D02*
X085538Y073235D01*
X085640Y073337D01*
X085840Y073235D02*
X086247Y073235D01*
X086044Y073235D02*
X086044Y073846D01*
X085840Y073642D01*
X085640Y073744D02*
X085538Y073846D01*
X085334Y073846D01*
X085233Y073744D01*
X085233Y073337D01*
X085334Y073235D01*
X085032Y073540D02*
X084930Y073439D01*
X084625Y073439D01*
X084625Y073235D02*
X084625Y073846D01*
X084930Y073846D01*
X085032Y073744D01*
X085032Y073540D01*
X085840Y072245D02*
X086247Y072245D01*
X068315Y064473D02*
X068213Y064574D01*
X068315Y064473D02*
X068315Y064269D01*
X068213Y064167D01*
X067806Y064167D01*
X067704Y064269D01*
X067704Y064473D01*
X067806Y064574D01*
X067806Y063967D02*
X067704Y063865D01*
X067704Y063661D01*
X067806Y063560D01*
X068213Y063560D01*
X068315Y063661D01*
X068315Y063865D01*
X068213Y063967D01*
X068111Y063359D02*
X067704Y063359D01*
X067325Y063359D02*
X067325Y062952D01*
X066918Y063359D01*
X066816Y063359D01*
X066714Y063257D01*
X066714Y063054D01*
X066816Y062952D01*
X066335Y062952D02*
X065928Y063359D01*
X065826Y063359D01*
X065724Y063257D01*
X065724Y063054D01*
X065826Y062952D01*
X065345Y062952D02*
X064938Y063359D01*
X064836Y063359D01*
X064734Y063257D01*
X064734Y063054D01*
X064836Y062952D01*
X064355Y062952D02*
X063948Y063359D01*
X063846Y063359D01*
X063744Y063257D01*
X063744Y063054D01*
X063846Y062952D01*
X063365Y063054D02*
X063263Y062952D01*
X063365Y063054D02*
X063365Y063257D01*
X063263Y063359D01*
X063161Y063359D01*
X063060Y063257D01*
X063060Y063155D01*
X063060Y063257D02*
X062958Y063359D01*
X062856Y063359D01*
X062754Y063257D01*
X062754Y063054D01*
X062856Y062952D01*
X062375Y063054D02*
X062273Y062952D01*
X062375Y063054D02*
X062375Y063257D01*
X062273Y063359D01*
X062171Y063359D01*
X062070Y063257D01*
X062070Y063155D01*
X062070Y063257D02*
X061968Y063359D01*
X061866Y063359D01*
X061764Y063257D01*
X061764Y063054D01*
X061866Y062952D01*
X061385Y063054D02*
X061283Y062952D01*
X061385Y063054D02*
X061385Y063257D01*
X061283Y063359D01*
X061181Y063359D01*
X061080Y063257D01*
X061080Y063155D01*
X061080Y063257D02*
X060978Y063359D01*
X060876Y063359D01*
X060774Y063257D01*
X060774Y063054D01*
X060876Y062952D01*
X060395Y063054D02*
X060293Y062952D01*
X060395Y063054D02*
X060395Y063257D01*
X060293Y063359D01*
X060191Y063359D01*
X060090Y063257D01*
X060090Y063155D01*
X060090Y063257D02*
X059988Y063359D01*
X059886Y063359D01*
X059784Y063257D01*
X059784Y063054D01*
X059886Y062952D01*
X059405Y063054D02*
X059303Y062952D01*
X059405Y063054D02*
X059405Y063257D01*
X059303Y063359D01*
X059201Y063359D01*
X059100Y063257D01*
X059100Y063155D01*
X059100Y063257D02*
X058998Y063359D01*
X058896Y063359D01*
X058794Y063257D01*
X058794Y063054D01*
X058896Y062952D01*
X058415Y063257D02*
X057804Y063257D01*
X058110Y062952D01*
X058110Y063359D01*
X058008Y063560D02*
X057804Y063763D01*
X058415Y063763D01*
X058415Y063560D02*
X058415Y063967D01*
X058794Y063865D02*
X058794Y063661D01*
X058896Y063560D01*
X058998Y063560D01*
X059100Y063661D01*
X059100Y063967D01*
X059303Y063967D02*
X058896Y063967D01*
X058794Y063865D01*
X059303Y063967D02*
X059405Y063865D01*
X059405Y063661D01*
X059303Y063560D01*
X059784Y063560D02*
X059784Y063967D01*
X059886Y063967D01*
X060293Y063560D01*
X060395Y063560D01*
X060774Y063560D02*
X061080Y063560D01*
X060978Y063763D01*
X060978Y063865D01*
X061080Y063967D01*
X061283Y063967D01*
X061385Y063865D01*
X061385Y063661D01*
X061283Y063560D01*
X061764Y063661D02*
X061764Y063865D01*
X061866Y063967D01*
X061968Y063967D01*
X062070Y063865D01*
X062171Y063967D01*
X062273Y063967D01*
X062375Y063865D01*
X062375Y063661D01*
X062273Y063560D01*
X062070Y063763D02*
X062070Y063865D01*
X061866Y063560D02*
X061764Y063661D01*
X060774Y063560D02*
X060774Y063967D01*
X062754Y063763D02*
X063365Y063763D01*
X063365Y063560D02*
X063365Y063967D01*
X063744Y063865D02*
X063744Y063661D01*
X063846Y063560D01*
X063948Y063560D01*
X064050Y063661D01*
X064050Y063967D01*
X064253Y063967D02*
X063846Y063967D01*
X063744Y063865D01*
X064253Y063967D02*
X064355Y063865D01*
X064355Y063661D01*
X064253Y063560D01*
X064355Y063359D02*
X064355Y062952D01*
X064734Y063560D02*
X064734Y063967D01*
X064836Y063967D01*
X065243Y063560D01*
X065345Y063560D01*
X065345Y063359D02*
X065345Y062952D01*
X065724Y063560D02*
X066030Y063560D01*
X065928Y063763D01*
X065928Y063865D01*
X066030Y063967D01*
X066233Y063967D01*
X066335Y063865D01*
X066335Y063661D01*
X066233Y063560D01*
X066335Y063359D02*
X066335Y062952D01*
X066816Y063560D02*
X066714Y063661D01*
X066714Y063865D01*
X066816Y063967D01*
X066918Y063967D01*
X067020Y063865D01*
X067121Y063967D01*
X067223Y063967D01*
X067325Y063865D01*
X067325Y063661D01*
X067223Y063560D01*
X067020Y063763D02*
X067020Y063865D01*
X067704Y062952D02*
X068111Y062952D01*
X068315Y063155D01*
X068111Y063359D01*
X065724Y063560D02*
X065724Y063967D01*
X062958Y063560D02*
X062754Y063763D01*
X062533Y060660D02*
X062635Y060559D01*
X062635Y060355D01*
X062533Y060253D01*
X062533Y060053D02*
X062635Y059951D01*
X062635Y059747D01*
X062533Y059646D01*
X062533Y059444D02*
X062533Y059342D01*
X062635Y059342D01*
X062635Y059444D01*
X062533Y059444D01*
X062635Y059444D02*
X062839Y059240D01*
X062964Y059377D02*
X062964Y059580D01*
X063066Y059682D01*
X063168Y059682D01*
X063270Y059580D01*
X063371Y059682D01*
X063473Y059682D01*
X063575Y059580D01*
X063575Y059377D01*
X063473Y059275D01*
X063270Y059479D02*
X063270Y059580D01*
X063168Y059883D02*
X062964Y060086D01*
X063575Y060086D01*
X063575Y059883D02*
X063575Y060290D01*
X064004Y060355D02*
X064106Y060253D01*
X064208Y060253D01*
X064310Y060355D01*
X064310Y060660D01*
X064513Y060660D02*
X064106Y060660D01*
X064004Y060559D01*
X064004Y060355D01*
X064106Y060053D02*
X064004Y059951D01*
X064004Y059747D01*
X064106Y059646D01*
X064106Y060053D02*
X064208Y060053D01*
X064615Y059646D01*
X064615Y060053D01*
X064513Y060253D02*
X064615Y060355D01*
X064615Y060559D01*
X064513Y060660D01*
X064994Y060660D02*
X065096Y060660D01*
X065503Y060253D01*
X065605Y060253D01*
X065605Y060053D02*
X065605Y059646D01*
X065198Y060053D01*
X065096Y060053D01*
X064994Y059951D01*
X064994Y059747D01*
X065096Y059646D01*
X065503Y059444D02*
X065503Y059342D01*
X065605Y059342D01*
X065605Y059444D01*
X065503Y059444D01*
X065605Y059444D02*
X065809Y059240D01*
X065984Y058938D02*
X066290Y058633D01*
X066290Y059040D01*
X066595Y058938D02*
X065984Y058938D01*
X065605Y058938D02*
X065503Y059040D01*
X065401Y059040D01*
X065300Y058938D01*
X065300Y058633D01*
X065503Y058633D01*
X065605Y058734D01*
X065605Y058938D01*
X065300Y058633D02*
X065096Y058836D01*
X064994Y059040D01*
X064819Y059240D02*
X064615Y059444D01*
X064615Y059342D01*
X064513Y059342D01*
X064513Y059444D01*
X064615Y059444D01*
X064513Y059040D02*
X064615Y058938D01*
X064615Y058734D01*
X064513Y058633D01*
X064411Y058633D01*
X064310Y058734D01*
X064310Y058938D01*
X064411Y059040D01*
X064513Y059040D01*
X064310Y058938D02*
X064208Y059040D01*
X064106Y059040D01*
X064004Y058938D01*
X064004Y058734D01*
X064106Y058633D01*
X064208Y058633D01*
X064310Y058734D01*
X064208Y058432D02*
X064106Y058432D01*
X064004Y058330D01*
X064004Y058127D01*
X064106Y058025D01*
X064208Y058432D02*
X064615Y058025D01*
X064615Y058432D01*
X064994Y058330D02*
X064994Y058127D01*
X065096Y058025D01*
X064994Y058330D02*
X065096Y058432D01*
X065198Y058432D01*
X065605Y058025D01*
X065605Y058432D01*
X065984Y058330D02*
X065984Y058127D01*
X066086Y058025D01*
X065984Y058330D02*
X066086Y058432D01*
X066188Y058432D01*
X066595Y058025D01*
X066595Y058432D01*
X066974Y058330D02*
X066974Y058127D01*
X067076Y058025D01*
X066974Y058330D02*
X067076Y058432D01*
X067178Y058432D01*
X067585Y058025D01*
X067585Y058432D01*
X067585Y058633D02*
X067178Y059040D01*
X067076Y059040D01*
X066974Y058938D01*
X066974Y058734D01*
X067076Y058633D01*
X067585Y058633D02*
X067585Y059040D01*
X067789Y059240D02*
X067585Y059444D01*
X067585Y059342D01*
X067483Y059342D01*
X067483Y059444D01*
X067585Y059444D01*
X067585Y059646D02*
X067178Y060053D01*
X067076Y060053D01*
X066974Y059951D01*
X066974Y059747D01*
X067076Y059646D01*
X066595Y059646D02*
X066188Y060053D01*
X066086Y060053D01*
X065984Y059951D01*
X065984Y059747D01*
X066086Y059646D01*
X066493Y059444D02*
X066493Y059342D01*
X066595Y059342D01*
X066595Y059444D01*
X066493Y059444D01*
X066595Y059444D02*
X066799Y059240D01*
X066595Y059646D02*
X066595Y060053D01*
X066493Y060253D02*
X066595Y060355D01*
X066595Y060559D01*
X066493Y060660D01*
X066290Y060660D01*
X066188Y060559D01*
X066188Y060457D01*
X066290Y060253D01*
X065984Y060253D01*
X065984Y060660D01*
X064994Y060660D02*
X064994Y060253D01*
X066974Y060355D02*
X066974Y060559D01*
X067076Y060660D01*
X067178Y060660D01*
X067280Y060559D01*
X067381Y060660D01*
X067483Y060660D01*
X067585Y060559D01*
X067585Y060355D01*
X067483Y060253D01*
X067585Y060053D02*
X067585Y059646D01*
X067964Y059546D02*
X067964Y059342D01*
X068066Y059240D01*
X068473Y059240D01*
X068575Y059342D01*
X068575Y059546D01*
X068473Y059647D01*
X068066Y059647D02*
X067964Y059546D01*
X068066Y059040D02*
X067964Y058938D01*
X067964Y058734D01*
X068066Y058633D01*
X068473Y058633D01*
X068575Y058734D01*
X068575Y058938D01*
X068473Y059040D01*
X068371Y058432D02*
X067964Y058432D01*
X067964Y058025D02*
X068371Y058025D01*
X068575Y058229D01*
X068371Y058432D01*
X067076Y060253D02*
X066974Y060355D01*
X067280Y060457D02*
X067280Y060559D01*
X063066Y059275D02*
X062964Y059377D01*
X062635Y059040D02*
X062635Y058633D01*
X062228Y059040D01*
X062126Y059040D01*
X062024Y058938D01*
X062024Y058734D01*
X062126Y058633D01*
X062126Y058432D02*
X062228Y058432D01*
X062330Y058330D01*
X062431Y058432D01*
X062533Y058432D01*
X062635Y058330D01*
X062635Y058127D01*
X062533Y058025D01*
X062330Y058229D02*
X062330Y058330D01*
X062126Y058432D02*
X062024Y058330D01*
X062024Y058127D01*
X062126Y058025D01*
X061779Y057990D02*
X061575Y058194D01*
X061575Y058092D01*
X061473Y058092D01*
X061473Y058194D01*
X061575Y058194D01*
X061473Y058396D02*
X061575Y058497D01*
X061575Y058701D01*
X061473Y058803D01*
X061371Y058803D01*
X061270Y058701D01*
X061270Y058599D01*
X061270Y058701D02*
X061168Y058803D01*
X061066Y058803D01*
X060964Y058701D01*
X060964Y058497D01*
X061066Y058396D01*
X060655Y058330D02*
X060655Y058127D01*
X060553Y058025D01*
X060350Y058229D02*
X060350Y058330D01*
X060451Y058432D01*
X060553Y058432D01*
X060655Y058330D01*
X060350Y058330D02*
X060248Y058432D01*
X060146Y058432D01*
X060044Y058330D01*
X060044Y058127D01*
X060146Y058025D01*
X059665Y058127D02*
X059563Y058025D01*
X059665Y058127D02*
X059665Y058330D01*
X059563Y058432D01*
X059461Y058432D01*
X059360Y058330D01*
X059360Y058229D01*
X059360Y058330D02*
X059258Y058432D01*
X059156Y058432D01*
X059054Y058330D01*
X059054Y058127D01*
X059156Y058025D01*
X058675Y058330D02*
X058064Y058330D01*
X058370Y058025D01*
X058370Y058432D01*
X058573Y058633D02*
X058166Y059040D01*
X058573Y059040D01*
X058675Y058938D01*
X058675Y058734D01*
X058573Y058633D01*
X058166Y058633D01*
X058064Y058734D01*
X058064Y058938D01*
X058166Y059040D01*
X057789Y059240D02*
X057585Y059444D01*
X057585Y059342D01*
X057483Y059342D01*
X057483Y059444D01*
X057585Y059444D01*
X057280Y059646D02*
X057280Y060053D01*
X057483Y060253D02*
X057585Y060355D01*
X057585Y060559D01*
X057483Y060660D01*
X057381Y060660D01*
X057280Y060559D01*
X057280Y060457D01*
X057280Y060559D02*
X057178Y060660D01*
X057076Y060660D01*
X056974Y060559D01*
X056974Y060355D01*
X057076Y060253D01*
X056974Y059951D02*
X057280Y059646D01*
X057585Y059951D02*
X056974Y059951D01*
X056595Y059951D02*
X055984Y059951D01*
X056290Y059646D01*
X056290Y060053D01*
X056290Y060253D02*
X056188Y060457D01*
X056188Y060559D01*
X056290Y060660D01*
X056493Y060660D01*
X056595Y060559D01*
X056595Y060355D01*
X056493Y060253D01*
X056290Y060253D02*
X055984Y060253D01*
X055984Y060660D01*
X055605Y060253D02*
X055503Y060253D01*
X055096Y060660D01*
X054994Y060660D01*
X054994Y060253D01*
X054994Y059951D02*
X055300Y059646D01*
X055300Y060053D01*
X055605Y059951D02*
X054994Y059951D01*
X054615Y059951D02*
X054004Y059951D01*
X054310Y059646D01*
X054310Y060053D01*
X054208Y060253D02*
X054310Y060355D01*
X054310Y060660D01*
X054513Y060660D02*
X054106Y060660D01*
X054004Y060559D01*
X054004Y060355D01*
X054106Y060253D01*
X054208Y060253D01*
X054513Y060253D02*
X054615Y060355D01*
X054615Y060559D01*
X054513Y060660D01*
X053625Y060660D02*
X053625Y060253D01*
X053625Y060457D02*
X053014Y060457D01*
X053218Y060253D01*
X053320Y060053D02*
X053523Y060053D01*
X053625Y059951D01*
X053625Y059747D01*
X053523Y059646D01*
X053523Y059444D02*
X053523Y059342D01*
X053625Y059342D01*
X053625Y059444D01*
X053523Y059444D01*
X053625Y059444D02*
X053829Y059240D01*
X054106Y059040D02*
X054004Y058938D01*
X054004Y058734D01*
X054106Y058633D01*
X054208Y058633D01*
X054310Y058734D01*
X054310Y058938D01*
X054411Y059040D01*
X054513Y059040D01*
X054615Y058938D01*
X054615Y058734D01*
X054513Y058633D01*
X054411Y058633D01*
X054310Y058734D01*
X054310Y058938D02*
X054208Y059040D01*
X054106Y059040D01*
X053625Y058938D02*
X053625Y058734D01*
X053523Y058633D01*
X053116Y059040D01*
X053523Y059040D01*
X053625Y058938D01*
X053523Y058633D02*
X053116Y058633D01*
X053014Y058734D01*
X053014Y058938D01*
X053116Y059040D01*
X052575Y058809D02*
X052575Y058605D01*
X052473Y058503D01*
X052473Y058303D02*
X052575Y058201D01*
X052575Y057997D01*
X052473Y057896D01*
X052473Y057694D02*
X052473Y057592D01*
X052575Y057592D01*
X052575Y057694D01*
X052473Y057694D01*
X052575Y057694D02*
X052779Y057490D01*
X052575Y057290D02*
X052575Y056883D01*
X052168Y057290D01*
X052066Y057290D01*
X051964Y057188D01*
X051964Y056984D01*
X052066Y056883D01*
X051964Y056682D02*
X051964Y056275D01*
X052270Y056275D01*
X052168Y056479D01*
X052168Y056580D01*
X052270Y056682D01*
X052473Y056682D01*
X052575Y056580D01*
X052575Y056377D01*
X052473Y056275D01*
X052270Y057896D02*
X051964Y057896D01*
X051964Y058303D01*
X052066Y058503D02*
X051964Y058605D01*
X051964Y058809D01*
X052066Y058910D01*
X052168Y058910D01*
X052270Y058809D01*
X052371Y058910D01*
X052473Y058910D01*
X052575Y058809D01*
X052270Y058809D02*
X052270Y058707D01*
X052270Y058303D02*
X052473Y058303D01*
X052270Y058303D02*
X052168Y058201D01*
X052168Y058099D01*
X052270Y057896D01*
X051645Y058127D02*
X051645Y058330D01*
X051543Y058432D01*
X051340Y058432D01*
X051340Y058229D01*
X051136Y058432D02*
X051034Y058330D01*
X051034Y058127D01*
X051136Y058025D01*
X051543Y058025D01*
X051645Y058127D01*
X051645Y058633D02*
X051034Y058633D01*
X051645Y059040D01*
X051034Y059040D01*
X051034Y059240D02*
X051034Y059546D01*
X051136Y059647D01*
X051543Y059647D01*
X051645Y059546D01*
X051645Y059240D01*
X051034Y059240D01*
X053014Y059646D02*
X053320Y059646D01*
X053218Y059849D01*
X053218Y059951D01*
X053320Y060053D01*
X053014Y060053D02*
X053014Y059646D01*
X053014Y058432D02*
X053014Y058025D01*
X053320Y058025D01*
X053218Y058229D01*
X053218Y058330D01*
X053320Y058432D01*
X053523Y058432D01*
X053625Y058330D01*
X053625Y058127D01*
X053523Y058025D01*
X054004Y058330D02*
X054310Y058025D01*
X054310Y058432D01*
X054615Y058330D02*
X054004Y058330D01*
X054513Y059342D02*
X054615Y059342D01*
X054615Y059444D01*
X054513Y059444D01*
X054513Y059342D01*
X054615Y059444D02*
X054819Y059240D01*
X054994Y059040D02*
X055096Y058836D01*
X055300Y058633D01*
X055300Y058938D01*
X055401Y059040D01*
X055503Y059040D01*
X055605Y058938D01*
X055605Y058734D01*
X055503Y058633D01*
X055300Y058633D01*
X055300Y058432D02*
X055300Y058025D01*
X054994Y058330D01*
X055605Y058330D01*
X055984Y058330D02*
X056290Y058025D01*
X056290Y058432D01*
X056290Y058633D02*
X056290Y059040D01*
X056595Y058938D02*
X055984Y058938D01*
X056290Y058633D01*
X056595Y058330D02*
X055984Y058330D01*
X055809Y059240D02*
X055605Y059444D01*
X055605Y059342D01*
X055503Y059342D01*
X055503Y059444D01*
X055605Y059444D01*
X056493Y059444D02*
X056493Y059342D01*
X056595Y059342D01*
X056595Y059444D01*
X056493Y059444D01*
X056595Y059444D02*
X056799Y059240D01*
X057076Y059040D02*
X056974Y058938D01*
X056974Y058734D01*
X057076Y058633D01*
X057280Y058432D02*
X057280Y058025D01*
X056974Y058330D01*
X057585Y058330D01*
X057585Y058633D02*
X057178Y059040D01*
X057076Y059040D01*
X057585Y059040D02*
X057585Y058633D01*
X058573Y059342D02*
X058675Y059342D01*
X058675Y059444D01*
X058573Y059444D01*
X058573Y059342D01*
X058675Y059444D02*
X058879Y059240D01*
X059156Y059040D02*
X059258Y059040D01*
X059360Y058938D01*
X059360Y058734D01*
X059258Y058633D01*
X059156Y058633D01*
X059054Y058734D01*
X059054Y058938D01*
X059156Y059040D01*
X059360Y058938D02*
X059461Y059040D01*
X059563Y059040D01*
X059665Y058938D01*
X059665Y058734D01*
X059563Y058633D01*
X059461Y058633D01*
X059360Y058734D01*
X059563Y059342D02*
X059665Y059342D01*
X059665Y059444D01*
X059563Y059444D01*
X059563Y059342D01*
X059665Y059444D02*
X059869Y059240D01*
X060044Y059040D02*
X060146Y058836D01*
X060350Y058633D01*
X060350Y058938D01*
X060451Y059040D01*
X060553Y059040D01*
X060655Y058938D01*
X060655Y058734D01*
X060553Y058633D01*
X060350Y058633D01*
X060964Y059003D02*
X060964Y059410D01*
X060859Y059240D02*
X060655Y059444D01*
X060655Y059342D01*
X060553Y059342D01*
X060553Y059444D01*
X060655Y059444D01*
X060553Y059646D02*
X060655Y059747D01*
X060655Y059951D01*
X060553Y060053D01*
X060451Y060053D01*
X060350Y059951D01*
X060350Y059849D01*
X060350Y059951D02*
X060248Y060053D01*
X060146Y060053D01*
X060044Y059951D01*
X060044Y059747D01*
X060146Y059646D01*
X059665Y059747D02*
X059563Y059646D01*
X059665Y059747D02*
X059665Y059951D01*
X059563Y060053D01*
X059461Y060053D01*
X059360Y059951D01*
X059360Y059849D01*
X059360Y059951D02*
X059258Y060053D01*
X059156Y060053D01*
X059054Y059951D01*
X059054Y059747D01*
X059156Y059646D01*
X058675Y059951D02*
X058064Y059951D01*
X058370Y059646D01*
X058370Y060053D01*
X058268Y060253D02*
X058064Y060457D01*
X058675Y060457D01*
X058675Y060660D02*
X058675Y060253D01*
X059054Y060355D02*
X059156Y060253D01*
X059258Y060253D01*
X059360Y060355D01*
X059360Y060660D01*
X059563Y060660D02*
X059156Y060660D01*
X059054Y060559D01*
X059054Y060355D01*
X059563Y060253D02*
X059665Y060355D01*
X059665Y060559D01*
X059563Y060660D01*
X060044Y060660D02*
X060146Y060660D01*
X060553Y060253D01*
X060655Y060253D01*
X060044Y060253D02*
X060044Y060660D01*
X061270Y059410D02*
X061473Y059410D01*
X061575Y059309D01*
X061575Y059105D01*
X061473Y059003D01*
X061270Y059003D02*
X061168Y059207D01*
X061168Y059309D01*
X061270Y059410D01*
X061270Y059003D02*
X060964Y059003D01*
X061270Y057790D02*
X061270Y057383D01*
X060964Y057688D01*
X061575Y057688D01*
X061473Y057182D02*
X061575Y057080D01*
X061575Y056877D01*
X061473Y056775D01*
X061270Y056979D02*
X061270Y057080D01*
X061371Y057182D01*
X061473Y057182D01*
X061270Y057080D02*
X061168Y057182D01*
X061066Y057182D01*
X060964Y057080D01*
X060964Y056877D01*
X061066Y056775D01*
X062964Y057127D02*
X063066Y057025D01*
X062964Y057127D02*
X062964Y057330D01*
X063066Y057432D01*
X063168Y057432D01*
X063270Y057330D01*
X063371Y057432D01*
X063473Y057432D01*
X063575Y057330D01*
X063575Y057127D01*
X063473Y057025D01*
X063270Y057229D02*
X063270Y057330D01*
X063473Y057633D02*
X063066Y058040D01*
X063473Y058040D01*
X063575Y057938D01*
X063575Y057734D01*
X063473Y057633D01*
X063066Y057633D01*
X062964Y057734D01*
X062964Y057938D01*
X063066Y058040D01*
X062126Y059646D02*
X062024Y059747D01*
X062024Y059951D01*
X062126Y060053D01*
X062228Y060053D01*
X062330Y059951D01*
X062431Y060053D01*
X062533Y060053D01*
X062330Y059951D02*
X062330Y059849D01*
X062126Y060253D02*
X062024Y060355D01*
X062024Y060559D01*
X062126Y060660D01*
X062228Y060660D01*
X062330Y060559D01*
X062431Y060660D01*
X062533Y060660D01*
X062330Y060559D02*
X062330Y060457D01*
X057425Y063257D02*
X056814Y063257D01*
X057120Y062952D01*
X057120Y063359D01*
X057323Y063560D02*
X057425Y063661D01*
X057425Y063865D01*
X057323Y063967D01*
X057221Y063967D01*
X057120Y063865D01*
X057120Y063763D01*
X057120Y063865D02*
X057018Y063967D01*
X056916Y063967D01*
X056814Y063865D01*
X056814Y063661D01*
X056916Y063560D01*
X056435Y063661D02*
X056333Y063560D01*
X056435Y063661D02*
X056435Y063865D01*
X056333Y063967D01*
X056130Y063967D01*
X056028Y063865D01*
X056028Y063763D01*
X056130Y063560D01*
X055824Y063560D01*
X055824Y063967D01*
X055445Y063560D02*
X055343Y063560D01*
X054936Y063967D01*
X054834Y063967D01*
X054834Y063560D01*
X054834Y063257D02*
X055140Y062952D01*
X055140Y063359D01*
X055445Y063257D02*
X054834Y063257D01*
X054455Y063257D02*
X053844Y063257D01*
X054150Y062952D01*
X054150Y063359D01*
X054048Y063560D02*
X054150Y063661D01*
X054150Y063967D01*
X054353Y063967D02*
X053946Y063967D01*
X053844Y063865D01*
X053844Y063661D01*
X053946Y063560D01*
X054048Y063560D01*
X054353Y063560D02*
X054455Y063661D01*
X054455Y063865D01*
X054353Y063967D01*
X053465Y063967D02*
X053465Y063560D01*
X053465Y063763D02*
X052854Y063763D01*
X053058Y063560D01*
X053160Y063359D02*
X053363Y063359D01*
X053465Y063257D01*
X053465Y063054D01*
X053363Y062952D01*
X053160Y062952D02*
X053058Y063155D01*
X053058Y063257D01*
X053160Y063359D01*
X052854Y063359D02*
X052854Y062952D01*
X053160Y062952D01*
X052475Y063054D02*
X052373Y062952D01*
X052475Y063054D02*
X052475Y063257D01*
X052373Y063359D01*
X052170Y063359D01*
X052068Y063257D01*
X052068Y063155D01*
X052170Y062952D01*
X051864Y062952D01*
X051864Y063359D01*
X051966Y063560D02*
X051864Y063661D01*
X051864Y063865D01*
X051966Y063967D01*
X052068Y063967D01*
X052170Y063865D01*
X052271Y063967D01*
X052373Y063967D01*
X052475Y063865D01*
X052475Y063661D01*
X052373Y063560D01*
X052170Y063763D02*
X052170Y063865D01*
X051485Y063967D02*
X050874Y063967D01*
X050874Y064167D02*
X050874Y064473D01*
X050976Y064574D01*
X051383Y064574D01*
X051485Y064473D01*
X051485Y064167D01*
X050874Y064167D01*
X050874Y063560D02*
X051485Y063967D01*
X051485Y063560D02*
X050874Y063560D01*
X050976Y063359D02*
X050874Y063257D01*
X050874Y063054D01*
X050976Y062952D01*
X051383Y062952D01*
X051485Y063054D01*
X051485Y063257D01*
X051383Y063359D01*
X051180Y063359D01*
X051180Y063155D01*
X055824Y063257D02*
X056130Y062952D01*
X056130Y063359D01*
X056435Y063257D02*
X055824Y063257D01*
X046497Y054066D02*
X046090Y054066D01*
X046090Y053760D01*
X046294Y053862D01*
X046396Y053862D01*
X046497Y053760D01*
X046497Y053557D01*
X046396Y053455D01*
X046192Y053455D01*
X046090Y053557D01*
X045890Y053455D02*
X045483Y053455D01*
X045282Y053455D02*
X045282Y053862D01*
X045079Y054066D01*
X044875Y053862D01*
X044875Y053455D01*
X044875Y053760D02*
X045282Y053760D01*
X045483Y053862D02*
X045686Y054066D01*
X045686Y053455D01*
X045686Y053076D02*
X045686Y052465D01*
X045483Y052465D02*
X045890Y052465D01*
X046090Y052770D02*
X046497Y052770D01*
X046396Y052465D02*
X046396Y053076D01*
X046090Y052770D01*
X045686Y053076D02*
X045483Y052872D01*
X045282Y052872D02*
X045282Y052465D01*
X045282Y052770D02*
X044875Y052770D01*
X044875Y052872D02*
X045079Y053076D01*
X045282Y052872D01*
X044875Y052872D02*
X044875Y052465D01*
X045079Y052086D02*
X045282Y051882D01*
X045282Y051475D01*
X045483Y051475D02*
X045890Y051475D01*
X045686Y051475D02*
X045686Y052086D01*
X045483Y051882D01*
X045282Y051780D02*
X044875Y051780D01*
X044875Y051882D02*
X045079Y052086D01*
X044875Y051882D02*
X044875Y051475D01*
X045079Y051096D02*
X045282Y050892D01*
X045282Y050485D01*
X045483Y050485D02*
X045890Y050485D01*
X046090Y050485D02*
X046497Y050892D01*
X046497Y050994D01*
X046396Y051096D01*
X046192Y051096D01*
X046090Y050994D01*
X045686Y051096D02*
X045686Y050485D01*
X045686Y050106D02*
X045686Y049495D01*
X045483Y049495D02*
X045890Y049495D01*
X046090Y049495D02*
X046497Y049495D01*
X046294Y049495D02*
X046294Y050106D01*
X046090Y049902D01*
X045686Y050106D02*
X045483Y049902D01*
X045282Y049902D02*
X045282Y049495D01*
X045282Y049800D02*
X044875Y049800D01*
X044875Y049902D02*
X045079Y050106D01*
X045282Y049902D01*
X044875Y049902D02*
X044875Y049495D01*
X045079Y049116D02*
X045282Y048912D01*
X045282Y048505D01*
X045483Y048505D02*
X045890Y048505D01*
X045686Y048505D02*
X045686Y049116D01*
X045483Y048912D01*
X045282Y048810D02*
X044875Y048810D01*
X044875Y048912D02*
X045079Y049116D01*
X044875Y048912D02*
X044875Y048505D01*
X045079Y048126D02*
X045282Y047922D01*
X045282Y047515D01*
X045483Y047617D02*
X045584Y047515D01*
X045788Y047515D01*
X045890Y047617D01*
X045890Y048024D01*
X045788Y048126D01*
X045584Y048126D01*
X045483Y048024D01*
X045483Y047922D01*
X045584Y047820D01*
X045890Y047820D01*
X045282Y047820D02*
X044875Y047820D01*
X044875Y047922D02*
X045079Y048126D01*
X044875Y047922D02*
X044875Y047515D01*
X045079Y047136D02*
X045282Y046932D01*
X045282Y046525D01*
X045483Y046627D02*
X045483Y046729D01*
X045584Y046830D01*
X045788Y046830D01*
X045890Y046729D01*
X045890Y046627D01*
X045788Y046525D01*
X045584Y046525D01*
X045483Y046627D01*
X045584Y046830D02*
X045483Y046932D01*
X045483Y047034D01*
X045584Y047136D01*
X045788Y047136D01*
X045890Y047034D01*
X045890Y046932D01*
X045788Y046830D01*
X045282Y046830D02*
X044875Y046830D01*
X044875Y046932D02*
X045079Y047136D01*
X044875Y046932D02*
X044875Y046525D01*
X045079Y045066D02*
X045282Y044862D01*
X045282Y044455D01*
X045483Y044455D02*
X045483Y044557D01*
X045890Y044964D01*
X045890Y045066D01*
X045483Y045066D01*
X045282Y044760D02*
X044875Y044760D01*
X044875Y044862D02*
X045079Y045066D01*
X044875Y044862D02*
X044875Y044455D01*
X045079Y044076D02*
X045282Y043872D01*
X045282Y043465D01*
X045483Y043567D02*
X045584Y043465D01*
X045788Y043465D01*
X045890Y043567D01*
X045890Y043669D01*
X045788Y043770D01*
X045483Y043770D01*
X045483Y043567D01*
X045483Y043770D02*
X045686Y043974D01*
X045890Y044076D01*
X045282Y043770D02*
X044875Y043770D01*
X044875Y043872D02*
X045079Y044076D01*
X044875Y043872D02*
X044875Y043465D01*
X045079Y043086D02*
X045282Y042882D01*
X045282Y042475D01*
X045483Y042577D02*
X045584Y042475D01*
X045788Y042475D01*
X045890Y042577D01*
X045890Y042780D01*
X045788Y042882D01*
X045686Y042882D01*
X045483Y042780D01*
X045483Y043086D01*
X045890Y043086D01*
X045282Y042780D02*
X044875Y042780D01*
X044875Y042882D02*
X045079Y043086D01*
X044875Y042882D02*
X044875Y042475D01*
X045079Y042096D02*
X045282Y041892D01*
X045282Y041485D01*
X045282Y041790D02*
X044875Y041790D01*
X044875Y041892D02*
X045079Y042096D01*
X044875Y041892D02*
X044875Y041485D01*
X045079Y041106D02*
X045282Y040902D01*
X045282Y040495D01*
X045483Y040597D02*
X045584Y040495D01*
X045788Y040495D01*
X045890Y040597D01*
X045890Y040699D01*
X045788Y040800D01*
X045686Y040800D01*
X045788Y040800D02*
X045890Y040902D01*
X045890Y041004D01*
X045788Y041106D01*
X045584Y041106D01*
X045483Y041004D01*
X045282Y040800D02*
X044875Y040800D01*
X044875Y040902D02*
X045079Y041106D01*
X044875Y040902D02*
X044875Y040495D01*
X045079Y040116D02*
X045282Y039912D01*
X045282Y039505D01*
X045483Y039505D02*
X045890Y039912D01*
X045890Y040014D01*
X045788Y040116D01*
X045584Y040116D01*
X045483Y040014D01*
X045282Y039810D02*
X044875Y039810D01*
X044875Y039912D02*
X045079Y040116D01*
X044875Y039912D02*
X044875Y039505D01*
X045079Y039126D02*
X045282Y038922D01*
X045282Y038515D01*
X045483Y038515D02*
X045890Y038515D01*
X045686Y038515D02*
X045686Y039126D01*
X045483Y038922D01*
X045282Y038820D02*
X044875Y038820D01*
X044875Y038922D02*
X045079Y039126D01*
X044875Y038922D02*
X044875Y038515D01*
X045079Y038136D02*
X045282Y037932D01*
X045282Y037525D01*
X045483Y037627D02*
X045890Y038034D01*
X045890Y037627D01*
X045788Y037525D01*
X045584Y037525D01*
X045483Y037627D01*
X045483Y038034D01*
X045584Y038136D01*
X045788Y038136D01*
X045890Y038034D01*
X045282Y037830D02*
X044875Y037830D01*
X044875Y037932D02*
X045079Y038136D01*
X044875Y037932D02*
X044875Y037525D01*
X044782Y036086D02*
X044782Y035679D01*
X044579Y035475D01*
X044375Y035679D01*
X044375Y036086D01*
X044983Y036086D02*
X045186Y036086D01*
X045084Y036086D02*
X045084Y035475D01*
X044983Y035475D02*
X045186Y035475D01*
X045388Y035475D02*
X045388Y036086D01*
X045795Y035475D01*
X045795Y036086D01*
X045896Y035096D02*
X045590Y035096D01*
X045590Y034485D01*
X045896Y034485D01*
X045997Y034587D01*
X045997Y034994D01*
X045896Y035096D01*
X045390Y035096D02*
X045390Y034485D01*
X044983Y035096D01*
X044983Y034485D01*
X044782Y034587D02*
X044782Y034790D01*
X044579Y034790D01*
X044782Y034587D02*
X044680Y034485D01*
X044477Y034485D01*
X044375Y034587D01*
X044375Y034994D01*
X044477Y035096D01*
X044680Y035096D01*
X044782Y034994D01*
X044680Y034106D02*
X044477Y034106D01*
X044375Y034004D01*
X044375Y033597D01*
X044477Y033495D01*
X044680Y033495D01*
X044782Y033597D01*
X044782Y033800D01*
X044579Y033800D01*
X044782Y034004D02*
X044680Y034106D01*
X044983Y034106D02*
X045390Y033495D01*
X045390Y034106D01*
X045590Y034106D02*
X045896Y034106D01*
X045997Y034004D01*
X045997Y033597D01*
X045896Y033495D01*
X045590Y033495D01*
X045590Y034106D01*
X044983Y034106D02*
X044983Y033495D01*
X044983Y033116D02*
X044983Y032709D01*
X045186Y032505D01*
X045390Y032709D01*
X045390Y033116D01*
X044782Y033116D02*
X044375Y033116D01*
X044375Y032810D01*
X044579Y032912D01*
X044680Y032912D01*
X044782Y032810D01*
X044782Y032607D01*
X044680Y032505D01*
X044477Y032505D01*
X044375Y032607D01*
X044477Y032126D02*
X044680Y032126D01*
X044782Y032024D01*
X044782Y031922D01*
X044680Y031820D01*
X044782Y031719D01*
X044782Y031617D01*
X044680Y031515D01*
X044477Y031515D01*
X044375Y031617D01*
X044579Y031820D02*
X044680Y031820D01*
X044983Y031617D02*
X045084Y031617D01*
X045084Y031515D01*
X044983Y031515D01*
X044983Y031617D01*
X045287Y031617D02*
X045388Y031515D01*
X045592Y031515D01*
X045694Y031617D01*
X045694Y031719D01*
X045592Y031820D01*
X045490Y031820D01*
X045592Y031820D02*
X045694Y031922D01*
X045694Y032024D01*
X045592Y032126D01*
X045388Y032126D01*
X045287Y032024D01*
X045894Y032126D02*
X045894Y031719D01*
X046098Y031515D01*
X046301Y031719D01*
X046301Y032126D01*
X046198Y031136D02*
X046198Y030525D01*
X046605Y030525D01*
X046402Y030830D02*
X046198Y030830D01*
X045997Y030729D02*
X045997Y030627D01*
X045896Y030525D01*
X045692Y030525D01*
X045590Y030627D01*
X045390Y030525D02*
X044983Y030525D01*
X044983Y031136D01*
X045390Y031136D01*
X045590Y031034D02*
X045590Y030932D01*
X045692Y030830D01*
X045896Y030830D01*
X045997Y030729D01*
X045997Y031034D02*
X045896Y031136D01*
X045692Y031136D01*
X045590Y031034D01*
X045186Y030830D02*
X044983Y030830D01*
X044782Y030830D02*
X044680Y030729D01*
X044375Y030729D01*
X044579Y030729D02*
X044782Y030525D01*
X044782Y030830D02*
X044782Y031034D01*
X044680Y031136D01*
X044375Y031136D01*
X044375Y030525D01*
X044375Y032024D02*
X044477Y032126D01*
X046198Y031136D02*
X046605Y031136D01*
X046806Y031136D02*
X047213Y031136D01*
X047009Y031136D02*
X047009Y030525D01*
X045890Y039505D02*
X045483Y039505D01*
X045788Y041485D02*
X045788Y042096D01*
X045483Y041790D01*
X045890Y041790D01*
X046192Y048505D02*
X046090Y048607D01*
X046497Y049014D01*
X046497Y048607D01*
X046396Y048505D01*
X046192Y048505D01*
X046090Y048607D02*
X046090Y049014D01*
X046192Y049116D01*
X046396Y049116D01*
X046497Y049014D01*
X046497Y050485D02*
X046090Y050485D01*
X045483Y050892D02*
X045686Y051096D01*
X045282Y050790D02*
X044875Y050790D01*
X044875Y050892D02*
X045079Y051096D01*
X044875Y050892D02*
X044875Y050485D01*
X046090Y051577D02*
X046192Y051475D01*
X046396Y051475D01*
X046497Y051577D01*
X046497Y051679D01*
X046396Y051780D01*
X046294Y051780D01*
X046396Y051780D02*
X046497Y051882D01*
X046497Y051984D01*
X046396Y052086D01*
X046192Y052086D01*
X046090Y051984D01*
X030075Y075733D02*
X029464Y075733D01*
X029464Y076038D01*
X029566Y076140D01*
X029770Y076140D01*
X029871Y076038D01*
X029871Y075733D01*
X029973Y076340D02*
X030075Y076442D01*
X030075Y076646D01*
X029973Y076747D01*
X029973Y076948D02*
X030075Y077050D01*
X030075Y077253D01*
X029973Y077355D01*
X029770Y077355D01*
X029668Y077253D01*
X029668Y077152D01*
X029770Y076948D01*
X029464Y076948D01*
X029464Y077355D01*
X029566Y076747D02*
X029464Y076646D01*
X029464Y076442D01*
X029566Y076340D01*
X029973Y076340D01*
X027105Y076442D02*
X027105Y076646D01*
X027003Y076747D01*
X027003Y076948D02*
X027105Y077050D01*
X027105Y077253D01*
X027003Y077355D01*
X026901Y077355D01*
X026800Y077253D01*
X026800Y076948D01*
X027003Y076948D01*
X026800Y076948D02*
X026596Y077152D01*
X026494Y077355D01*
X026596Y076747D02*
X026494Y076646D01*
X026494Y076442D01*
X026596Y076340D01*
X027003Y076340D01*
X027105Y076442D01*
X026800Y076140D02*
X026901Y076038D01*
X026901Y075733D01*
X027105Y075733D02*
X026494Y075733D01*
X026494Y076038D01*
X026596Y076140D01*
X026800Y076140D01*
X024135Y076038D02*
X024033Y076140D01*
X024135Y076038D02*
X024135Y075834D01*
X024033Y075733D01*
X023626Y075733D01*
X023524Y075834D01*
X023524Y076038D01*
X023626Y076140D01*
X023524Y076340D02*
X023524Y076747D01*
X023626Y076747D01*
X024033Y076340D01*
X024135Y076340D01*
X023830Y075532D02*
X023931Y075430D01*
X023931Y075125D01*
X024135Y075125D02*
X023524Y075125D01*
X023524Y075430D01*
X023626Y075532D01*
X023830Y075532D01*
X071125Y051714D02*
X071227Y051816D01*
X071430Y051816D01*
X071532Y051714D01*
X071532Y051612D01*
X071125Y051205D01*
X071532Y051205D01*
X071733Y051205D02*
X072140Y051205D01*
X071936Y051205D02*
X071936Y051816D01*
X071733Y051612D01*
X071834Y050826D02*
X072038Y050826D01*
X072140Y050724D01*
X071733Y050317D01*
X071834Y050215D01*
X072038Y050215D01*
X072140Y050317D01*
X072140Y050724D01*
X071834Y050826D02*
X071733Y050724D01*
X071733Y050317D01*
X071532Y050215D02*
X071125Y050215D01*
X071532Y050622D01*
X071532Y050724D01*
X071430Y050826D01*
X071227Y050826D01*
X071125Y050724D01*
X071329Y049836D02*
X071329Y049225D01*
X071532Y049225D02*
X071125Y049225D01*
X071125Y049632D02*
X071329Y049836D01*
X071733Y049734D02*
X071733Y049632D01*
X071834Y049530D01*
X072140Y049530D01*
X072140Y049327D02*
X072140Y049734D01*
X072038Y049836D01*
X071834Y049836D01*
X071733Y049734D01*
X071733Y049327D02*
X071834Y049225D01*
X072038Y049225D01*
X072140Y049327D01*
X072038Y048846D02*
X072140Y048744D01*
X072140Y048642D01*
X072038Y048540D01*
X071834Y048540D01*
X071733Y048642D01*
X071733Y048744D01*
X071834Y048846D01*
X072038Y048846D01*
X072038Y048540D02*
X072140Y048439D01*
X072140Y048337D01*
X072038Y048235D01*
X071834Y048235D01*
X071733Y048337D01*
X071733Y048439D01*
X071834Y048540D01*
X071532Y048235D02*
X071125Y048235D01*
X071329Y048235D02*
X071329Y048846D01*
X071125Y048642D01*
X071329Y047856D02*
X071329Y047245D01*
X071532Y047245D02*
X071125Y047245D01*
X071125Y047652D02*
X071329Y047856D01*
X071733Y047856D02*
X072140Y047856D01*
X072140Y047754D01*
X071733Y047347D01*
X071733Y047245D01*
X071936Y046764D02*
X071733Y046560D01*
X072038Y046560D01*
X072140Y046459D01*
X072140Y046357D01*
X072038Y046255D01*
X071834Y046255D01*
X071733Y046357D01*
X071733Y046560D01*
X071936Y046764D02*
X072140Y046866D01*
X071329Y046866D02*
X071329Y046255D01*
X071532Y046255D02*
X071125Y046255D01*
X071125Y046662D02*
X071329Y046866D01*
X071329Y045876D02*
X071329Y045265D01*
X071532Y045265D02*
X071125Y045265D01*
X071125Y045672D02*
X071329Y045876D01*
X071733Y045876D02*
X071733Y045570D01*
X071936Y045672D01*
X072038Y045672D01*
X072140Y045570D01*
X072140Y045367D01*
X072038Y045265D01*
X071834Y045265D01*
X071733Y045367D01*
X071733Y045876D02*
X072140Y045876D01*
X072038Y044886D02*
X071733Y044580D01*
X072140Y044580D01*
X072038Y044275D02*
X072038Y044886D01*
X071329Y044886D02*
X071329Y044275D01*
X071532Y044275D02*
X071125Y044275D01*
X071125Y044682D02*
X071329Y044886D01*
X071727Y042816D02*
X071625Y042714D01*
X071625Y042307D01*
X072032Y042714D01*
X072032Y042307D01*
X071930Y042205D01*
X071727Y042205D01*
X071625Y042307D01*
X071727Y042816D02*
X071930Y042816D01*
X072032Y042714D01*
X071829Y041826D02*
X071625Y041622D01*
X071829Y041826D02*
X071829Y041215D01*
X072032Y041215D02*
X071625Y041215D01*
X071727Y040836D02*
X071625Y040734D01*
X071727Y040836D02*
X071930Y040836D01*
X072032Y040734D01*
X072032Y040632D01*
X071625Y040225D01*
X072032Y040225D01*
X071930Y039846D02*
X072032Y039744D01*
X072032Y039642D01*
X071930Y039540D01*
X072032Y039439D01*
X072032Y039337D01*
X071930Y039235D01*
X071727Y039235D01*
X071625Y039337D01*
X071829Y039540D02*
X071930Y039540D01*
X071930Y039846D02*
X071727Y039846D01*
X071625Y039744D01*
X071930Y038856D02*
X071625Y038550D01*
X072032Y038550D01*
X071930Y038245D02*
X071930Y038856D01*
X072032Y037866D02*
X071625Y037866D01*
X071625Y037560D01*
X071829Y037662D01*
X071930Y037662D01*
X072032Y037560D01*
X072032Y037357D01*
X071930Y037255D01*
X071727Y037255D01*
X071625Y037357D01*
X071829Y036774D02*
X071625Y036570D01*
X071930Y036570D01*
X072032Y036469D01*
X072032Y036367D01*
X071930Y036265D01*
X071727Y036265D01*
X071625Y036367D01*
X071625Y036570D01*
X071829Y036774D02*
X072032Y036876D01*
X072032Y035886D02*
X071625Y035886D01*
X072032Y035886D02*
X072032Y035784D01*
X071625Y035377D01*
X071625Y035275D01*
X071680Y034326D02*
X071477Y034326D01*
X071375Y034224D01*
X071375Y034122D01*
X071477Y034020D01*
X071680Y034020D01*
X071782Y033919D01*
X071782Y033817D01*
X071680Y033715D01*
X071477Y033715D01*
X071375Y033817D01*
X071375Y033919D01*
X071477Y034020D01*
X071680Y034020D02*
X071782Y034122D01*
X071782Y034224D01*
X071680Y034326D01*
X071680Y033336D02*
X071477Y033336D01*
X071375Y033234D01*
X071375Y033132D01*
X071477Y033030D01*
X071782Y033030D01*
X071782Y032827D02*
X071782Y033234D01*
X071680Y033336D01*
X071782Y032827D02*
X071680Y032725D01*
X071477Y032725D01*
X071375Y032827D01*
X071579Y032346D02*
X071579Y031735D01*
X071782Y031735D02*
X071375Y031735D01*
X071375Y032142D02*
X071579Y032346D01*
X071983Y032244D02*
X072084Y032346D01*
X072288Y032346D01*
X072390Y032244D01*
X071983Y031837D01*
X072084Y031735D01*
X072288Y031735D01*
X072390Y031837D01*
X072390Y032244D01*
X071983Y032244D02*
X071983Y031837D01*
X072186Y031356D02*
X072186Y030745D01*
X071983Y030745D02*
X072390Y030745D01*
X072288Y030366D02*
X072084Y030366D01*
X071983Y030264D01*
X072288Y030366D02*
X072390Y030264D01*
X072390Y030162D01*
X071983Y029755D01*
X072390Y029755D01*
X072288Y029376D02*
X072390Y029274D01*
X072390Y029172D01*
X072288Y029070D01*
X072390Y028969D01*
X072390Y028867D01*
X072288Y028765D01*
X072084Y028765D01*
X071983Y028867D01*
X071782Y028765D02*
X071375Y028765D01*
X071579Y028765D02*
X071579Y029376D01*
X071375Y029172D01*
X071375Y029755D02*
X071782Y029755D01*
X071579Y029755D02*
X071579Y030366D01*
X071375Y030162D01*
X071375Y030745D02*
X071782Y030745D01*
X071579Y030745D02*
X071579Y031356D01*
X071375Y031152D01*
X071983Y031152D02*
X072186Y031356D01*
X072084Y029376D02*
X072288Y029376D01*
X072084Y029376D02*
X071983Y029274D01*
X072186Y029070D02*
X072288Y029070D01*
X070497Y028274D02*
X070396Y028376D01*
X070090Y028376D01*
X070090Y027765D01*
X070396Y027765D01*
X070497Y027867D01*
X070497Y028274D01*
X069890Y028376D02*
X069890Y027765D01*
X069483Y028376D01*
X069483Y027765D01*
X069282Y027867D02*
X069282Y028070D01*
X069079Y028070D01*
X069282Y027867D02*
X069180Y027765D01*
X068977Y027765D01*
X068875Y027867D01*
X068875Y028274D01*
X068977Y028376D01*
X069180Y028376D01*
X069282Y028274D01*
X069483Y027386D02*
X069788Y027386D01*
X069890Y027284D01*
X069890Y027080D01*
X069788Y026979D01*
X069483Y026979D01*
X069686Y026979D02*
X069890Y026775D01*
X070090Y026775D02*
X070497Y026775D01*
X070698Y026775D02*
X070698Y027386D01*
X071105Y027386D01*
X070902Y027080D02*
X070698Y027080D01*
X070497Y027386D02*
X070090Y027386D01*
X070090Y026775D01*
X070090Y027080D02*
X070294Y027080D01*
X069483Y026775D02*
X069483Y027386D01*
X069282Y027182D02*
X069282Y026775D01*
X069282Y027080D02*
X068875Y027080D01*
X068875Y027182D02*
X069079Y027386D01*
X069282Y027182D01*
X068875Y027182D02*
X068875Y026775D01*
D13*
X087659Y026607D02*
X087659Y027528D01*
X087659Y027988D02*
X087659Y028679D01*
X087889Y028909D01*
X088349Y028909D01*
X088580Y028679D01*
X088580Y027988D01*
X089040Y027988D02*
X087659Y027988D01*
X087659Y027067D02*
X089040Y027067D01*
X089040Y026147D02*
X089040Y025686D01*
X089040Y025916D02*
X087659Y025916D01*
X087659Y025686D02*
X087659Y026147D01*
X087659Y025226D02*
X087659Y024765D01*
X087659Y024996D02*
X089040Y024996D01*
X089040Y025226D02*
X089040Y024765D01*
X089040Y022924D02*
X087659Y022924D01*
X087659Y022003D02*
X089040Y022924D01*
X089040Y022003D02*
X087659Y022003D01*
X087889Y021543D02*
X087659Y021312D01*
X087659Y020852D01*
X087889Y020622D01*
X088810Y020622D01*
X089040Y020852D01*
X089040Y021312D01*
X088810Y021543D01*
X087889Y021543D01*
X087889Y020161D02*
X087659Y019931D01*
X087659Y019471D01*
X087889Y019241D01*
X088810Y019241D01*
X089040Y019471D01*
X089040Y019931D01*
X088810Y020161D01*
X088810Y018780D02*
X087889Y018780D01*
X087659Y018550D01*
X087659Y018090D01*
X087889Y017859D01*
X088810Y017859D01*
X089040Y018090D01*
X089040Y018550D01*
X088810Y018780D01*
X088810Y017399D02*
X089040Y017169D01*
X089040Y016478D01*
X087659Y016478D01*
X087659Y017169D01*
X087889Y017399D01*
X088119Y017399D01*
X088349Y017169D01*
X088349Y016478D01*
X087889Y016018D02*
X087659Y015788D01*
X087659Y015327D01*
X087889Y015097D01*
X088810Y015097D01*
X089040Y015327D01*
X089040Y015788D01*
X088810Y016018D01*
X087889Y016018D01*
X088349Y017169D02*
X088580Y017399D01*
X088810Y017399D01*
X089040Y014637D02*
X088580Y014176D01*
X088580Y014406D02*
X088580Y013716D01*
X089040Y013716D02*
X087659Y013716D01*
X087659Y014406D01*
X087889Y014637D01*
X088349Y014637D01*
X088580Y014406D01*
X089040Y011874D02*
X087659Y011874D01*
X088119Y011414D01*
X087659Y010954D01*
X089040Y010954D01*
X089040Y010493D02*
X088119Y010493D01*
X087659Y010033D01*
X088119Y009572D01*
X089040Y009572D01*
X089040Y009112D02*
X089040Y008191D01*
X087659Y008191D01*
X087659Y009112D01*
X088349Y009572D02*
X088349Y010493D01*
X088349Y008652D02*
X088349Y008191D01*
X087659Y007731D02*
X087659Y006810D01*
X087659Y007270D02*
X089040Y007270D01*
X088580Y028448D02*
X089040Y028909D01*
D14*
X067932Y006172D02*
X066705Y006172D01*
X066705Y005251D01*
X067319Y005558D01*
X067626Y005558D01*
X067932Y005251D01*
X067932Y004637D01*
X067626Y004330D01*
X067012Y004330D01*
X066705Y004637D01*
X066091Y004330D02*
X064863Y004330D01*
X065477Y004330D02*
X065477Y006172D01*
X064863Y005558D01*
X064249Y005865D02*
X064249Y004637D01*
X063942Y004330D01*
X063329Y004330D01*
X063022Y004637D01*
X064249Y005865D01*
X063942Y006172D01*
X063329Y006172D01*
X063022Y005865D01*
X063022Y004637D01*
X062408Y004330D02*
X061180Y004330D01*
X062408Y005558D01*
X062408Y005865D01*
X062101Y006172D01*
X061487Y006172D01*
X061180Y005865D01*
M02*
